{"glyphs":{"0":{"ha":876,"x_min":0,"x_max":0,"o":"m 128 157 b 319 1006 -10 422 -1 890 b 464 1031 365 1022 414 1031 b 697 943 553 1031 633 1010 b 683 72 900 742 858 272 b 450 -26 625 4 538 -26 b 128 157 321 -26 189 39 m 399 494 b 499 267 394 344 443 267 b 639 465 550 267 608 332 b 528 750 678 636 604 750 b 399 494 467 750 404 675 "},"1":{"ha":631,"x_min":0,"x_max":0,"o":"m 82 535 b 15 688 25 557 -1 629 b 63 764 22 717 42 742 b 164 853 93 796 129 824 b 301 969 211 890 256 929 b 418 1029 333 997 375 1022 b 492 1017 442 1033 469 1029 b 564 935 524 1000 551 969 b 572 790 582 890 578 839 b 550 592 569 765 551 617 b 560 279 540 488 549 383 b 542 39 569 200 575 113 b 393 -43 517 -19 453 -43 b 290 -8 354 -43 315 -32 b 225 276 233 49 226 203 b 235 568 222 374 229 471 b 228 564 235 569 231 565 b 121 528 199 543 158 528 b 82 535 107 528 94 531 "},"2":{"ha":814,"x_min":0,"x_max":0,"o":"m 106 522 b 115 925 17 631 29 814 b 429 1053 179 1008 329 1053 b 681 933 528 1053 622 1019 b 739 682 728 863 746 768 b 700 546 735 635 722 588 b 488 261 646 439 567 349 b 535 265 507 263 529 264 b 653 279 550 267 638 279 b 722 272 676 281 700 282 b 758 236 738 265 751 251 b 704 19 793 165 769 63 b 276 -32 631 -31 364 -40 b 92 32 225 -28 124 -17 b 92 246 61 79 67 194 b 163 335 108 279 129 317 b 486 736 299 407 489 535 b 411 824 486 794 447 824 b 346 721 372 824 335 790 b 361 594 353 679 368 636 b 204 482 347 519 274 482 b 106 522 167 482 129 493 "},"3":{"ha":810,"x_min":0,"x_max":0,"o":"m 53 89 b 47 201 38 125 36 164 b 121 286 60 238 88 269 b 189 296 140 297 167 301 b 342 219 243 279 289 240 b 410 207 364 211 388 207 b 514 268 456 207 497 225 b 496 382 526 301 524 360 b 460 394 486 389 472 393 b 290 376 404 401 347 382 b 233 390 271 375 249 378 b 190 550 196 417 182 504 b 218 599 194 568 203 588 b 264 619 231 610 247 617 b 354 628 293 626 324 625 b 429 650 381 631 408 635 b 403 783 481 686 479 786 b 318 743 371 782 342 763 b 201 665 282 714 246 679 b 169 660 190 663 181 660 b 49 771 113 660 63 710 b 54 857 42 799 42 831 b 421 1065 114 990 272 1065 b 553 1043 467 1065 513 1058 b 614 513 765 964 850 610 b 736 381 675 467 711 436 b 350 -61 847 126 592 -61 b 53 89 246 -61 99 -15 "},"4":{"ha":946,"x_min":0,"x_max":0,"o":"m 25 356 b 40 486 15 399 25 444 b 446 1004 114 690 274 869 b 567 1054 481 1031 524 1047 b 642 1056 592 1058 618 1060 b 744 972 689 1047 725 1018 b 761 824 764 926 763 874 b 761 475 760 721 747 622 b 888 467 797 476 867 472 b 915 446 899 464 910 456 b 906 286 935 414 926 317 b 853 253 893 268 875 256 b 781 257 829 249 804 254 l 772 257 b 790 103 775 206 786 154 b 782 43 790 82 790 61 b 590 -32 758 -19 657 -43 b 464 93 514 -22 471 15 b 468 214 463 133 467 174 b 472 276 468 224 469 256 b 257 256 400 263 328 256 b 163 260 225 256 193 257 b 25 356 101 263 38 289 m 317 507 b 321 475 317 499 315 479 b 367 468 328 468 357 468 b 485 475 386 468 454 475 b 474 693 483 504 475 665 b 469 728 474 700 474 722 b 343 586 435 715 361 617 b 317 507 329 563 319 535 "},"5":{"ha":826,"x_min":0,"x_max":0,"o":"m 49 650 b 61 832 43 710 46 772 b 324 1044 92 950 199 1032 b 563 1067 403 1051 485 1067 b 735 1021 607 1067 704 1060 b 761 965 749 1006 757 985 b 736 800 774 911 763 849 b 682 744 724 778 704 758 b 557 724 646 722 599 721 b 333 740 525 725 364 743 b 301 729 322 739 310 736 b 294 651 281 713 282 675 b 322 631 301 642 311 632 b 386 628 343 625 365 626 b 535 635 436 631 486 639 b 744 517 618 626 703 593 b 782 331 775 461 785 394 b 378 -58 771 114 594 -58 b 88 81 263 -58 128 -14 b 183 282 53 161 101 264 b 372 247 239 293 315 254 b 358 433 522 229 538 457 b 222 418 313 426 267 421 b 128 440 190 418 154 421 b 49 650 68 485 53 581 "},"6":{"ha":913,"x_min":0,"x_max":0,"o":"m 332 -12 b 51 590 83 58 6 349 b 546 1065 93 806 374 1089 b 654 950 603 1057 643 1004 b 649 897 657 933 656 914 b 615 854 642 881 629 867 b 457 728 565 808 506 775 b 410 678 442 711 425 696 b 564 707 457 697 511 707 b 864 515 696 707 826 647 b 581 -19 925 299 819 46 b 475 -32 547 -28 511 -32 b 332 -12 426 -32 378 -25 m 461 501 b 429 239 361 474 351 310 b 490 217 446 224 468 217 b 549 239 511 217 533 224 b 589 397 590 276 597 343 b 461 501 579 457 526 518 "},"7":{"ha":803,"x_min":0,"x_max":0,"o":"m 43 656 b 29 751 31 685 25 719 b 53 807 31 771 40 792 b 497 1033 113 892 401 997 b 617 1060 535 1047 575 1060 b 692 1039 642 1061 668 1050 b 769 946 728 1021 760 985 b 746 774 785 889 771 826 b 629 556 733 744 643 583 b 582 454 613 522 596 489 b 631 458 599 456 614 458 b 679 444 647 458 667 456 b 700 401 692 435 697 418 b 692 332 703 379 703 353 b 546 297 671 297 588 296 b 522 299 543 297 533 297 b 503 238 515 278 508 258 b 450 38 482 172 474 103 b 335 -46 429 -17 392 -46 b 171 29 285 -46 194 -18 b 163 126 154 57 158 93 b 211 307 169 188 188 249 l 204 307 b 129 344 176 307 143 321 b 140 457 111 378 118 426 b 197 482 154 474 174 483 b 276 478 224 482 250 479 b 288 476 279 476 283 476 b 407 692 324 550 364 622 b 215 586 344 654 286 604 b 164 579 199 582 181 579 b 43 656 111 579 64 604 "},"8":{"ha":838,"x_min":0,"x_max":0,"o":"m 286 -33 b 40 251 160 -18 21 106 b 193 507 56 365 101 439 b 188 926 39 650 69 813 b 500 1046 265 1001 386 1046 b 793 822 640 1046 769 978 b 657 535 810 708 744 594 b 661 78 804 411 792 203 b 356 -37 576 -3 469 -37 b 286 -33 333 -37 310 -36 m 354 333 b 394 224 306 268 343 224 b 471 256 418 224 447 233 b 431 411 536 314 546 367 b 354 333 413 403 365 350 m 444 821 b 388 725 381 829 360 781 b 436 676 399 706 417 689 b 444 821 479 715 529 810 "},"9":{"ha":878,"x_min":0,"x_max":0,"o":"m 49 496 b 332 1031 -12 714 93 967 b 442 1044 367 1040 404 1044 b 581 1025 489 1044 536 1038 b 821 450 831 954 867 693 b 368 -53 779 235 540 -78 b 258 61 310 -44 269 7 b 264 114 256 79 257 99 b 297 158 272 131 285 146 b 456 285 347 203 407 238 b 503 333 472 300 488 317 b 349 304 456 314 401 304 b 49 496 218 304 88 364 m 364 774 b 324 615 322 736 315 669 b 451 511 333 554 388 493 b 483 772 551 538 561 703 b 422 794 467 788 444 794 b 364 774 401 794 381 788 "},"―":{"ha":732,"x_min":0,"x_max":0,"o":""},"‖":{"ha":732,"x_min":0,"x_max":0,"o":""},"‗":{"ha":732,"x_min":0,"x_max":0,"o":""},"\u0000":{"ha":0,"x_min":0,"x_max":0,"o":""},"\r":{"ha":0,"x_min":0,"x_max":0,"o":""}," ":{"ha":417,"x_min":0,"x_max":0,"o":""},"\n":{"ha":0,"x_min":0,"x_max":0,"o":""},"!":{"ha":446,"x_min":0,"x_max":0,"o":"m 57 647 b 56 836 54 710 50 774 b 78 926 58 867 65 897 b 263 1032 119 1008 172 1032 b 397 917 344 1032 390 1006 b 388 761 403 865 397 813 b 358 578 385 739 361 600 b 314 339 350 531 342 378 b 214 285 288 301 251 285 b 82 394 154 285 93 329 b 57 647 68 478 61 563 m 131 -4 b 81 161 71 26 51 101 b 236 246 107 214 175 246 b 346 185 282 246 326 228 b 357 90 360 156 361 121 b 201 -19 346 15 271 -19 b 131 -4 176 -19 151 -15 "},"\"":{"ha":582,"x_min":0,"x_max":0,"o":"m 61 707 b 42 940 33 779 29 863 b 146 1022 51 996 97 1022 b 261 903 221 1022 256 976 b 250 746 263 850 258 797 b 158 626 242 692 226 626 b 61 707 103 626 78 658 m 347 703 b 328 936 319 775 315 858 b 432 1018 338 992 383 1018 b 547 899 507 1018 542 972 b 536 743 549 846 544 794 b 444 622 528 688 513 622 b 347 703 389 622 364 654 "},"‟":{"ha":582,"x_min":0,"x_max":0,"o":"m 61 707 b 158 626 78 658 103 626 b 250 746 226 626 242 692 b 261 903 258 797 263 850 b 146 1022 256 976 221 1022 b 42 940 97 1022 51 996 b 61 707 29 863 33 779 m 347 703 b 444 622 364 654 389 622 b 536 743 513 622 528 688 b 547 899 544 794 549 846 b 432 1018 542 972 507 1018 b 328 936 383 1018 338 992 b 347 703 315 858 319 775 "},"#":{"ha":1117,"x_min":0,"x_max":0,"o":"m 42 296 b 64 419 24 332 36 392 b 135 446 82 438 110 444 l 142 446 b 150 515 144 469 147 493 b 111 522 138 517 124 519 b 65 556 93 528 75 539 b 67 685 43 589 40 654 b 139 714 83 704 114 711 b 188 714 156 715 171 715 b 356 971 207 810 242 958 b 556 897 419 976 526 950 b 561 797 572 868 568 831 b 536 710 557 768 547 739 b 653 710 571 711 625 713 b 674 788 660 736 667 761 b 821 967 696 868 731 957 b 1021 893 886 972 993 946 b 1028 793 1038 864 1033 826 b 1001 706 1022 764 1013 735 l 1026 701 b 1079 579 1075 690 1088 628 b 961 513 1068 522 1010 513 b 939 514 953 513 946 513 b 922 435 932 488 928 461 b 986 428 950 433 972 432 b 1042 338 1025 414 1047 379 b 910 247 1033 264 972 250 l 906 247 l 906 229 b 871 11 906 158 944 49 b 796 -6 850 0 824 -6 b 607 239 656 -6 615 118 b 440 233 551 238 496 235 l 439 233 b 404 15 439 163 478 53 b 331 -1 383 4 357 -1 b 140 243 192 -1 147 122 b 42 296 106 249 61 264 m 472 515 b 453 413 464 482 458 447 b 606 419 507 415 569 418 b 618 524 608 454 613 489 b 483 517 574 522 528 518 b 472 515 481 515 476 515 "},"$":{"ha":826,"x_min":0,"x_max":0,"o":"m 174 469 b 69 806 53 549 -3 681 b 349 972 124 899 233 953 b 343 1036 346 999 343 1028 b 449 1104 343 1090 406 1104 b 519 1064 482 1104 504 1094 b 528 1021 525 1050 526 1036 b 526 976 528 1014 528 996 b 756 714 674 957 826 874 b 628 635 729 657 681 635 b 511 664 589 635 547 647 b 451 685 492 672 472 682 b 410 681 438 688 422 688 b 399 651 401 675 397 663 b 426 606 401 635 411 617 b 558 533 464 574 513 554 b 781 292 669 481 763 424 b 733 111 788 231 772 161 b 538 -7 685 50 615 13 b 539 -60 539 -25 539 -43 b 475 -144 539 -104 524 -140 b 383 -121 449 -147 397 -143 b 371 -25 374 -104 369 -60 b 121 35 294 -25 185 -10 b 72 125 92 56 69 92 b 210 256 78 207 132 256 b 278 244 231 256 254 251 b 331 236 297 239 314 236 b 357 371 414 236 449 311 b 174 469 299 408 231 432 "},"%":{"ha":1360,"x_min":0,"x_max":0,"o":"m 331 83 b 336 199 321 121 326 161 b 496 554 372 326 440 436 b 636 824 539 646 588 735 b 744 1001 669 885 703 946 b 865 1069 778 1049 806 1069 b 1064 963 938 1069 1036 1036 b 1067 867 1074 932 1075 897 b 1010 744 1056 824 1033 783 b 850 479 957 657 899 571 b 681 115 826 435 703 161 b 504 -35 647 40 594 -35 b 383 8 461 -36 417 -17 b 331 83 358 26 339 54 m 868 243 b 883 394 861 293 865 347 b 1088 550 919 488 985 550 b 1238 504 1135 550 1203 536 b 1318 396 1271 474 1301 438 b 1317 185 1344 331 1340 251 b 1233 81 1303 142 1272 101 b 1082 47 1188 54 1133 46 b 868 243 971 54 882 129 m 26 669 b 42 821 21 719 24 774 b 250 976 76 915 147 976 b 397 932 297 976 363 963 b 476 822 431 901 460 864 b 476 611 503 757 499 678 b 392 507 461 569 431 529 b 240 475 347 482 292 472 b 26 669 129 478 40 558 m 1064 343 b 1110 279 1054 306 1082 279 b 1151 307 1125 279 1142 288 b 1119 383 1167 338 1153 376 b 1086 369 1111 385 1093 375 b 1064 343 1078 363 1068 354 m 224 771 b 268 706 213 733 240 706 b 310 735 285 706 300 715 b 278 810 325 765 311 803 b 246 796 269 811 251 801 b 224 771 236 789 226 781 "},"&":{"ha":1001,"x_min":0,"x_max":0,"o":"m 153 64 b 97 483 25 158 8 357 b 200 575 125 521 158 553 b 146 613 181 586 163 599 b 261 1010 17 735 117 946 b 379 1036 300 1026 340 1036 b 554 975 442 1036 501 1015 b 556 1017 554 989 556 1003 b 665 1146 564 1086 588 1133 b 808 1096 715 1153 775 1135 b 804 908 842 1057 825 975 b 792 844 801 888 796 865 b 675 669 778 776 758 683 b 596 667 650 664 622 664 b 538 697 575 669 551 679 b 496 789 517 724 513 760 b 461 815 489 803 475 813 b 382 728 401 829 354 782 b 403 708 386 719 394 713 b 474 682 426 697 453 694 b 514 629 494 671 507 653 b 518 551 519 604 521 578 b 488 482 517 526 507 497 b 365 450 454 457 404 464 b 335 418 349 444 340 435 b 417 265 313 354 353 288 b 476 257 436 260 456 257 b 633 346 549 257 600 278 b 639 372 636 354 639 364 b 631 376 635 375 632 376 b 543 413 617 376 551 406 b 532 551 510 442 514 513 b 589 603 543 575 565 594 b 704 617 626 615 665 615 b 838 615 749 618 793 618 b 968 553 886 611 950 607 b 975 468 976 525 976 496 b 963 413 975 449 972 429 b 926 383 954 400 942 389 b 863 381 907 376 885 379 b 882 172 863 311 871 242 b 894 71 888 139 896 106 b 758 -40 893 -1 828 -40 b 646 88 668 -40 646 0 l 646 90 b 408 -10 578 33 497 -4 b 153 64 319 -15 224 11 "},"'":{"ha":296,"x_min":0,"x_max":0,"o":"m 61 707 b 42 940 33 779 29 863 b 146 1022 51 996 97 1022 b 261 903 221 1022 256 976 b 250 746 263 850 258 797 b 158 626 242 692 226 626 b 61 707 103 626 78 658 "},"‛":{"ha":296,"x_min":0,"x_max":0,"o":"m 61 707 b 158 626 78 658 103 626 b 250 746 226 626 242 692 b 261 903 258 797 263 850 b 146 1022 256 976 221 1022 b 42 940 97 1022 51 996 b 61 707 29 863 33 779 "},"(":{"ha":579,"x_min":0,"x_max":0,"o":"m 56 313 b 96 726 28 449 42 596 b 386 1088 156 871 257 1001 b 485 1119 411 1103 456 1118 b 589 997 564 1126 617 1063 b 490 860 568 946 525 904 b 372 636 436 792 394 715 b 382 318 346 532 350 419 b 519 106 407 240 456 165 b 560 -57 569 58 610 7 b 481 -87 543 -78 510 -86 b 281 -24 410 -92 333 -65 b 56 313 169 60 82 175 "},")":{"ha":576,"x_min":0,"x_max":0,"o":"m 46 926 b 0 1089 -6 972 -49 1024 b 78 1122 17 1110 50 1119 b 281 1065 149 1128 226 1104 b 517 736 394 985 486 872 b 490 321 549 600 539 453 b 211 -50 435 174 338 42 b 114 -86 188 -65 143 -82 b 6 33 35 -94 -19 -32 b 100 174 25 85 67 128 b 210 403 151 244 190 322 b 190 719 233 507 226 619 b 46 926 163 797 111 869 "},"*":{"ha":583,"x_min":0,"x_max":0,"o":"m 56 813 b 71 918 21 853 32 901 b 97 922 78 921 88 922 b 129 918 108 922 119 921 b 206 889 156 913 181 900 b 217 885 208 888 213 886 b 215 896 217 889 215 893 b 246 1031 215 936 215 1000 b 286 1046 257 1040 272 1046 b 364 907 354 1046 361 957 l 364 883 b 454 918 392 897 424 911 b 486 922 465 921 475 922 b 513 918 496 922 506 921 b 528 813 551 901 561 853 b 458 764 511 794 485 778 b 489 749 472 758 483 753 b 546 692 514 735 542 711 b 546 656 549 679 547 667 b 483 611 539 624 514 611 b 371 643 451 611 400 631 b 364 568 369 618 368 593 b 326 494 358 532 346 508 b 286 489 314 486 299 486 b 225 581 239 500 228 535 b 222 647 224 592 222 615 b 142 618 196 636 169 625 b 99 611 126 613 111 611 b 58 621 83 611 71 614 b 38 656 46 629 40 642 b 36 692 35 667 33 679 b 94 749 42 711 68 735 b 124 764 100 753 110 758 b 56 813 97 778 72 794 "},"+":{"ha":717,"x_min":0,"x_max":0,"o":"m 40 318 b 79 483 7 371 21 450 b 192 506 111 501 153 506 l 242 506 b 363 718 242 593 247 718 b 486 546 465 718 486 629 b 485 507 485 533 485 521 b 686 426 553 504 654 497 b 692 360 696 406 696 382 b 581 264 682 294 647 269 b 483 261 565 263 528 263 b 465 139 481 221 475 179 b 399 53 454 96 432 68 b 332 49 378 43 354 44 b 238 161 268 64 240 89 b 238 263 236 178 236 215 l 201 263 b 103 275 168 264 133 265 b 40 318 76 282 53 299 "},",":{"ha":304,"x_min":0,"x_max":0,"o":"m 35 35 b 78 190 13 88 29 158 b 151 208 96 203 124 208 b 219 192 178 208 203 203 b 278 42 269 158 285 99 b 204 -117 268 -28 250 -65 b 164 -135 193 -128 178 -135 b 138 -97 147 -135 133 -122 b 165 -32 140 -74 156 -54 b 171 -10 168 -25 169 -18 b 156 -15 165 -12 161 -14 b 35 35 111 -28 53 -8 "},"-":{"ha":614,"x_min":0,"x_max":0,"o":"m 42 318 b 75 483 15 371 26 450 b 168 506 101 501 136 506 b 507 492 282 503 397 522 b 581 426 543 482 567 460 b 585 360 588 406 588 382 b 492 264 576 303 554 269 b 176 263 450 260 219 261 b 42 318 126 265 69 269 "},".":{"ha":307,"x_min":0,"x_max":0,"o":"m 46 19 b 51 167 15 54 24 126 b 158 228 76 204 114 228 b 261 178 199 228 239 210 b 279 82 281 151 282 114 b 154 -17 274 14 217 -17 b 46 19 118 -17 72 -8 "},"/":{"ha":642,"x_min":0,"x_max":0,"o":"m 35 32 b 47 229 22 96 35 164 b 240 881 93 450 160 669 b 297 1024 258 929 274 978 b 364 1103 315 1053 336 1082 b 461 1129 392 1121 426 1129 b 639 1010 536 1129 619 1086 b 629 881 650 968 642 921 b 556 690 621 857 565 714 b 439 322 513 569 472 446 b 367 51 429 289 376 85 b 186 -82 335 -43 290 -82 b 35 32 110 -82 49 -49 "},":":{"ha":333,"x_min":0,"x_max":0,"o":"m 56 19 b 61 167 25 54 33 126 b 168 228 86 204 124 228 b 271 178 208 228 249 210 b 289 82 290 151 292 114 b 164 -17 283 14 226 -17 b 56 19 128 -17 82 -8 m 63 447 b 67 594 31 483 40 556 b 176 657 93 632 129 657 b 278 606 215 657 254 639 b 294 511 296 579 299 543 b 169 411 289 442 233 411 b 63 447 136 411 85 421 "},";":{"ha":346,"x_min":0,"x_max":0,"o":"m 43 35 b 86 190 21 88 38 158 b 160 208 104 203 132 208 b 228 192 186 208 211 203 b 286 42 278 158 293 99 b 213 -117 276 -28 258 -65 b 172 -135 201 -128 186 -135 b 146 -97 156 -135 142 -122 b 174 -32 149 -74 164 -54 b 179 -10 176 -25 178 -18 b 164 -15 174 -12 169 -14 b 43 35 119 -28 61 -8 m 76 447 b 81 594 44 483 54 556 b 190 657 106 631 144 657 b 292 606 229 657 268 639 b 310 511 310 579 313 543 b 185 411 301 443 250 411 b 76 447 150 411 99 421 "},"<":{"ha":638,"x_min":0,"x_max":0,"o":"m 51 363 b 29 465 33 392 21 431 b 258 738 56 588 158 674 b 454 815 311 772 385 815 b 526 796 479 815 504 810 b 579 590 597 751 622 661 b 489 526 560 560 522 542 b 301 456 468 517 351 475 b 514 354 375 426 447 396 b 479 107 636 279 578 139 b 443 103 468 104 456 103 b 383 111 422 103 403 106 b 246 182 333 126 290 156 b 51 363 171 229 99 288 "},"=":{"ha":639,"x_min":0,"x_max":0,"o":"m 51 464 b 85 629 25 515 36 594 b 178 650 111 647 146 651 b 363 654 239 649 301 654 b 517 636 415 654 467 651 b 590 571 553 626 576 606 b 594 504 597 550 597 526 b 501 408 586 447 564 414 b 186 408 460 406 229 406 b 51 464 136 408 78 415 m 56 157 b 89 322 28 208 40 289 b 182 344 114 340 150 344 b 521 331 296 342 410 361 b 593 265 557 319 581 299 b 597 199 601 244 600 221 b 506 103 589 144 568 106 b 190 101 463 99 233 100 b 56 157 139 104 85 107 "},">":{"ha":638,"x_min":0,"x_max":0,"o":"m 158 107 b 124 354 60 139 1 279 b 336 456 190 396 263 426 b 149 526 286 475 169 517 b 58 590 115 542 78 560 b 111 796 15 661 40 751 b 183 815 133 810 158 815 b 379 738 253 815 326 772 b 608 465 479 674 582 588 b 586 363 617 431 604 392 b 392 182 539 288 467 229 b 254 111 347 156 304 126 b 194 103 235 106 215 103 b 158 107 182 103 169 104 "},"?":{"ha":761,"x_min":0,"x_max":0,"o":"m 99 611 b 40 854 0 644 17 774 b 354 1042 78 982 214 1042 b 704 874 496 1042 642 983 b 618 490 772 756 729 578 b 468 419 572 454 504 461 b 456 326 456 406 458 346 b 336 246 456 264 388 246 b 206 378 249 246 211 289 b 215 492 204 415 208 454 b 263 563 225 525 232 543 b 357 611 293 581 326 593 b 411 808 429 654 478 758 b 358 825 397 819 378 825 b 279 774 324 825 288 807 b 271 681 271 743 276 711 b 143 604 264 626 197 601 b 99 611 128 606 113 606 m 224 0 b 364 207 129 81 251 207 b 457 168 397 207 431 196 b 446 6 500 122 493 49 b 358 -29 422 -15 389 -26 b 224 0 313 -35 258 -29 "},"@":{"ha":1168,"x_min":0,"x_max":0,"o":"m 228 -18 b 93 658 42 149 -17 446 b 661 1006 197 864 431 1006 b 1114 678 865 1006 1069 888 b 1090 374 1135 578 1129 468 b 849 199 1047 265 968 199 b 699 285 788 199 731 233 b 686 310 694 293 690 300 b 668 279 681 296 674 285 b 549 207 640 242 594 213 b 444 215 514 204 478 204 b 331 314 397 232 356 271 b 301 475 304 361 299 421 b 599 753 307 635 439 753 b 760 674 664 753 724 729 b 778 606 774 654 776 629 b 782 503 779 571 776 536 b 792 479 782 497 788 482 b 815 479 796 474 808 476 b 853 543 832 486 849 525 b 842 657 863 581 854 621 b 589 807 804 761 696 807 b 406 761 528 807 460 789 b 263 540 329 718 272 628 b 286 336 256 472 260 399 b 463 175 319 256 379 199 b 660 163 526 160 594 158 b 806 175 708 165 757 168 b 938 189 824 176 919 189 b 1004 181 960 188 983 186 b 1047 143 1022 175 1038 158 b 1067 17 1069 107 1078 57 b 685 -142 1022 -129 808 -142 b 228 -18 535 -142 342 -119 m 549 490 b 592 435 546 453 567 435 b 633 450 606 435 619 440 b 669 565 661 469 676 532 b 617 589 664 586 639 593 b 590 581 613 588 594 585 b 549 490 564 561 551 524 "},"A":{"ha":875,"x_min":0,"x_max":0,"o":"m 119 -4 b 47 307 -28 44 8 196 b 167 711 101 506 124 558 b 231 906 185 776 203 843 b 454 1060 268 999 351 1060 b 726 615 650 1060 688 771 b 863 129 769 453 832 294 b 858 49 868 97 868 79 b 738 -18 839 3 785 -18 b 700 -12 725 -18 713 -15 b 597 175 636 6 608 119 b 375 175 542 179 433 181 b 200 -18 349 89 307 -18 b 119 -4 176 -18 150 -14 m 447 386 b 557 389 465 389 517 390 b 499 619 540 467 521 543 b 438 386 483 558 454 449 "},"B":{"ha":883,"x_min":0,"x_max":0,"o":"m 71 133 b 46 514 42 257 49 386 b 76 822 46 617 50 722 b 232 1006 104 915 144 963 b 490 1061 311 1046 401 1063 b 600 1047 526 1060 564 1057 b 793 889 678 1026 761 967 b 808 706 815 832 822 765 b 672 540 792 633 739 572 b 746 501 699 532 724 518 b 817 135 854 418 888 250 b 332 -50 725 -22 493 -43 b 71 133 203 -57 101 0 m 308 651 b 318 650 307 649 314 650 b 499 796 407 649 564 682 b 419 840 483 824 451 840 b 308 651 331 840 311 719 m 313 451 b 328 289 317 392 321 329 b 338 288 331 289 335 289 b 449 306 375 285 413 294 b 539 375 485 318 526 339 b 494 454 550 408 528 442 b 397 464 464 465 429 465 b 313 451 369 463 342 454 "},"C":{"ha":864,"x_min":0,"x_max":0,"o":"m 31 367 b 507 1051 -7 690 196 1051 b 636 1032 549 1051 592 1046 b 801 696 763 994 901 828 b 635 631 765 647 694 625 b 554 674 603 633 575 649 b 511 756 535 697 528 729 b 467 783 499 776 483 783 b 372 710 431 783 390 742 b 347 335 307 597 290 450 b 458 263 372 286 414 263 b 569 324 499 263 540 283 b 678 386 596 368 636 386 b 788 342 718 386 757 369 b 768 104 864 271 824 186 b 465 -33 701 10 583 -33 b 31 367 226 -33 58 132 "},"D":{"ha":965,"x_min":0,"x_max":0,"o":"m 76 138 b 83 843 24 368 39 710 b 242 1031 117 942 149 981 b 506 1086 322 1071 415 1088 b 936 486 808 1079 935 751 b 917 324 936 432 932 376 b 344 -50 839 57 626 -50 b 76 138 213 -50 108 1 m 339 653 b 338 310 306 542 314 408 b 603 542 519 292 583 426 b 486 751 618 640 582 751 b 376 714 456 751 419 740 b 339 653 357 701 346 676 "},"E":{"ha":783,"x_min":0,"x_max":0,"o":"m 50 383 b 47 649 46 471 44 560 b 75 893 50 731 54 814 b 304 1053 97 1007 199 1044 b 415 1053 342 1054 378 1056 b 750 939 525 1044 710 1049 b 750 863 761 908 756 894 b 654 735 742 815 706 747 b 622 731 644 732 633 731 b 571 738 606 731 588 733 b 460 775 533 747 497 763 b 389 790 438 783 413 792 b 338 757 368 789 346 775 b 335 667 325 729 329 696 b 354 629 338 653 342 636 b 489 617 390 607 442 617 b 589 564 531 617 569 610 b 572 451 604 529 596 481 b 510 418 557 433 533 422 b 418 422 479 414 449 419 b 354 411 400 424 364 425 b 354 332 344 396 350 350 b 442 265 367 285 392 265 b 506 278 464 265 488 271 b 601 338 539 293 567 322 b 649 350 617 343 632 350 b 760 215 714 349 758 281 b 735 119 761 182 751 149 b 589 -10 706 61 649 15 b 382 -39 524 -36 451 -44 b 83 161 251 -29 122 26 b 50 383 61 232 56 308 "},"F":{"ha":815,"x_min":0,"x_max":0,"o":"m 57 243 b 60 735 53 407 46 572 b 328 1057 76 915 110 1057 b 510 1038 389 1057 450 1046 b 694 1026 560 1031 644 1033 b 633 707 872 1004 824 693 b 467 738 576 711 522 729 b 404 732 446 740 421 744 b 403 614 371 707 349 624 b 604 614 429 610 576 615 b 672 604 624 614 654 613 b 646 357 760 561 760 378 b 589 353 626 354 607 353 b 457 364 544 353 500 360 b 357 268 378 372 354 340 b 374 81 361 206 372 143 b 364 10 375 56 375 31 b 222 -60 338 -36 279 -60 b 76 33 156 -60 90 -29 b 57 243 61 101 58 174 "},"G":{"ha":886,"x_min":0,"x_max":0,"o":"m 31 367 b 507 1051 -7 690 196 1051 b 636 1032 549 1051 592 1046 b 801 696 763 994 901 828 b 635 631 765 647 694 625 b 554 674 603 633 575 649 b 511 756 535 697 528 729 b 467 783 499 776 483 783 b 372 710 431 783 390 742 b 347 335 307 597 290 450 b 471 258 372 285 424 258 b 576 379 528 258 581 296 b 574 396 576 385 575 390 b 474 401 540 394 507 394 b 425 422 457 404 439 411 b 404 454 415 429 407 442 b 464 567 393 501 419 551 b 679 586 500 579 600 586 b 847 450 796 586 825 582 b 776 117 863 338 838 211 b 465 -33 710 14 588 -33 b 31 367 226 -33 58 132 "},"H":{"ha":990,"x_min":0,"x_max":0,"o":"m 49 431 b 44 689 42 515 42 603 b 263 1056 51 839 63 1056 b 415 940 335 1056 407 1018 b 406 722 426 868 410 794 b 408 553 404 694 400 590 b 444 554 424 553 440 554 b 578 563 489 557 533 561 b 592 896 574 674 571 786 b 733 1053 610 983 642 1038 b 858 1042 775 1058 819 1056 b 917 999 881 1033 903 1018 b 950 829 950 951 953 886 b 917 590 944 750 926 671 b 908 221 901 468 896 343 b 906 58 915 167 921 110 b 858 1 899 35 881 13 b 732 -14 821 -18 774 -22 b 604 133 658 4 619 61 b 589 350 586 204 586 278 l 589 360 b 422 361 542 358 461 361 b 429 169 425 293 429 190 b 417 53 431 131 432 89 b 293 -21 392 -7 354 -21 b 176 24 251 -18 207 -3 b 49 431 85 99 58 322 "},"I":{"ha":468,"x_min":0,"x_max":0,"o":"m 50 467 b 76 947 49 626 54 789 b 94 997 79 964 85 982 b 132 1035 103 1013 118 1024 b 250 1068 165 1058 208 1067 b 339 1056 279 1069 311 1067 b 432 922 393 1033 431 981 b 424 842 433 896 429 868 b 401 718 421 826 404 733 b 381 442 386 628 378 535 b 399 157 383 347 396 251 b 374 29 400 114 399 65 b 229 -35 347 -10 282 -35 b 119 19 185 -35 147 -15 b 50 467 60 96 50 374 "},"J":{"ha":910,"x_min":0,"x_max":0,"o":"m 13 399 b 40 533 11 444 18 493 b 203 615 72 592 139 615 b 332 481 275 615 340 578 b 425 285 321 356 369 285 b 544 450 471 285 522 336 b 521 888 575 617 526 726 b 710 1044 517 986 617 1044 b 871 857 829 1044 868 964 b 422 -33 881 511 864 -54 b 13 399 197 -22 21 156 "},"K":{"ha":931,"x_min":0,"x_max":0,"o":"m 76 75 b 50 496 50 214 46 356 b 82 842 51 611 56 729 b 281 1047 107 950 156 1047 b 438 931 354 1047 417 1003 b 442 819 446 896 446 857 b 419 729 439 804 431 767 b 718 990 497 815 617 939 b 803 1010 743 1004 775 1013 b 914 904 857 1001 901 957 b 910 854 918 888 915 869 b 863 785 900 828 882 804 b 679 631 806 729 740 682 b 579 547 667 619 607 568 b 803 332 651 474 728 403 b 879 242 831 306 861 276 b 893 181 889 224 894 201 b 782 32 889 118 846 47 b 674 43 746 24 707 29 b 464 224 594 74 518 160 b 382 332 436 260 411 296 b 394 168 388 276 393 222 b 375 44 396 126 394 81 b 235 -26 349 -6 288 -26 b 76 75 164 -26 89 7 "},"L":{"ha":725,"x_min":0,"x_max":0,"o":"m 53 364 b 47 639 44 456 44 547 b 72 890 50 724 54 808 b 217 1068 94 976 117 1054 b 304 1067 246 1071 276 1072 b 442 992 346 1061 419 1031 b 457 897 458 964 460 929 b 432 753 453 849 442 801 b 385 357 418 689 385 422 b 506 236 385 268 436 236 b 592 249 532 236 561 240 b 635 256 606 253 619 256 b 667 250 646 256 657 254 b 722 114 719 233 738 167 b 543 -17 699 29 624 -6 b 356 -22 481 -26 418 -25 b 175 33 292 -19 226 -1 b 53 364 76 104 61 254 "},"M":{"ha":1221,"x_min":0,"x_max":0,"o":"m 74 150 b 44 519 43 271 38 396 b 75 800 49 614 58 707 b 292 1018 97 918 168 1004 b 485 935 381 1028 450 1011 b 576 663 525 847 546 753 b 608 581 585 640 596 611 b 643 669 622 614 635 644 b 735 940 675 760 696 854 b 928 1025 769 1018 840 1035 b 1144 806 1053 1010 1124 924 b 1176 526 1161 714 1171 619 b 1147 157 1182 403 1178 276 b 967 -15 1122 64 1071 -15 b 878 8 935 -15 901 -7 b 863 240 808 54 856 165 b 844 604 874 361 868 485 b 797 493 826 564 803 506 b 681 207 757 397 732 296 b 614 172 667 183 640 172 b 551 201 590 172 565 182 b 422 486 490 286 464 390 b 376 599 417 499 393 557 b 357 233 353 479 347 354 b 342 1 364 160 413 47 b 253 -22 318 -14 286 -22 b 74 150 149 -22 96 56 "},"N":{"ha":1082,"x_min":0,"x_max":0,"o":"m 74 150 b 44 519 43 271 38 396 b 75 800 49 614 58 707 b 292 1018 97 918 168 1004 b 485 935 381 1028 450 1011 b 576 663 525 847 546 753 b 694 394 601 592 660 460 b 701 814 681 506 676 675 b 833 1014 717 900 743 997 b 1039 954 896 1025 1006 1007 b 1054 850 1058 924 1057 885 b 1018 676 1049 789 1033 736 b 976 203 985 539 983 344 b 826 -4 972 86 924 -4 b 740 15 801 -4 772 1 b 517 289 626 64 574 182 b 376 599 464 390 418 493 b 357 233 353 479 347 354 b 342 1 364 160 413 47 b 253 -22 318 -14 286 -22 b 74 150 149 -22 96 56 "},"O":{"ha":1019,"x_min":0,"x_max":0,"o":"m 76 247 b 28 526 38 333 25 432 b 114 846 32 636 57 751 b 519 1056 196 985 358 1056 b 885 886 661 1056 803 1000 b 988 628 939 810 975 719 b 990 451 996 569 997 510 b 511 -11 957 197 783 -11 b 76 247 321 -11 158 69 m 469 781 b 375 546 388 739 374 632 b 474 342 376 476 400 371 b 539 328 493 332 517 328 b 690 456 617 328 668 385 b 540 792 731 583 693 765 b 469 781 517 796 490 792 "},"P":{"ha":950,"x_min":0,"x_max":0,"o":"m 78 128 b 133 942 47 261 1 776 b 496 1083 214 1046 371 1083 b 869 932 642 1083 786 1033 b 936 676 926 861 946 764 b 471 363 913 472 679 363 b 389 368 443 363 415 364 b 406 269 393 335 400 301 b 428 90 418 210 433 150 b 406 26 425 68 418 46 b 226 -47 378 -15 303 -56 b 78 128 132 -37 96 51 m 528 842 b 379 619 404 842 386 715 b 478 622 411 618 446 615 b 589 671 518 629 560 644 b 528 842 690 764 614 842 "},"Q":{"ha":1035,"x_min":0,"x_max":0,"o":"m 76 247 b 28 526 38 333 25 432 b 114 846 32 636 57 751 b 519 1056 196 985 358 1056 b 885 886 661 1056 803 1000 b 988 628 939 810 975 719 b 990 451 996 569 997 510 b 888 181 978 353 944 263 b 907 167 894 176 900 171 b 985 97 935 144 965 126 b 1000 33 999 78 1003 57 b 803 -104 986 -61 896 -125 b 694 -26 760 -94 722 -61 b 668 15 685 -12 676 1 b 658 11 664 14 661 13 b 511 -11 611 -4 561 -11 b 76 247 321 -11 158 69 m 469 781 b 375 546 388 739 374 632 b 474 342 376 476 400 371 b 510 331 485 336 497 332 b 494 421 494 357 485 392 b 574 479 506 458 538 479 b 671 413 619 479 646 447 b 690 456 679 426 686 442 b 540 792 731 583 693 765 b 469 781 517 796 490 792 "},"R":{"ha":963,"x_min":0,"x_max":0,"o":"m 76 125 b 132 922 46 256 0 760 b 493 1061 210 1025 372 1061 b 868 913 640 1061 785 1011 b 935 663 925 844 944 747 b 688 386 918 522 829 431 b 886 125 776 322 874 235 b 794 -12 892 69 849 4 b 756 -18 782 -17 769 -18 b 689 -3 733 -18 710 -12 b 647 28 674 6 661 15 b 429 294 610 60 460 256 b 390 344 424 301 404 328 b 404 263 394 317 399 290 b 426 88 417 206 432 146 b 404 25 424 65 417 44 b 225 -47 376 -15 301 -56 b 76 125 131 -37 94 49 m 526 825 b 378 607 404 825 385 703 b 476 608 410 604 444 603 b 588 657 517 617 558 631 b 526 825 689 747 613 825 "},"S":{"ha":803,"x_min":0,"x_max":0,"o":"m 154 501 b 75 865 40 593 -6 738 b 433 1029 147 982 296 1029 b 506 1025 458 1029 482 1028 b 753 725 663 1006 842 903 b 631 649 725 669 679 649 b 506 688 589 649 543 665 b 449 714 488 697 468 708 b 406 711 435 717 418 718 b 393 682 396 706 392 692 b 417 629 393 663 403 643 b 543 544 453 594 499 571 b 749 272 658 479 738 413 b 689 83 751 207 732 135 b 374 -40 613 -6 494 -40 b 72 42 286 -40 142 -18 b 31 142 46 67 25 106 b 165 271 40 224 93 271 b 244 254 190 271 217 265 b 303 242 265 246 285 242 b 332 385 382 242 417 318 b 154 501 276 428 210 458 "},"T":{"ha":785,"x_min":0,"x_max":0,"o":"m 26 813 b 18 1001 -11 863 -14 947 b 86 1058 32 1028 58 1049 b 199 1067 121 1071 161 1068 b 435 1061 229 1064 404 1060 b 585 1068 485 1061 535 1067 b 718 1057 629 1069 679 1079 b 764 1014 736 1046 753 1032 b 779 978 772 1003 776 990 b 772 851 792 938 792 889 b 692 785 757 821 725 796 b 561 772 650 771 604 765 b 588 326 553 624 560 472 b 619 185 597 279 611 232 b 622 72 625 147 629 108 b 453 -46 606 -7 529 -46 b 249 226 299 -46 263 99 b 238 664 233 371 239 518 b 244 796 238 708 240 751 b 83 779 192 781 136 769 b 26 813 61 783 40 796 "},"U":{"ha":992,"x_min":0,"x_max":0,"o":"m 47 408 b 43 661 38 492 36 576 b 44 689 43 672 44 682 b 138 1019 50 775 63 975 b 264 1051 175 1042 221 1049 b 424 911 356 1057 419 1011 b 400 631 429 817 410 724 b 386 454 393 572 389 513 b 388 375 386 428 385 401 b 485 274 394 304 438 274 b 611 379 539 274 596 313 b 628 622 629 458 631 540 b 614 769 626 671 621 721 b 597 897 607 813 599 854 b 604 982 596 925 596 954 b 747 1056 618 1032 685 1056 b 867 1007 800 1056 850 1039 b 850 139 968 803 1011 386 b 735 31 821 96 781 57 b 501 -43 664 -22 589 -43 b 260 14 426 -43 326 -22 b 47 408 118 93 64 256 "},"V":{"ha":875,"x_min":0,"x_max":0,"o":"m 46 717 b 118 1028 7 828 -29 979 b 199 1042 149 1038 175 1042 b 354 903 282 1042 322 983 b 426 679 390 813 401 772 b 497 406 435 646 478 483 b 579 753 531 519 560 635 b 610 910 588 806 596 858 b 656 1017 621 947 635 985 b 742 1060 679 1049 703 1060 b 861 993 786 1060 846 1039 b 861 894 872 963 867 926 b 725 408 831 729 768 571 b 453 -36 686 253 649 -36 b 229 118 353 -36 267 25 b 165 313 201 181 183 247 b 46 717 122 465 100 518 "},"W":{"ha":1261,"x_min":0,"x_max":0,"o":"m 114 154 b 56 785 25 358 25 569 b 238 999 75 913 93 999 b 378 953 293 999 353 985 b 403 851 400 925 403 886 b 381 674 404 793 389 733 b 361 378 363 550 353 488 b 404 319 369 336 386 319 b 472 392 429 319 458 351 b 507 496 485 425 497 461 b 540 608 518 533 526 572 b 590 668 550 632 567 658 b 657 669 607 674 635 675 b 719 607 692 658 707 643 b 754 494 735 569 743 532 b 789 389 764 458 776 424 b 857 318 803 349 832 318 b 900 376 875 318 892 335 b 881 672 908 485 899 549 b 858 850 872 732 857 790 b 1024 997 858 963 914 997 b 1206 782 1169 997 1186 911 b 1147 153 1236 568 1236 357 b 907 -15 1101 47 1003 -15 b 708 121 828 -15 751 26 b 631 315 679 185 663 251 b 553 122 599 254 582 186 b 354 -12 508 29 432 -12 b 114 154 257 -12 158 50 "},"X":{"ha":921,"x_min":0,"x_max":0,"o":"m 22 851 b 122 1004 22 915 74 964 b 183 1031 139 1019 161 1031 b 257 1010 208 1031 236 1025 b 460 790 335 954 406 869 b 710 1028 507 858 621 1011 b 771 1022 731 1032 753 1031 b 899 867 832 996 893 932 b 890 808 899 847 899 826 b 658 551 861 743 711 600 l 658 550 b 872 196 735 469 840 306 b 872 74 883 157 888 111 b 801 -3 858 42 832 14 b 668 -28 763 -25 713 -36 b 581 28 635 -21 600 -1 b 522 149 554 64 539 107 b 458 276 503 193 483 236 b 376 96 426 219 403 156 b 247 -28 351 33 319 -18 b 75 33 188 -37 117 -12 b 40 100 58 51 46 75 b 47 193 35 131 39 164 b 263 551 81 299 182 468 b 71 749 203 610 126 686 b 22 851 46 776 22 813 "},"Y":{"ha":965,"x_min":0,"x_max":0,"o":"m 33 547 b 29 746 24 613 22 679 b 31 767 29 754 31 763 b 124 1028 36 835 49 992 b 250 1053 161 1044 207 1050 b 410 942 342 1057 406 1021 b 386 722 415 868 399 794 b 497 511 363 586 431 511 b 614 715 560 511 624 576 b 600 832 611 754 607 793 b 583 931 593 864 585 897 b 590 997 582 953 582 976 b 733 1057 604 1038 671 1057 b 853 1018 786 1057 836 1043 b 836 336 954 857 997 529 b 721 250 807 301 767 271 b 668 225 704 240 688 232 b 669 119 671 189 671 154 b 658 39 669 92 667 65 b 494 -29 640 -14 551 -31 b 350 89 404 -25 361 -10 b 349 207 347 128 347 168 b 33 547 163 244 61 354 "},"Z":{"ha":846,"x_min":0,"x_max":0,"o":"m 38 156 b 336 638 3 363 194 514 b 463 744 378 674 422 707 b 475 758 465 747 469 753 b 329 767 426 764 378 767 b 157 764 308 767 178 764 b 64 793 124 765 86 771 b 47 1000 17 838 21 943 b 279 1090 88 1085 197 1090 b 433 1082 331 1090 382 1086 b 808 893 567 1074 807 1061 b 731 703 810 825 775 757 b 460 276 629 579 301 364 b 599 265 482 264 571 264 b 690 274 610 265 679 274 b 760 263 714 272 738 269 b 819 99 822 240 838 160 b 607 -26 789 -12 708 -18 b 526 -29 581 -28 553 -31 b 138 26 396 -26 254 -39 b 38 156 89 53 47 103 "},"[":{"ha":699,"x_min":0,"x_max":0,"o":"m 69 433 b 58 846 67 571 58 708 b 122 1101 58 913 63 1064 b 314 1149 179 1138 246 1149 b 521 1129 383 1149 454 1138 b 617 1101 554 1125 590 1121 b 664 913 665 1068 681 967 b 596 828 654 879 629 844 b 525 813 575 815 549 814 b 378 800 493 813 401 819 b 339 651 350 776 340 686 b 343 425 336 576 340 500 b 358 274 346 374 349 324 b 382 210 361 260 369 219 b 401 207 386 208 397 207 b 522 214 442 208 482 214 b 654 147 576 214 635 207 b 667 40 665 113 671 76 b 642 -25 664 18 656 -6 b 425 -99 593 -86 497 -97 b 101 -44 343 -100 150 -106 b 83 -8 93 -33 88 -21 b 72 83 75 22 74 53 b 69 433 71 126 71 389 "},"\\":{"ha":643,"x_min":0,"x_max":0,"o":"m 14 881 b 3 1010 0 921 -8 968 b 181 1129 22 1086 106 1129 b 278 1103 215 1129 250 1121 b 344 1024 306 1082 328 1053 b 401 881 369 978 383 929 b 594 229 483 671 549 450 b 608 32 607 164 621 96 b 456 -82 592 -47 532 -82 b 275 51 351 -82 307 -43 b 204 322 265 85 213 289 b 86 690 169 446 129 569 b 14 881 78 714 21 857 "},"]":{"ha":699,"x_min":0,"x_max":0,"o":"m 33 913 b 82 1101 18 967 33 1068 b 178 1129 108 1121 144 1125 b 385 1149 243 1138 315 1149 b 576 1101 453 1149 519 1138 b 640 846 635 1064 640 913 b 628 433 640 708 631 571 b 626 83 628 389 628 126 b 615 -8 624 53 622 22 b 597 -44 611 -21 606 -33 b 272 -99 547 -106 354 -100 b 32 40 176 -96 47 -78 b 43 147 28 76 32 113 b 175 214 64 207 119 214 b 296 207 215 214 256 208 b 315 210 300 207 313 208 b 340 274 328 219 338 260 b 356 425 350 324 353 374 b 358 651 358 500 361 576 b 321 800 357 686 349 776 b 174 813 297 819 206 813 b 33 913 103 817 57 840 "},"^":{"ha":603,"x_min":0,"x_max":0,"o":"m 125 518 b 94 513 114 515 104 513 b 28 604 49 513 18 549 b 103 793 33 635 69 721 b 115 825 108 807 113 818 b 183 969 135 874 154 925 b 301 1044 213 1010 250 1044 b 411 981 349 1044 383 1017 b 572 607 471 894 557 704 b 572 557 575 590 575 574 b 474 507 564 514 515 497 b 390 565 440 515 411 539 b 299 732 358 607 321 685 b 125 518 264 669 188 539 "},"_":{"ha":724,"x_min":0,"x_max":0,"o":"m -14 -175 b 33 15 -53 -115 -36 -24 b 167 40 71 36 121 40 b 429 44 254 39 343 44 b 653 24 504 44 579 40 b 757 -51 704 13 738 -11 b 763 -128 768 -75 767 -103 b 742 -189 758 -149 753 -169 b 631 -239 722 -218 672 -236 b 179 -239 569 -243 240 -242 b -14 -175 118 -239 24 -233 "},"`":{"ha":390,"x_min":0,"x_max":0,"o":"m 31 929 b 25 964 26 940 24 953 b 106 1067 29 999 74 1053 b 150 1075 117 1072 133 1075 b 196 1063 168 1075 186 1071 b 204 1057 199 1060 201 1058 b 344 850 272 1004 311 926 b 363 775 354 826 363 800 b 282 701 361 726 324 701 b 201 735 254 701 224 713 b 31 929 181 754 44 899 "},"a":{"ha":924,"x_min":0,"x_max":0,"o":"m 54 157 b 29 415 25 239 21 329 b 207 775 39 532 94 715 b 419 814 268 811 347 821 b 572 757 460 810 536 789 b 679 833 594 803 629 828 b 779 815 713 836 749 829 b 818 792 793 810 808 803 b 851 713 839 771 849 740 b 847 603 856 676 853 639 b 813 399 838 535 821 467 b 890 171 803 311 811 246 b 906 143 897 164 903 153 b 813 11 914 89 865 28 b 754 1 793 6 774 1 b 558 132 671 1 586 53 b 293 -19 501 46 397 -15 b 114 50 229 -21 158 4 b 54 157 86 81 67 118 m 351 507 b 333 353 338 457 331 404 b 413 226 338 306 350 226 b 508 338 463 226 496 297 b 525 576 533 413 549 535 b 460 625 506 611 482 625 b 351 507 413 625 367 564 "},"b":{"ha":903,"x_min":0,"x_max":0,"o":"m 64 231 b 53 835 40 431 33 635 b 214 1031 64 935 97 1031 b 389 931 288 1031 365 1008 b 400 767 403 878 403 821 b 390 643 397 725 394 685 b 458 686 414 658 450 681 b 572 732 493 707 532 725 b 744 704 631 740 693 732 b 814 644 771 689 794 668 b 885 425 860 582 883 501 b 813 153 888 332 863 232 b 528 -15 749 51 649 -7 b 390 0 482 -18 435 -12 b 350 17 375 3 363 8 b 244 -22 321 -7 282 -22 b 94 79 181 -22 119 15 b 64 231 75 126 69 179 m 436 454 b 379 268 383 408 364 332 b 449 215 388 231 417 215 b 553 301 504 215 536 253 b 547 451 564 339 572 422 b 494 476 533 468 514 476 b 436 454 474 476 453 468 "},"c":{"ha":729,"x_min":0,"x_max":0,"o":"m 25 294 b 78 632 18 408 35 526 b 381 857 131 764 233 857 b 671 713 494 857 615 804 b 672 563 696 669 700 604 b 572 500 642 517 608 500 b 432 553 526 500 479 526 b 389 563 419 560 403 565 b 354 544 376 561 364 554 b 326 333 313 503 304 390 b 386 292 338 301 360 292 b 536 340 435 292 496 326 b 631 350 567 351 600 358 b 699 264 665 340 690 300 b 647 57 715 194 696 108 b 397 -32 589 -7 481 -32 b 25 294 207 -32 40 96 "},"d":{"ha":871,"x_min":0,"x_max":0,"o":"m 42 185 b 35 482 17 279 14 385 b 326 731 64 625 175 731 b 504 665 393 731 454 708 b 501 731 503 696 501 721 b 525 908 499 790 501 854 b 664 1010 549 969 597 1010 b 824 790 778 1010 815 885 b 775 110 842 564 835 329 b 656 -21 761 54 722 -21 b 551 39 619 -21 583 3 b 319 -36 490 -14 397 -36 b 42 185 178 -36 81 49 m 292 447 b 358 303 275 396 315 329 b 386 289 367 297 376 292 b 475 381 438 276 483 324 b 347 489 468 436 400 489 b 292 447 322 489 301 476 "},"e":{"ha":764,"x_min":0,"x_max":0,"o":"m 44 235 b 60 617 15 358 18 496 b 381 853 110 764 243 853 b 567 793 444 853 508 833 b 651 464 675 718 728 576 b 319 325 579 356 438 325 l 319 324 b 349 288 326 310 336 297 b 438 253 372 265 406 251 b 606 303 481 254 565 289 b 671 308 626 308 650 314 b 731 257 696 301 719 281 b 708 78 760 199 750 125 b 418 -33 639 0 519 -33 b 44 235 250 -33 86 54 m 338 579 b 364 490 324 521 336 490 b 446 565 401 490 439 531 b 401 639 456 614 431 639 b 338 579 375 639 347 619 "},"f":{"ha":647,"x_min":0,"x_max":0,"o":"m 40 174 b 58 625 29 324 40 475 b 88 779 64 678 68 731 b 375 935 138 903 260 935 b 468 929 407 935 439 933 b 631 832 531 922 624 913 b 626 753 632 806 631 779 b 538 663 618 704 590 665 b 375 651 506 660 400 671 b 363 607 365 644 363 618 b 372 560 363 594 361 567 b 456 554 386 551 440 554 b 599 458 526 554 594 551 b 576 382 600 432 594 401 b 489 349 556 358 519 351 b 400 351 460 344 429 347 b 354 358 394 353 361 358 b 351 310 353 351 351 317 b 376 144 353 254 363 199 b 407 25 388 104 403 67 b 396 -51 410 0 407 -28 b 265 -117 369 -100 315 -112 b 132 -86 221 -119 169 -112 b 40 174 58 -32 47 90 "},"g":{"ha":894,"x_min":0,"x_max":0,"o":"m 19 385 b 93 658 17 479 42 578 b 378 825 160 760 256 819 b 515 811 424 828 471 822 b 556 793 529 807 543 801 b 660 833 582 819 624 833 b 810 731 724 833 783 796 b 842 581 829 683 836 631 b 836 103 860 422 881 256 b 714 -122 811 21 771 -58 b 397 -274 647 -199 499 -274 b 299 -250 364 -274 331 -267 b 299 -31 219 -208 213 -79 b 436 24 347 -4 388 -3 b 561 215 549 85 561 215 b 301 81 511 139 408 81 b 19 385 126 81 26 217 m 353 508 b 357 358 340 472 332 389 b 411 335 371 342 390 335 b 469 357 431 335 453 342 b 526 542 521 401 540 478 b 456 596 518 579 488 596 b 353 508 399 596 369 557 "},"h":{"ha":915,"x_min":0,"x_max":0,"o":"m 64 231 b 53 835 40 431 33 635 b 214 1031 64 935 97 1031 b 389 931 288 1031 365 1008 b 400 767 403 878 403 821 b 390 643 397 725 394 685 b 458 686 414 658 450 681 b 572 732 493 707 532 725 b 744 704 631 740 693 732 b 814 644 771 689 794 668 b 882 208 906 521 894 354 b 703 -17 871 103 831 -17 b 550 135 628 -17 557 36 b 554 303 546 190 550 247 b 492 463 563 415 531 463 b 376 251 438 463 369 375 b 329 3 381 169 413 54 b 244 -22 303 -14 274 -22 b 94 79 181 -22 119 15 b 64 231 75 126 69 179 "},"i":{"ha":456,"x_min":0,"x_max":0,"o":"m 128 36 b 60 642 25 126 8 449 b 107 742 69 676 81 715 b 243 790 138 778 197 790 b 382 742 285 790 353 774 b 422 635 410 715 419 672 b 397 465 424 578 408 522 b 371 199 381 378 367 289 b 371 88 372 163 375 125 b 267 -7 363 29 326 -1 b 128 36 218 -12 164 6 m 140 872 b 171 1092 85 932 99 1044 b 269 1121 200 1111 235 1121 b 383 1082 310 1121 350 1107 b 421 1003 410 1061 422 1036 b 240 838 417 911 331 838 b 140 872 206 838 165 844 "},"j":{"ha":678,"x_min":0,"x_max":0,"o":"m 18 -74 b 228 149 -33 68 75 174 b 289 138 247 144 268 140 b 329 144 303 135 318 136 b 364 358 372 181 371 303 b 338 454 360 392 353 425 b 299 486 329 468 315 485 b 190 464 261 488 226 469 b 79 667 76 444 26 590 b 294 743 117 725 232 743 b 614 529 432 743 568 675 b 647 357 632 474 642 415 b 654 204 653 306 656 254 b 406 -201 649 43 581 -161 b 265 -219 361 -212 313 -219 b 18 -74 154 -219 61 -179 m 229 850 b 260 1069 175 910 189 1024 b 360 1099 290 1089 325 1099 b 474 1060 400 1099 440 1086 b 510 981 500 1039 511 1014 b 329 817 507 889 421 815 b 229 850 294 817 254 822 "},"k":{"ha":814,"x_min":0,"x_max":0,"o":"m 63 208 b 68 838 32 417 28 632 b 258 1028 86 947 136 1028 b 397 967 314 1028 368 1007 b 421 886 414 944 418 914 b 422 815 424 863 424 839 b 400 624 421 792 406 671 b 404 626 401 625 403 626 b 657 733 467 675 581 725 b 738 717 685 736 715 733 b 788 551 783 683 811 603 b 733 494 778 528 756 508 b 600 433 692 469 646 453 b 558 415 592 429 575 422 b 733 217 604 364 713 240 b 779 128 754 190 775 161 b 686 4 789 68 746 14 b 613 7 661 1 636 1 b 385 221 536 28 428 161 b 271 -36 378 118 393 -19 b 168 -15 236 -40 199 -33 b 63 208 97 25 72 135 "},"l":{"ha":450,"x_min":0,"x_max":0,"o":"m 69 150 b 40 519 39 271 33 396 b 71 800 44 614 54 707 b 203 1000 88 886 113 983 b 408 942 265 1013 375 993 b 424 836 428 911 426 872 b 383 657 418 775 397 717 b 353 233 350 519 342 375 b 338 1 360 160 408 47 b 249 -22 314 -14 282 -22 b 69 150 144 -22 92 56 "},"m":{"ha":1207,"x_min":0,"x_max":0,"o":"m 96 24 b 36 426 36 110 36 325 b 75 746 38 533 40 644 b 221 872 100 819 133 872 b 319 846 254 872 290 863 b 367 793 339 833 357 815 b 379 724 376 772 381 747 b 513 786 418 767 465 786 b 694 686 578 786 644 749 b 890 800 743 760 815 800 b 1114 658 969 800 1053 754 b 1157 113 1157 590 1210 367 b 989 -8 1149 76 1138 -19 b 858 439 853 1 858 169 b 807 564 858 526 832 564 b 760 483 783 564 761 535 b 760 111 765 375 779 213 b 592 -11 753 75 740 -22 b 461 438 456 0 461 167 b 401 574 461 531 431 574 b 361 438 372 574 344 525 b 369 64 381 314 390 142 b 215 -36 354 4 283 -36 b 96 24 169 -36 124 -18 "},"n":{"ha":810,"x_min":0,"x_max":0,"o":"m 96 22 b 36 424 36 108 36 322 b 75 743 38 532 40 643 b 221 871 100 818 133 871 b 367 792 275 871 343 844 b 379 722 376 771 381 746 b 511 785 418 765 465 785 b 717 654 588 785 665 735 b 760 108 760 586 813 363 b 592 -12 753 72 740 -24 b 461 435 456 -3 461 165 b 401 571 461 528 431 571 b 361 435 372 571 344 522 b 369 61 381 313 390 140 b 217 -39 354 1 285 -39 b 96 22 169 -39 125 -21 "},"o":{"ha":828,"x_min":0,"x_max":0,"o":"m 304 6 b 71 667 39 88 -40 429 b 436 879 135 803 288 879 b 735 726 554 879 669 831 b 660 83 858 531 813 249 b 431 -14 601 17 518 -14 b 304 6 388 -14 344 -7 m 528 624 b 465 654 507 644 486 654 b 338 461 394 654 332 544 b 426 379 338 413 379 379 b 469 392 442 379 457 383 b 528 624 539 442 589 563 "},"p":{"ha":864,"x_min":0,"x_max":0,"o":"m 51 6 b 78 688 26 231 26 467 b 189 819 90 739 125 819 b 288 760 222 819 254 794 b 485 847 339 808 404 836 b 606 89 904 901 971 203 b 518 75 578 81 547 75 b 351 136 457 75 399 96 b 356 71 354 106 356 81 b 338 -107 360 11 358 -53 b 210 -207 313 -175 261 -207 b 51 6 101 -207 60 -83 m 397 515 b 471 358 378 410 424 358 b 554 431 504 358 539 382 b 499 615 597 558 551 615 b 397 515 456 615 408 579 "},"q":{"ha":897,"x_min":0,"x_max":0,"o":"m 21 351 b 94 624 18 444 43 544 b 379 792 160 726 257 783 b 517 776 425 793 472 789 b 557 760 531 774 544 767 b 661 799 582 785 628 799 b 811 697 725 799 786 761 b 843 546 831 649 838 597 b 853 -58 865 346 872 142 b 692 -254 844 -160 808 -254 b 543 -204 640 -254 579 -240 b 518 -154 531 -190 522 -172 b 507 10 504 -101 504 -44 b 515 133 508 51 513 92 b 449 90 492 118 457 96 b 333 44 413 69 374 51 b 163 72 276 36 213 44 b 21 351 67 125 25 247 m 354 474 b 358 325 342 438 333 354 b 413 300 372 308 392 300 b 471 322 432 300 454 308 b 528 508 522 368 542 444 b 458 561 519 546 490 561 b 394 539 435 561 413 554 b 354 474 374 524 363 499 "},"r":{"ha":721,"x_min":0,"x_max":0,"o":"m 93 22 b 36 424 38 107 36 325 b 74 743 38 532 40 643 b 215 871 99 817 128 871 b 369 722 307 871 369 817 b 531 803 408 767 475 803 b 674 679 601 803 647 736 b 703 485 700 619 708 550 b 554 306 696 403 649 306 b 456 417 504 306 458 340 b 389 563 453 515 418 563 b 351 435 360 563 336 518 b 360 61 369 313 379 140 b 210 -39 344 1 276 -39 b 93 22 165 -39 121 -21 "},"s":{"ha":692,"x_min":0,"x_max":0,"o":"m 190 340 b 115 746 0 419 -31 621 b 357 825 178 799 268 825 b 569 771 433 825 508 807 b 668 667 613 746 656 707 b 614 518 683 617 663 551 b 542 501 594 506 567 499 b 439 532 506 504 469 517 b 367 556 407 549 383 556 b 382 467 318 556 331 500 b 631 242 478 407 617 369 b 586 85 636 189 621 131 b 304 -35 524 1 414 -35 b 72 38 236 -35 121 -18 b 143 224 3 111 42 231 b 190 340 357 211 367 267 "},"t":{"ha":767,"x_min":0,"x_max":0,"o":"m 13 582 b 49 699 -7 621 7 678 b 171 721 71 710 132 721 b 179 844 169 763 169 804 b 213 928 185 874 194 903 b 265 975 225 947 244 963 b 365 996 292 989 328 996 b 525 900 436 996 503 974 b 531 786 536 864 535 824 b 519 728 529 767 526 747 b 721 685 588 728 676 740 b 610 500 782 607 701 511 b 506 501 575 494 540 500 b 490 503 504 501 497 503 b 481 350 485 453 482 401 b 490 246 479 315 481 279 b 522 210 494 232 507 211 b 672 243 571 207 626 243 b 736 200 697 243 719 232 b 736 103 751 169 749 133 b 488 -46 703 10 581 -46 b 344 -7 440 -46 393 -33 b 164 535 160 90 151 354 b 63 544 131 538 94 536 b 13 582 42 550 21 564 "},"u":{"ha":942,"x_min":0,"x_max":0,"o":"m 72 157 b 86 750 8 335 18 579 b 224 831 108 804 165 831 b 396 701 297 831 385 779 b 369 458 406 632 383 526 b 374 263 357 394 339 324 b 431 226 385 242 408 226 b 526 338 481 226 514 297 b 632 810 578 493 488 700 b 696 833 650 824 674 831 b 797 815 731 836 767 829 b 836 792 811 810 826 803 b 869 713 857 771 867 740 b 865 603 874 676 871 639 b 831 399 856 535 839 467 b 908 171 821 311 829 246 b 924 143 915 164 921 153 b 831 11 932 89 883 28 b 772 1 811 6 792 1 b 576 132 689 1 604 53 b 311 -19 519 46 415 -15 b 132 50 247 -21 176 4 b 72 157 104 81 85 118 "},"v":{"ha":815,"x_min":0,"x_max":0,"o":"m 19 672 b 193 865 8 789 101 865 b 344 753 256 865 317 831 b 386 543 361 706 375 592 b 435 357 397 496 413 357 b 465 439 444 357 454 379 b 542 771 485 540 513 671 b 683 875 561 836 625 875 b 790 796 731 875 774 850 b 779 592 807 740 789 649 b 736 404 769 528 756 465 b 551 17 690 269 654 118 b 417 -35 515 -19 467 -35 b 124 240 257 -35 169 104 b 19 672 76 381 33 524 "},"w":{"ha":1189,"x_min":0,"x_max":0,"o":"m 36 582 b 108 831 25 674 4 781 b 190 851 136 844 164 851 b 349 693 271 851 336 789 b 382 372 363 590 365 469 b 425 308 390 329 407 308 b 474 365 443 308 461 328 b 517 594 492 419 503 507 b 628 710 526 661 553 710 b 700 660 663 710 690 696 b 714 588 707 636 711 611 b 738 375 724 506 719 454 b 786 310 746 339 767 310 b 819 357 800 310 813 322 b 872 740 846 485 835 617 b 1015 842 893 807 956 842 b 1149 747 1074 842 1129 811 b 1161 646 1158 715 1160 681 b 1129 333 1163 542 1149 436 b 840 -25 1099 171 1040 -25 b 589 200 717 -25 629 74 b 578 238 588 206 583 221 b 569 213 574 226 572 217 b 515 82 556 167 540 121 b 321 -22 474 17 400 -22 b 63 347 114 -22 85 186 b 36 582 51 425 43 504 "},"x":{"ha":772,"x_min":0,"x_max":0,"o":"m 125 -42 b 32 136 58 -17 13 63 b 206 392 56 226 136 326 b 44 607 144 457 82 525 b 25 697 32 635 22 667 b 176 835 33 781 101 835 b 228 826 194 835 211 832 b 388 661 288 806 354 711 b 508 804 424 713 464 761 b 563 831 524 818 543 826 b 743 726 638 847 724 804 b 738 633 751 696 747 663 b 667 506 722 586 696 544 b 569 392 636 467 603 429 b 704 219 619 340 685 254 b 749 90 726 181 751 136 b 615 -49 746 21 681 -36 b 540 -36 590 -54 563 -49 b 463 40 508 -19 485 11 b 388 144 453 54 413 111 b 299 24 357 104 329 63 b 178 -51 268 -14 229 -51 b 125 -42 160 -51 142 -47 "},"y":{"ha":894,"x_min":0,"x_max":0,"o":"m 172 207 b 42 710 28 306 -11 543 b 201 818 64 779 135 818 b 328 726 258 818 313 789 b 351 461 350 640 324 546 b 433 404 364 426 397 404 b 547 564 518 404 536 497 b 593 742 556 624 563 688 b 717 804 619 789 667 804 b 774 797 736 804 756 801 b 835 485 938 753 869 590 b 754 168 803 381 771 275 b 725 -65 743 90 742 11 b 526 -268 701 -165 628 -243 b 374 -283 476 -279 425 -289 b 264 -68 276 -271 197 -160 b 332 -14 281 -44 307 -29 b 481 183 433 46 451 65 b 335 161 435 171 385 161 b 172 207 278 161 221 174 "},"z":{"ha":835,"x_min":0,"x_max":0,"o":"m 18 557 b 54 671 15 597 31 640 b 157 751 81 706 118 731 b 497 843 260 807 381 843 b 774 693 599 843 760 817 b 753 581 779 656 771 614 b 665 468 729 539 697 503 b 519 313 617 417 565 367 b 485 267 507 297 496 282 b 624 299 525 278 604 296 b 676 303 640 301 658 303 b 803 232 733 303 778 285 b 814 140 815 204 817 171 b 640 1 807 46 729 4 b 308 -26 529 -4 418 -17 b 203 -28 274 -29 238 -32 b 121 263 56 -11 18 169 b 464 503 225 357 367 403 b 443 544 500 540 471 551 b 165 419 344 521 264 446 b 107 418 147 414 125 413 b 18 557 61 433 22 508 "},"{":{"ha":690,"x_min":0,"x_max":0,"o":"m 40 442 b 39 483 32 453 31 472 b 113 540 47 494 101 531 b 125 564 119 546 124 554 b 103 760 129 594 106 729 b 133 1004 92 840 99 931 b 481 1183 196 1138 350 1186 b 644 1076 556 1183 617 1149 b 581 860 675 993 658 892 b 442 844 538 842 489 850 b 396 786 404 840 399 822 b 393 572 390 715 403 643 b 300 451 385 510 358 478 b 356 422 319 444 339 436 b 394 356 376 407 390 382 b 399 229 403 314 396 271 b 408 196 399 221 403 201 b 438 190 414 192 425 190 b 528 200 468 190 510 199 b 624 175 560 201 597 194 b 647 149 632 168 642 160 b 640 -61 676 94 678 -12 b 531 -118 615 -94 571 -111 b 393 -126 485 -125 439 -128 b 106 110 239 -122 113 -64 b 119 254 106 158 114 207 b 118 371 124 293 126 333 b 69 426 113 401 94 413 b 40 442 58 431 47 433 "},"|":{"ha":506,"x_min":0,"x_max":0,"o":"m 49 965 b 46 1065 43 999 40 1032 b 206 1167 63 1144 133 1167 b 315 1138 247 1167 283 1164 b 419 928 392 1078 408 1022 b 425 724 426 860 424 792 b 439 376 428 607 436 492 b 449 222 440 325 444 274 b 447 100 451 181 454 140 b 326 -32 438 32 401 -26 b 213 -24 289 -35 249 -35 b 100 100 144 -1 111 26 b 94 222 96 140 96 182 b 82 619 94 272 83 571 b 49 965 79 724 68 863 "},"}":{"ha":690,"x_min":0,"x_max":0,"o":"m 49 -61 b 43 149 13 -12 13 94 b 67 175 49 160 57 168 b 163 200 93 194 129 201 b 253 190 181 199 222 190 b 282 196 265 190 276 192 b 292 229 288 201 290 221 b 294 356 294 271 288 314 b 389 451 306 410 340 433 b 296 572 333 476 304 513 b 294 786 288 643 299 715 b 281 832 293 803 290 819 b 247 844 272 840 260 843 b 108 860 201 850 153 842 b 46 1076 31 892 14 993 b 210 1183 71 1149 136 1183 b 556 1004 339 1186 494 1138 b 588 760 590 931 599 840 b 565 564 583 729 560 594 b 578 540 567 554 571 546 b 651 483 589 531 643 494 b 650 442 658 472 658 453 b 621 426 643 433 631 431 b 571 371 596 414 576 401 b 571 254 563 333 567 293 b 583 110 576 207 585 158 b 297 -126 583 -57 451 -122 b 160 -118 251 -128 204 -125 b 49 -61 119 -111 75 -94 "},"~":{"ha":842,"x_min":0,"x_max":0,"o":"m 28 304 b 54 399 25 338 39 371 b 154 517 79 444 117 482 b 304 574 190 550 253 574 b 374 558 328 574 353 569 b 474 494 408 540 440 517 b 547 463 494 478 519 463 b 589 475 561 463 576 467 b 679 546 621 496 644 528 b 713 554 689 551 701 554 b 796 504 746 554 776 529 b 744 308 839 447 796 360 b 547 211 685 251 631 215 b 399 258 496 211 442 229 b 294 325 381 272 318 324 b 264 308 283 325 272 315 b 194 238 256 300 204 244 b 129 214 176 222 153 214 b 28 304 76 214 32 251 "}," ":{"ha":417,"x_min":0,"x_max":0,"o":""},"¡":{"ha":411,"x_min":0,"x_max":0,"o":"m 24 -189 b 33 -33 19 -136 25 -85 b 64 150 38 -11 60 128 b 107 389 71 197 79 350 b 207 443 133 426 171 443 b 339 333 268 443 329 400 b 365 81 353 250 360 165 b 365 -107 368 18 371 -44 b 343 -197 363 -139 356 -169 b 160 -303 304 -282 250 -303 b 24 -189 76 -303 35 -276 m 75 544 b 64 639 61 572 60 607 b 219 747 75 713 150 747 b 292 732 244 747 271 743 b 340 568 350 701 369 628 b 186 482 314 514 247 482 b 75 544 139 482 94 501 "},"¢":{"ha":760,"x_min":0,"x_max":0,"o":"m 40 294 b 93 632 33 408 50 526 b 315 847 132 726 211 824 b 311 901 313 871 311 892 b 399 968 315 953 350 968 b 479 925 432 968 463 957 b 493 844 490 900 493 871 b 686 713 574 824 647 778 b 688 563 711 669 715 604 b 588 500 657 517 624 500 b 447 553 542 500 494 526 b 404 563 435 560 418 565 b 369 544 392 561 379 554 b 342 333 328 503 319 390 b 401 292 353 301 375 292 b 551 340 450 292 511 326 b 646 350 582 351 615 358 b 714 264 681 340 706 300 b 663 57 731 194 711 108 b 553 -10 633 25 593 4 b 507 -22 538 -14 522 -19 b 504 -76 507 -42 506 -67 b 475 -131 500 -96 490 -118 b 401 -150 454 -146 426 -150 b 339 -129 381 -150 354 -144 b 322 -51 319 -111 321 -78 b 324 -24 324 -47 324 -35 b 279 -11 308 -21 293 -17 b 40 294 147 32 51 154 "},"£":{"ha":869,"x_min":0,"x_max":0,"o":"m 97 0 b 53 172 33 26 25 108 b 118 239 65 201 93 222 b 189 303 128 246 189 290 b 179 371 189 325 183 349 b 175 390 178 378 176 383 b 118 390 154 389 128 390 b 118 521 35 399 33 514 b 142 522 122 521 131 522 b 133 553 139 532 136 543 b 117 771 118 624 110 699 b 172 911 122 821 138 875 b 438 1014 242 983 339 1014 b 600 978 494 1014 551 1003 b 640 951 614 969 628 961 b 665 933 649 946 657 940 b 764 690 738 872 774 785 b 685 568 758 638 739 589 b 608 561 661 558 633 558 b 514 600 585 565 528 581 b 501 665 501 618 504 643 b 443 772 499 699 488 772 b 407 756 429 772 417 767 b 390 718 397 746 393 732 b 397 586 382 675 389 631 b 413 517 401 563 407 539 b 472 522 436 519 464 521 b 554 518 500 524 528 522 b 611 490 575 514 596 504 b 611 397 636 464 636 424 b 561 372 599 383 579 376 b 486 371 536 368 511 368 b 436 376 476 371 454 372 b 426 240 439 331 436 285 b 554 239 469 239 513 240 b 713 264 578 238 689 261 b 804 242 743 268 779 263 b 843 158 828 222 840 189 b 826 83 844 133 838 106 b 664 -21 792 19 736 -15 b 443 -15 632 -24 475 -19 b 304 -3 397 -11 350 -4 b 168 -8 258 -1 213 -6 b 97 0 144 -10 119 -10 "},"¤":{"ha":764,"x_min":0,"x_max":0,"o":"m 51 389 b 72 597 43 458 47 532 b 100 654 79 617 89 636 b 60 772 78 690 56 732 b 122 838 63 808 86 835 b 233 789 151 839 200 815 b 360 813 272 806 315 813 b 544 765 418 813 496 799 b 600 800 563 779 579 793 b 638 807 611 804 624 807 b 668 801 647 807 658 806 b 714 729 696 792 715 761 b 664 622 713 692 688 651 b 675 600 668 615 671 607 b 674 308 711 510 706 400 b 660 275 669 297 664 286 b 671 256 663 269 667 261 b 708 88 694 213 738 126 b 643 58 693 67 669 58 b 515 144 588 58 546 103 b 347 119 463 124 404 117 b 251 138 315 121 282 126 b 157 57 231 108 196 63 b 69 139 110 50 69 90 b 101 254 69 160 86 215 b 51 389 75 294 57 342 m 324 528 b 386 439 310 475 347 439 b 444 478 408 439 431 450 b 399 583 465 521 444 574 b 354 564 388 585 363 571 b 324 528 342 554 328 543 "},"¥":{"ha":999,"x_min":0,"x_max":0,"o":"m 49 547 b 44 746 39 613 38 679 b 46 767 44 754 46 763 b 139 1028 51 835 64 992 b 265 1053 176 1044 222 1050 b 425 942 357 1057 421 1021 b 401 722 431 868 414 794 b 513 511 378 586 446 511 b 629 715 575 511 639 576 b 615 832 626 754 622 793 b 599 931 608 864 600 897 b 606 997 597 953 597 976 b 749 1057 619 1038 686 1057 b 868 1018 801 1057 851 1043 b 851 336 969 857 1013 529 b 779 274 832 313 807 292 b 835 264 803 274 824 271 b 842 193 861 249 865 211 b 781 175 825 179 801 176 b 686 174 767 174 717 172 l 686 146 b 753 149 713 147 743 149 b 810 83 790 147 832 115 b 778 61 803 72 790 65 b 713 53 757 53 733 53 b 678 54 707 53 690 54 b 674 39 676 50 675 44 b 510 -29 656 -14 567 -31 b 375 40 461 -26 386 -18 b 314 43 354 40 333 40 b 263 68 294 46 272 51 b 279 121 250 86 258 111 b 338 131 297 131 318 131 b 364 129 342 131 351 129 b 363 144 364 133 364 139 b 357 143 361 143 358 143 b 269 143 328 142 299 142 b 225 151 254 143 239 144 b 204 178 215 156 207 167 b 240 247 196 208 211 239 b 49 547 124 306 67 421 "},"¦":{"ha":425,"x_min":0,"x_max":0,"o":"m 68 907 b 82 983 67 932 69 961 b 219 1046 106 1026 165 1046 b 326 1000 260 1046 301 1035 b 365 911 347 975 357 943 b 375 794 374 874 374 833 b 338 582 376 722 369 646 b 225 518 314 535 278 518 b 131 574 181 518 150 532 b 90 761 106 632 106 699 b 68 907 79 808 69 857 m 58 -39 b 43 38 44 -17 42 13 b 67 183 46 88 56 136 b 107 371 81 246 82 313 b 200 426 124 414 158 426 b 313 363 256 426 289 411 b 350 150 344 299 353 222 b 194 -101 350 42 336 -101 b 58 -39 140 -101 82 -82 "},"§":{"ha":935,"x_min":0,"x_max":0,"o":"m 81 -64 b 129 124 -12 -1 36 124 b 171 115 142 124 157 121 b 307 86 228 94 272 86 b 340 196 403 86 415 150 b 163 285 285 229 218 251 b 82 561 49 354 3 464 b 240 657 119 606 176 638 b 200 906 157 726 131 819 b 632 1026 286 1010 478 1042 b 878 799 789 1011 968 933 b 757 740 850 757 806 740 b 631 769 715 740 669 753 b 574 789 613 778 594 786 b 532 788 560 792 544 793 b 518 765 522 783 518 774 b 543 726 519 751 529 736 b 669 661 578 699 625 681 b 874 454 763 621 867 568 b 815 311 878 404 857 350 b 685 242 779 279 735 257 b 756 110 725 211 753 160 b 697 -33 760 60 740 6 b 383 -128 621 -101 503 -128 b 81 -64 297 -128 156 -112 m 467 513 b 429 517 454 515 442 517 b 376 432 356 517 324 461 b 443 411 397 417 421 411 b 467 513 522 411 583 488 "},"¨":{"ha":553,"x_min":0,"x_max":0,"o":"m 25 842 b 151 976 21 925 89 976 b 246 881 199 976 242 947 b 179 764 249 839 219 779 b 139 757 167 760 153 757 b 25 842 90 757 28 785 m 306 839 b 432 972 301 921 369 972 b 526 878 479 972 522 944 b 460 761 529 836 500 776 b 421 754 447 757 433 754 b 306 839 371 754 308 782 "},"©":{"ha":1089,"x_min":0,"x_max":0,"o":"m 40 454 b 96 740 39 551 57 651 b 250 925 133 826 174 874 b 546 1014 339 985 443 1014 b 919 867 679 1014 825 964 b 1049 533 994 783 1049 647 b 1000 239 1047 433 1035 332 b 722 -10 956 115 853 15 b 504 -21 651 -24 576 -25 b 231 65 408 -14 308 10 b 40 454 103 156 40 300 m 300 713 b 258 383 246 617 236 492 b 313 244 269 335 285 286 b 565 139 357 172 488 139 b 882 397 746 139 856 206 b 856 646 894 481 885 568 b 522 831 804 782 683 849 b 300 713 435 821 343 788 m 319 410 b 353 629 314 483 325 561 b 551 775 390 715 453 775 b 739 682 626 775 704 742 b 740 585 757 654 760 611 b 675 543 721 554 699 543 b 585 578 646 543 614 561 b 556 585 576 582 565 586 b 533 572 547 583 540 579 b 515 436 507 544 501 472 b 556 408 522 415 538 408 b 653 440 586 408 626 431 b 714 446 672 447 693 451 b 758 390 736 439 753 414 b 725 254 769 344 756 289 b 560 197 683 213 617 197 b 319 410 436 197 329 281 "},"«":{"ha":760,"x_min":0,"x_max":0,"o":"m 357 321 b 349 414 340 351 338 382 b 415 514 363 451 386 486 b 575 644 467 560 517 607 b 654 682 600 661 626 678 b 718 600 707 690 747 651 b 575 424 682 533 621 485 b 553 374 564 408 551 392 b 590 319 553 360 581 329 b 700 207 628 283 669 250 b 719 135 715 186 726 158 b 661 96 713 107 688 96 b 357 321 561 96 403 242 m 43 331 b 35 424 26 360 24 392 b 101 522 49 461 72 496 b 340 692 149 567 272 682 b 404 610 393 700 433 661 b 261 433 367 543 306 494 b 238 383 250 418 236 401 b 276 329 239 369 265 339 b 386 217 314 293 356 258 b 406 144 401 196 413 168 b 346 104 397 115 374 104 b 43 331 249 104 88 253 "},"¬":{"ha":628,"x_min":0,"x_max":0,"o":"m 42 318 b 75 483 15 371 26 450 b 168 506 101 501 136 506 b 507 492 282 503 397 522 b 581 426 543 482 567 460 b 588 250 601 371 596 310 b 478 128 576 181 558 128 b 392 222 419 128 392 163 l 392 261 b 176 263 310 261 204 263 b 42 318 126 265 69 269 "},"­":{"ha":0,"x_min":0,"x_max":0,"o":""},"®":{"ha":853,"x_min":0,"x_max":0,"o":"m 185 285 b 39 583 86 354 39 465 b 142 897 39 689 67 818 b 426 1014 207 974 331 1014 b 622 968 494 1014 563 999 b 814 644 740 910 814 775 b 564 226 814 474 757 267 b 396 218 508 215 451 215 b 185 285 322 224 244 242 m 239 782 b 207 529 197 708 190 613 b 282 388 219 476 238 422 b 443 342 328 357 388 340 b 686 540 579 342 668 394 b 665 732 696 604 689 671 b 410 872 626 836 533 886 b 239 782 342 865 272 840 m 260 456 b 283 778 247 508 229 713 b 310 803 290 788 300 796 b 428 833 343 824 386 833 b 579 774 488 833 546 814 b 607 672 603 746 610 707 b 507 561 600 617 564 579 b 588 456 543 536 582 500 b 550 400 589 433 572 407 b 508 404 536 397 521 399 b 492 417 501 407 496 413 b 403 525 476 429 415 508 b 388 544 400 528 393 538 b 393 511 389 533 390 522 b 401 440 397 489 404 464 b 393 415 400 432 397 424 b 321 386 382 399 351 383 b 260 456 282 390 268 425 m 382 650 b 422 651 394 650 408 649 b 467 671 438 654 454 660 b 442 738 507 707 476 738 b 382 650 392 738 385 689 "},"¯":{"ha":572,"x_min":0,"x_max":0,"o":"m 25 854 b 154 954 19 922 99 946 b 449 947 199 963 404 953 b 526 919 476 944 507 939 b 521 792 560 886 551 828 b 271 757 482 744 332 756 b 103 760 215 758 158 751 b 25 854 49 768 31 801 "},"°":{"ha":425,"x_min":0,"x_max":0,"o":"m 69 731 b 100 990 7 803 22 931 b 221 1029 135 1015 178 1029 b 388 907 303 1029 368 988 b 381 778 397 865 397 817 b 222 665 350 711 297 665 b 69 731 164 665 108 686 m 217 890 b 192 814 171 890 164 836 b 215 808 197 811 207 808 b 240 814 225 808 235 811 b 217 890 278 836 260 890 "},"±":{"ha":728,"x_min":0,"x_max":0,"o":"m 49 475 b 88 640 15 526 29 606 b 200 661 119 658 161 663 l 250 661 b 369 875 250 747 256 875 b 494 703 472 875 494 786 b 493 664 493 690 493 676 b 607 649 532 661 569 657 b 694 582 651 638 679 617 b 700 517 704 561 704 538 b 589 419 690 453 654 425 b 492 418 574 419 536 418 b 407 208 488 347 481 242 b 340 206 386 200 363 200 b 246 317 276 215 249 251 b 246 418 244 333 244 372 b 210 419 229 418 217 419 b 49 475 157 419 79 424 m 72 -61 b 104 103 44 -10 57 69 b 199 125 131 122 167 126 b 383 129 260 124 322 129 b 538 111 435 129 486 126 b 610 46 574 101 597 81 b 614 -21 618 25 617 1 b 522 -117 606 -78 585 -111 b 207 -118 479 -119 249 -119 b 72 -61 158 -115 96 -111 "},"²":{"ha":546,"x_min":0,"x_max":0,"o":"m 79 853 b 85 1082 21 914 29 1019 b 288 1156 126 1131 226 1156 b 449 1088 350 1156 411 1136 b 488 943 481 1047 492 992 b 364 742 479 865 417 794 l 325 703 b 356 706 338 704 351 704 b 432 714 365 706 422 713 b 476 710 446 715 463 715 b 500 689 486 706 494 697 b 465 565 522 649 507 590 b 189 536 417 536 246 531 b 106 550 160 538 132 540 b 69 572 92 554 78 561 b 69 694 50 599 53 665 b 115 744 81 714 93 735 b 324 975 203 786 326 860 b 275 1024 324 1007 299 1024 b 233 965 250 1024 225 1004 b 243 893 238 942 249 917 b 186 836 238 868 214 844 b 114 832 164 829 138 826 b 79 853 100 836 88 843 "},"³":{"ha":522,"x_min":0,"x_max":0,"o":"m 46 599 b 42 660 36 618 35 640 b 88 708 49 681 67 697 b 129 713 100 714 115 717 b 224 671 163 704 190 682 b 265 664 238 667 251 664 b 329 697 293 664 319 674 b 318 761 338 715 335 749 b 296 768 313 765 304 767 b 192 758 261 771 226 761 b 157 765 179 757 167 758 b 131 854 133 781 125 829 b 147 882 132 864 138 875 b 175 893 154 888 165 890 b 231 897 193 896 213 896 b 276 910 247 899 264 901 b 261 983 308 929 307 986 b 208 961 242 983 224 972 b 136 918 186 944 164 926 b 42 976 93 906 53 936 b 46 1025 38 992 39 1010 b 271 1140 83 1099 181 1140 b 353 1128 300 1140 328 1136 b 390 833 483 1085 536 888 b 465 760 428 808 450 790 b 228 515 533 618 378 515 b 46 599 172 515 69 539 "},"´":{"ha":390,"x_min":0,"x_max":0,"o":"m 189 735 b 108 701 167 713 136 701 b 28 775 67 701 29 726 b 46 850 28 800 36 826 b 186 1057 79 926 118 1004 b 194 1063 189 1058 192 1060 b 240 1075 204 1071 222 1075 b 285 1067 257 1075 274 1072 b 365 964 317 1053 361 999 b 360 929 367 953 364 940 b 189 735 346 899 210 754 "},"¶":{"ha":1047,"x_min":0,"x_max":0,"o":"m 292 482 b 115 914 -12 440 -37 765 b 608 1018 183 979 401 1018 b 869 993 703 1018 794 1010 b 989 783 982 968 986 865 b 985 606 992 725 988 665 b 981 171 981 461 981 315 b 864 -43 981 86 979 -37 b 765 -31 831 -44 796 -42 b 699 13 740 -21 715 -8 b 674 82 682 31 675 57 b 675 189 672 118 674 153 b 683 533 676 231 682 490 b 681 696 685 588 683 642 b 679 726 679 706 679 715 l 633 726 b 600 724 629 726 615 725 b 596 600 599 683 596 642 b 590 300 592 500 593 400 b 590 165 589 254 590 210 b 585 58 592 129 592 93 b 553 -11 579 33 571 8 b 474 -49 535 -33 503 -49 b 375 -36 440 -50 406 -49 b 283 76 319 -18 286 17 b 285 182 282 111 283 147 b 292 482 286 217 290 393 "},"·":{"ha":308,"x_min":0,"x_max":0,"o":"m 46 447 b 51 594 15 483 24 556 b 160 657 75 632 115 657 b 261 606 199 657 239 639 b 279 511 281 579 282 543 b 154 411 274 442 218 411 b 46 447 119 411 71 421 "},"¸":{"ha":189,"x_min":0,"x_max":0,"o":"m 6 -346 b -18 -235 -19 -325 -28 -265 b 6 -203 -14 -222 -6 -210 b 46 -196 17 -196 32 -194 b 143 -203 78 -200 111 -204 b 171 -192 154 -201 169 -203 b 124 -151 171 -171 143 -156 b 21 -115 96 -144 29 -142 b 18 -65 15 -99 21 -82 b 19 13 14 -40 15 -14 b 40 65 24 31 28 50 b 132 89 61 89 101 97 b 168 54 149 85 165 71 b 156 -49 174 21 160 -14 b 226 -61 179 -53 204 -54 b 335 -185 281 -78 326 -129 b 317 -285 340 -218 332 -254 b 281 -332 308 -303 296 -319 b 93 -376 229 -371 157 -385 b 6 -346 63 -374 28 -367 "},"¹":{"ha":440,"x_min":0,"x_max":0,"o":"m 69 872 b 25 958 32 885 14 925 b 57 1001 31 974 43 989 b 124 1051 78 1019 101 1035 b 215 1117 156 1072 185 1094 b 292 1151 236 1133 264 1146 b 340 1144 308 1153 326 1151 b 389 1097 361 1133 381 1117 b 394 1015 400 1072 397 1043 b 379 904 393 1001 381 918 b 386 728 374 846 378 786 b 374 592 392 683 396 633 b 343 563 367 581 357 569 b 274 546 325 553 299 546 b 207 565 249 546 224 553 b 164 726 171 597 165 683 b 171 890 163 781 167 836 b 167 889 171 892 168 889 b 69 872 139 872 100 863 "},"»":{"ha":761,"x_min":0,"x_max":0,"o":"m 356 610 b 419 692 326 661 367 700 b 500 654 449 688 475 669 b 660 522 557 617 608 569 b 725 424 689 496 711 461 b 717 331 738 392 735 360 b 415 104 669 249 510 104 b 354 144 388 104 363 115 b 374 217 347 168 360 196 b 483 329 404 258 446 293 b 522 383 494 339 521 369 b 499 433 524 401 510 418 b 356 610 454 494 393 543 m 42 600 b 106 682 13 651 53 690 b 185 644 135 678 161 661 b 344 514 243 607 294 560 b 411 414 374 486 397 451 b 403 321 422 382 419 351 b 100 96 354 238 197 96 b 40 135 72 96 49 107 b 60 207 33 158 44 186 b 169 319 90 250 132 283 b 208 374 181 329 207 360 b 185 424 210 392 196 408 b 42 600 140 485 79 533 "},"¼":{"ha":1263,"x_min":0,"x_max":0,"o":"m 208 100 b 214 215 199 138 203 178 b 374 571 249 342 318 453 b 514 840 417 663 465 751 b 667 1067 549 906 608 1018 b 743 1086 686 1081 714 1086 b 940 978 811 1086 918 1051 b 944 883 951 949 953 914 b 888 761 933 840 911 800 b 728 496 835 674 776 588 b 558 131 704 451 581 178 b 469 11 538 86 510 40 b 382 -19 446 -8 413 -19 b 208 100 310 -19 229 28 m 679 231 b 689 307 674 256 679 282 b 944 611 735 428 836 532 b 1021 642 967 628 993 638 b 1068 642 1036 643 1053 644 b 1143 506 1140 628 1143 565 b 1143 300 1142 444 1133 386 b 1222 296 1165 301 1210 299 b 1240 283 1229 293 1236 289 b 1233 189 1253 265 1247 207 b 1200 169 1225 178 1214 172 b 1156 172 1185 167 1171 171 l 1150 172 b 1161 82 1151 142 1158 113 b 1156 46 1161 69 1161 57 b 1035 1 1140 10 1078 -4 b 956 76 990 7 960 29 b 958 147 954 100 957 124 b 961 183 958 153 960 171 b 765 174 897 172 831 168 b 711 188 747 175 728 179 b 679 231 696 197 683 214 m 28 835 b -17 921 -10 846 -28 888 b 15 963 -11 936 1 951 b 82 1013 36 981 60 997 b 174 1079 114 1035 143 1057 b 250 1113 194 1096 222 1108 b 299 1106 267 1115 285 1113 b 347 1060 319 1096 339 1079 b 353 978 358 1035 356 1006 b 338 867 351 964 339 881 b 344 690 332 807 336 749 b 332 554 350 644 354 596 b 233 508 313 519 271 508 b 165 528 207 508 182 514 b 122 689 129 560 124 644 b 129 853 121 743 125 799 b 125 850 129 854 126 851 b 28 835 97 835 58 825 m 864 319 b 865 300 863 314 863 303 b 894 296 869 296 889 296 b 969 301 907 296 950 301 b 963 429 968 317 963 413 b 958 449 963 433 961 446 b 881 367 939 444 890 383 b 864 319 871 351 865 335 "},"½":{"ha":1219,"x_min":0,"x_max":0,"o":"m 208 100 b 214 215 199 138 203 178 b 374 571 249 342 318 453 b 514 840 417 663 465 751 b 667 1067 549 906 608 1018 b 743 1086 686 1081 714 1086 b 940 978 811 1086 918 1051 b 944 883 951 949 953 914 b 888 761 933 840 911 800 b 728 496 835 674 776 588 b 558 131 704 451 581 178 b 469 11 538 86 510 40 b 382 -19 446 -8 413 -19 b 208 100 310 -19 229 28 m 761 296 b 767 525 703 357 711 463 b 968 599 810 575 906 599 b 1131 531 1032 599 1093 579 b 1169 386 1163 490 1174 436 b 1046 185 1161 308 1097 239 b 1007 146 1040 179 1024 164 b 1038 149 1019 147 1033 149 b 1114 157 1047 150 1104 157 b 1158 153 1128 158 1144 158 b 1182 132 1168 149 1178 142 b 1147 8 1204 92 1189 33 b 871 -21 1099 -19 928 -25 b 751 15 839 -19 772 -12 b 751 138 732 43 735 108 b 797 188 763 157 775 178 b 1006 418 885 229 1008 303 b 957 468 1006 451 981 468 b 915 408 932 468 907 449 b 925 336 919 385 931 361 b 868 281 921 311 896 289 b 796 276 846 272 819 271 b 761 296 782 279 769 286 m 28 835 b -17 921 -10 846 -28 888 b 15 963 -11 936 1 951 b 82 1013 36 981 60 997 b 174 1079 114 1035 143 1057 b 250 1113 194 1096 222 1108 b 299 1106 267 1115 285 1113 b 347 1060 319 1096 339 1079 b 353 978 358 1035 356 1006 b 338 867 351 964 339 881 b 344 690 332 807 336 749 b 332 554 350 644 354 596 b 233 508 313 519 271 508 b 165 528 207 508 182 514 b 122 689 129 560 124 644 b 129 853 121 743 125 799 b 125 850 129 854 126 851 b 28 835 97 835 58 825 "},"¾":{"ha":1399,"x_min":0,"x_max":0,"o":"m 344 100 b 350 215 335 138 340 178 b 510 571 386 342 454 453 b 650 840 553 663 601 751 b 803 1067 685 906 744 1018 b 879 1086 822 1081 850 1086 b 1078 978 950 1086 1051 1051 b 1081 883 1088 949 1089 914 b 1024 761 1069 840 1047 800 b 864 496 971 674 913 588 b 694 131 840 451 717 178 b 518 -19 661 58 607 -19 b 344 100 447 -19 365 29 m 33 558 b 29 621 24 578 22 600 b 75 668 36 640 54 658 b 117 672 88 674 103 676 b 211 631 150 664 178 642 b 253 624 225 626 239 624 b 317 657 281 624 307 633 b 306 721 325 676 322 708 b 283 728 300 725 292 728 b 179 718 249 731 214 721 b 144 725 167 717 154 718 b 118 814 121 740 113 789 b 135 842 119 824 125 835 b 163 853 142 847 153 851 b 218 857 181 857 200 856 b 264 869 235 858 251 861 b 249 944 296 890 294 946 b 196 921 229 943 211 932 b 124 878 174 906 151 886 b 29 936 81 865 40 896 b 33 985 25 953 26 971 b 258 1100 71 1058 167 1100 b 340 1088 286 1100 315 1096 b 378 793 471 1044 524 847 b 453 719 415 768 438 750 b 215 475 521 578 365 475 b 33 558 160 475 57 499 m 815 231 b 825 307 810 256 815 282 b 1081 611 872 428 972 532 b 1157 642 1103 628 1129 638 b 1204 642 1172 643 1189 644 b 1279 506 1276 628 1279 565 b 1279 300 1278 444 1269 386 b 1358 296 1301 301 1346 299 b 1376 283 1365 293 1372 289 b 1369 189 1389 265 1383 207 b 1336 169 1361 178 1350 172 b 1292 172 1322 167 1307 171 l 1286 172 b 1297 82 1288 142 1294 113 b 1293 46 1297 69 1297 57 b 1171 1 1276 10 1214 -4 b 1092 76 1126 7 1096 29 b 1094 147 1090 100 1093 124 b 1097 183 1094 153 1096 171 b 903 174 1033 172 967 168 b 847 188 883 175 864 179 b 815 231 832 197 819 214 m 1000 319 b 1001 300 999 314 999 303 b 1031 296 1007 296 1025 296 b 1106 301 1043 296 1086 301 b 1099 429 1104 317 1099 413 b 1094 449 1099 433 1097 446 b 1017 367 1075 444 1026 383 b 1000 319 1007 351 1001 335 "},"¿":{"ha":682,"x_min":0,"x_max":0,"o":"m 19 -167 b 107 217 -47 -49 -6 129 b 256 286 153 253 219 244 b 268 381 269 301 267 361 b 389 461 274 444 332 461 b 503 400 435 461 485 447 b 518 329 514 379 517 353 b 508 215 519 290 517 253 b 490 171 506 199 500 183 b 461 144 483 160 472 151 b 368 96 431 126 397 114 b 314 -101 296 53 247 -51 b 367 -118 328 -112 347 -118 b 446 -67 401 -118 438 -100 b 453 26 453 -36 449 -4 b 582 103 461 79 528 106 b 625 96 596 101 611 100 b 683 -147 724 63 707 -67 b 369 -335 646 -275 511 -335 b 19 -167 229 -335 82 -276 m 268 539 b 278 701 224 585 231 658 b 367 736 301 722 335 732 b 500 707 411 742 465 736 b 361 500 594 626 475 500 b 268 539 328 500 294 511 "},"À":{"ha":875,"x_min":0,"x_max":0,"o":"m 119 -4 b 47 307 -28 44 8 196 b 167 711 101 506 124 558 b 231 906 185 776 203 843 b 454 1060 268 999 351 1060 b 726 615 650 1060 688 771 b 863 129 769 453 832 294 b 858 49 868 97 868 79 b 738 -18 839 3 785 -18 b 700 -12 725 -18 713 -15 b 597 175 636 6 608 119 b 375 175 542 179 433 181 b 200 -18 349 89 307 -18 b 119 -4 176 -18 150 -14 m 328 1288 b 386 1361 331 1313 363 1350 b 417 1367 394 1364 406 1367 b 450 1357 429 1367 443 1364 b 456 1353 451 1356 454 1354 b 568 1153 500 1319 568 1214 b 511 1101 567 1118 540 1101 b 453 1125 492 1101 469 1108 b 360 1226 442 1136 372 1214 b 332 1263 349 1236 338 1249 b 328 1288 329 1271 328 1279 m 499 619 b 438 386 483 558 454 449 l 447 386 b 557 389 465 389 517 390 b 499 619 540 467 521 543 "},"Á":{"ha":875,"x_min":0,"x_max":0,"o":"m 119 -4 b 47 307 -28 44 8 196 b 167 711 101 506 124 558 b 231 906 185 776 203 843 b 454 1060 268 999 351 1060 b 726 615 650 1060 688 771 b 863 129 769 453 832 294 b 858 49 868 97 868 79 b 738 -18 839 3 785 -18 b 700 -12 725 -18 713 -15 b 597 175 636 6 608 119 b 375 175 542 179 433 181 b 200 -18 349 89 307 -18 b 119 -4 176 -18 150 -14 m 443 1125 b 385 1101 426 1108 406 1101 b 328 1153 356 1101 329 1118 b 440 1353 328 1214 396 1319 b 447 1357 443 1354 444 1356 b 481 1367 454 1364 467 1367 b 511 1361 492 1367 503 1364 b 568 1288 533 1350 565 1313 b 564 1263 568 1279 567 1271 b 536 1226 558 1249 547 1236 b 443 1125 525 1214 456 1136 m 447 386 b 557 389 465 389 517 390 b 499 619 540 467 521 543 b 438 386 483 558 454 449 "},"Â":{"ha":875,"x_min":0,"x_max":0,"o":"m 119 -4 b 47 307 -28 44 8 196 b 167 711 101 506 124 558 b 231 906 185 776 203 843 b 454 1060 268 999 351 1060 b 726 615 650 1060 688 771 b 863 129 769 453 832 294 b 858 49 868 97 868 79 b 738 -18 839 3 785 -18 b 700 -12 725 -18 713 -15 b 597 175 636 6 608 119 b 375 175 542 179 433 181 b 200 -18 349 89 307 -18 b 119 -4 176 -18 150 -14 m 290 1097 b 260 1154 264 1101 251 1129 b 433 1351 274 1188 388 1339 b 471 1350 446 1356 460 1354 b 593 1235 513 1335 568 1269 b 639 1132 610 1213 647 1158 b 572 1107 631 1106 599 1097 b 517 1135 553 1114 533 1124 b 471 1171 511 1139 478 1167 b 450 1179 465 1175 458 1181 b 349 1114 431 1175 365 1125 b 290 1097 332 1103 310 1094 m 499 619 b 438 386 483 558 454 449 l 447 386 b 557 389 465 389 517 390 b 499 619 540 467 521 543 "},"Ã":{"ha":875,"x_min":0,"x_max":0,"o":"m 119 -4 b 47 307 -28 44 8 196 b 167 711 101 506 124 558 b 231 906 185 776 203 843 b 454 1060 268 999 351 1060 b 726 615 650 1060 688 771 b 863 129 769 453 832 294 b 858 49 868 97 868 79 b 738 -18 839 3 785 -18 b 700 -12 725 -18 713 -15 b 597 175 636 6 608 119 b 375 175 542 179 433 181 b 200 -18 349 89 307 -18 b 119 -4 176 -18 150 -14 m 247 1149 b 251 1199 240 1164 246 1183 b 383 1322 271 1249 322 1322 b 438 1304 401 1322 421 1315 b 492 1265 456 1292 474 1278 b 539 1247 507 1257 522 1247 b 564 1254 547 1246 557 1250 b 639 1299 576 1260 626 1296 b 661 1292 649 1301 656 1299 b 628 1165 688 1258 656 1199 b 592 1129 617 1153 606 1139 b 519 1113 571 1115 543 1110 b 468 1131 501 1115 483 1122 b 396 1178 442 1143 419 1163 b 381 1183 390 1181 386 1183 b 301 1138 364 1183 317 1147 b 278 1131 294 1132 286 1131 b 247 1149 265 1131 253 1136 m 447 386 b 557 389 465 389 517 390 b 499 619 540 467 521 543 b 438 386 483 558 454 449 "},"Ä":{"ha":875,"x_min":0,"x_max":0,"o":"m 119 -4 b 47 307 -28 44 8 196 b 167 711 101 506 124 558 b 231 906 185 776 203 843 b 454 1060 268 999 351 1060 b 726 615 650 1060 688 771 b 863 129 769 453 832 294 b 858 49 868 97 868 79 b 738 -18 839 3 785 -18 b 700 -12 725 -18 713 -15 b 597 175 636 6 608 119 b 375 175 542 179 433 181 b 200 -18 349 89 307 -18 b 119 -4 176 -18 150 -14 m 238 1190 b 339 1299 233 1257 289 1299 b 415 1222 376 1299 411 1275 b 361 1129 417 1189 393 1140 b 328 1124 351 1125 340 1124 b 279 1135 311 1124 294 1128 b 238 1190 257 1143 239 1168 m 463 1189 b 565 1296 460 1254 515 1296 b 640 1219 603 1296 636 1274 b 588 1126 643 1186 619 1138 b 556 1121 578 1122 567 1121 b 463 1189 515 1121 465 1143 m 499 619 b 438 386 483 558 454 449 l 447 386 b 557 389 465 389 517 390 b 499 619 540 467 521 543 "},"Å":{"ha":875,"x_min":0,"x_max":0,"o":"m 119 -4 b 47 307 -28 44 8 196 b 167 711 101 506 124 558 b 231 906 185 776 203 843 b 454 1060 268 999 351 1060 b 726 615 650 1060 688 771 b 863 129 769 453 832 294 b 858 49 868 97 868 79 b 738 -18 839 3 785 -18 b 700 -12 725 -18 713 -15 b 597 175 636 6 608 119 b 375 175 542 179 433 181 b 200 -18 349 89 307 -18 b 119 -4 176 -18 150 -14 m 361 1143 b 383 1329 315 1196 326 1288 b 469 1358 408 1349 439 1358 b 590 1271 528 1358 576 1328 b 585 1178 597 1240 597 1206 b 469 1096 563 1128 524 1096 b 361 1143 429 1096 388 1111 m 499 619 b 438 386 483 558 454 449 l 447 386 b 557 389 465 389 517 390 b 499 619 540 467 521 543 m 467 1258 b 449 1204 433 1258 428 1218 b 483 1203 457 1197 475 1199 b 467 1258 511 1219 499 1258 "},"Æ":{"ha":1289,"x_min":0,"x_max":0,"o":"m 118 -12 b 46 299 -29 35 7 188 b 165 703 100 497 122 549 b 229 897 183 768 201 835 b 453 1050 267 990 351 1050 b 608 960 524 1050 572 1014 b 810 1053 656 1032 731 1047 b 919 1053 846 1054 883 1056 b 1256 939 1031 1044 1215 1049 b 1256 863 1267 908 1261 894 b 1160 735 1247 815 1211 747 b 1128 731 1150 732 1139 731 b 1076 738 1110 731 1093 733 b 965 775 1039 747 1001 763 b 893 790 942 783 918 792 b 842 757 874 789 850 775 b 840 667 829 729 835 696 b 858 629 843 653 847 636 b 994 617 894 607 946 617 b 1094 564 1036 617 1075 610 b 1076 451 1108 529 1101 481 b 1015 418 1063 433 1039 422 b 922 422 985 414 954 419 b 860 411 906 424 869 425 b 860 332 849 396 856 350 b 947 265 872 285 896 265 b 1010 278 969 265 993 271 b 1106 338 1044 293 1072 322 b 1154 350 1121 343 1138 350 b 1265 215 1219 349 1263 281 b 1240 119 1267 182 1256 149 b 1093 -10 1210 61 1154 15 b 888 -39 1029 -36 957 -44 b 589 161 757 -29 628 26 b 586 167 588 163 588 164 b 374 165 529 171 428 171 b 199 -28 344 79 306 -28 b 118 -12 175 -28 149 -22 m 497 610 b 436 376 482 549 453 439 b 446 378 440 378 444 378 b 556 381 464 381 515 382 l 556 382 b 497 610 539 458 519 535 "},"Ç":{"ha":864,"x_min":0,"x_max":0,"o":"m 31 367 b 507 1051 -7 690 196 1051 b 636 1032 549 1051 592 1046 b 801 696 763 994 901 828 b 635 631 765 647 694 625 b 554 674 603 633 575 649 b 511 756 535 697 528 729 b 467 783 499 776 483 783 b 372 710 431 783 390 742 b 347 335 307 597 290 450 b 458 263 372 286 414 263 b 569 324 499 263 540 283 b 678 386 596 368 636 386 b 788 342 718 386 757 369 b 768 104 864 271 824 186 b 469 -33 701 11 586 -32 b 467 -50 468 -39 467 -44 b 538 -64 490 -56 515 -57 b 646 -186 592 -81 636 -132 b 628 -287 651 -221 643 -257 b 592 -335 619 -306 607 -322 b 404 -379 540 -374 468 -386 b 315 -349 374 -376 339 -369 b 293 -236 292 -328 282 -268 b 317 -206 296 -225 304 -212 b 357 -199 328 -199 343 -197 b 453 -206 389 -203 421 -207 b 481 -194 465 -204 481 -206 b 435 -154 482 -174 454 -158 b 331 -118 406 -147 340 -144 b 329 -68 325 -101 331 -85 b 328 -12 326 -50 325 -32 b 31 367 156 38 51 192 "},"È":{"ha":783,"x_min":0,"x_max":0,"o":"m 50 383 b 47 649 46 471 44 560 b 75 893 50 731 54 814 b 304 1053 97 1007 199 1044 b 415 1053 342 1054 378 1056 b 750 939 525 1044 710 1049 b 750 863 761 908 756 894 b 654 735 742 815 706 747 b 622 731 644 732 633 731 b 571 738 606 731 588 733 b 460 775 533 747 497 763 b 389 790 438 783 413 792 b 338 757 368 789 346 775 b 335 667 325 729 329 696 b 354 629 338 653 342 636 b 489 617 390 607 442 617 b 589 564 531 617 569 610 b 572 451 604 529 596 481 b 510 418 557 433 533 422 b 418 422 479 414 449 419 b 354 411 400 424 364 425 b 354 332 344 396 350 350 b 442 265 367 285 392 265 b 506 278 464 265 488 271 b 601 338 539 293 567 322 b 649 350 617 343 632 350 b 760 215 714 349 758 281 b 735 119 761 182 751 149 b 589 -10 706 61 649 15 b 382 -39 524 -36 451 -44 b 83 161 251 -29 122 26 b 50 383 61 232 56 308 m 281 1263 b 276 1288 276 1271 275 1279 b 333 1361 279 1313 311 1350 b 364 1367 342 1364 353 1367 b 397 1357 376 1367 390 1364 b 404 1353 400 1356 401 1354 b 503 1206 453 1315 481 1260 b 517 1153 511 1189 517 1171 b 460 1101 515 1118 489 1101 b 401 1125 439 1101 418 1108 b 308 1226 389 1136 319 1214 b 281 1263 297 1236 286 1249 "},"É":{"ha":783,"x_min":0,"x_max":0,"o":"m 50 383 b 47 649 46 471 44 560 b 75 893 50 731 54 814 b 304 1053 97 1007 199 1044 b 415 1053 342 1054 378 1056 b 750 939 525 1044 710 1049 b 750 863 761 908 756 894 b 654 735 742 815 706 747 b 622 731 644 732 633 731 b 571 738 606 731 588 733 b 460 775 533 747 497 763 b 389 790 438 783 413 792 b 338 757 368 789 346 775 b 335 667 325 729 329 696 b 354 629 338 653 342 636 b 489 617 390 607 442 617 b 589 564 531 617 569 610 b 572 451 604 529 596 481 b 510 418 557 433 533 422 b 418 422 479 414 449 419 b 354 411 400 424 364 425 b 354 332 344 396 350 350 b 442 265 367 285 392 265 b 506 278 464 265 488 271 b 601 338 539 293 567 322 b 649 350 617 343 632 350 b 760 215 714 349 758 281 b 735 119 761 182 751 149 b 589 -10 706 61 649 15 b 382 -39 524 -36 451 -44 b 83 161 251 -29 122 26 b 50 383 61 232 56 308 m 392 1125 b 333 1101 375 1108 353 1101 b 276 1153 304 1101 278 1118 b 389 1353 276 1214 344 1319 b 394 1357 390 1354 393 1356 b 428 1367 401 1364 415 1367 b 458 1361 439 1367 450 1364 b 515 1288 482 1350 514 1313 b 513 1263 517 1279 515 1271 b 485 1226 507 1249 496 1236 b 392 1125 472 1214 403 1136 "},"Ê":{"ha":783,"x_min":0,"x_max":0,"o":"m 50 383 b 47 649 46 471 44 560 b 75 893 50 731 54 814 b 304 1053 97 1007 199 1044 b 415 1053 342 1054 378 1056 b 750 939 525 1044 710 1049 b 750 863 761 908 756 894 b 654 735 742 815 706 747 b 622 731 644 732 633 731 b 571 738 606 731 588 733 b 460 775 533 747 497 763 b 389 790 438 783 413 792 b 338 757 368 789 346 775 b 335 667 325 729 329 696 b 354 629 338 653 342 636 b 489 617 390 607 442 617 b 589 564 531 617 569 610 b 572 451 604 529 596 481 b 510 418 557 433 533 422 b 418 422 479 414 449 419 b 354 411 400 424 364 425 b 354 332 344 396 350 350 b 442 265 367 285 392 265 b 506 278 464 265 488 271 b 601 338 539 293 567 322 b 649 350 617 343 632 350 b 760 215 714 349 758 281 b 735 119 761 182 751 149 b 589 -10 706 61 649 15 b 382 -39 524 -36 451 -44 b 83 161 251 -29 122 26 b 50 383 61 232 56 308 m 238 1097 b 208 1154 213 1101 199 1129 b 382 1351 222 1188 336 1340 b 419 1350 394 1356 407 1354 b 542 1235 460 1333 517 1268 b 586 1132 558 1213 596 1158 b 521 1107 578 1106 546 1097 b 465 1135 501 1114 482 1124 b 419 1171 460 1139 425 1167 b 399 1179 413 1175 406 1181 b 297 1114 379 1175 314 1125 b 238 1097 279 1103 258 1094 "},"Ë":{"ha":783,"x_min":0,"x_max":0,"o":"m 50 383 b 47 649 46 471 44 560 b 75 893 50 731 54 814 b 304 1053 97 1007 199 1044 b 415 1053 342 1054 378 1056 b 750 939 525 1044 710 1049 b 750 863 761 908 756 894 b 654 735 742 815 706 747 b 622 731 644 732 633 731 b 571 738 606 731 588 733 b 460 775 533 747 497 763 b 389 790 438 783 413 792 b 338 757 368 789 346 775 b 335 667 325 729 329 696 b 354 629 338 653 342 636 b 489 617 390 607 442 617 b 589 564 531 617 569 610 b 572 451 604 529 596 481 b 510 418 557 433 533 422 b 418 422 479 414 449 419 b 354 411 400 424 364 425 b 354 332 344 396 350 350 b 442 265 367 285 392 265 b 506 278 464 265 488 271 b 601 338 539 293 567 322 b 649 350 617 343 632 350 b 760 215 714 349 758 281 b 735 119 761 182 751 149 b 589 -10 706 61 649 15 b 382 -39 524 -36 451 -44 b 83 161 251 -29 122 26 b 50 383 61 232 56 308 m 411 1189 b 513 1296 407 1254 463 1296 b 589 1219 550 1296 585 1274 b 535 1126 590 1186 567 1138 b 503 1121 525 1122 514 1121 b 411 1189 463 1121 414 1143 m 186 1190 b 288 1299 182 1257 238 1299 b 363 1222 325 1299 358 1275 b 310 1129 365 1189 342 1140 b 276 1124 299 1125 288 1124 b 226 1135 260 1124 242 1128 b 186 1190 206 1143 188 1168 "},"Ì":{"ha":468,"x_min":0,"x_max":0,"o":"m 50 467 b 76 947 49 626 54 789 b 94 997 79 964 85 982 b 132 1035 103 1013 118 1024 b 250 1068 165 1058 208 1067 b 339 1056 279 1069 311 1067 b 432 922 393 1033 431 981 b 424 842 433 896 429 868 b 401 718 421 826 404 733 b 381 442 386 628 378 535 b 399 157 383 347 396 251 b 374 29 400 114 399 65 b 229 -35 347 -10 282 -35 b 119 19 185 -35 147 -15 b 50 467 60 96 50 374 m 143 1288 b 200 1361 146 1313 178 1350 b 231 1367 208 1364 219 1367 b 264 1357 243 1367 257 1364 b 271 1353 267 1356 268 1354 b 369 1206 319 1315 347 1260 b 383 1153 378 1189 383 1171 b 326 1101 382 1118 356 1101 b 268 1125 306 1101 285 1108 b 175 1226 256 1136 186 1214 b 147 1263 164 1236 153 1249 b 143 1288 144 1271 143 1279 "},"Í":{"ha":468,"x_min":0,"x_max":0,"o":"m 50 467 b 76 947 49 626 54 789 b 94 997 79 964 85 982 b 132 1035 103 1013 118 1024 b 250 1068 165 1058 208 1067 b 339 1056 279 1069 311 1067 b 432 922 393 1033 431 981 b 424 842 433 896 429 868 b 401 718 421 826 404 733 b 381 442 386 628 378 535 b 399 157 383 347 396 251 b 374 29 400 114 399 65 b 229 -35 347 -10 282 -35 b 119 19 185 -35 147 -15 b 50 467 60 96 50 374 m 258 1125 b 200 1101 242 1108 219 1101 b 143 1153 171 1101 144 1118 b 256 1353 143 1214 211 1319 b 261 1357 257 1354 260 1356 b 294 1367 268 1364 282 1367 b 325 1361 306 1367 317 1364 b 382 1288 349 1350 381 1313 b 379 1263 383 1279 382 1271 b 351 1226 374 1249 363 1236 b 258 1125 339 1214 269 1136 "},"Î":{"ha":469,"x_min":0,"x_max":0,"o":"m 50 467 b 76 947 49 626 54 789 b 94 997 79 964 85 982 b 132 1035 103 1013 118 1024 b 250 1068 165 1058 208 1067 b 339 1056 279 1069 311 1067 b 432 922 393 1033 431 981 b 424 842 433 896 429 868 b 401 718 421 826 404 733 b 381 442 386 628 378 535 b 399 157 383 347 396 251 b 374 29 400 114 399 65 b 229 -35 347 -10 282 -35 b 119 19 185 -35 147 -15 b 50 467 60 96 50 374 m 104 1097 b 75 1154 79 1101 65 1129 b 249 1351 89 1188 203 1340 b 286 1350 261 1356 275 1354 b 408 1235 326 1333 383 1268 b 454 1132 425 1213 463 1158 b 388 1107 444 1106 413 1097 b 332 1135 368 1114 349 1124 b 286 1171 326 1139 292 1167 b 265 1179 279 1175 272 1181 b 164 1114 246 1175 181 1125 b 104 1097 146 1103 125 1094 "},"Ï":{"ha":468,"x_min":0,"x_max":0,"o":"m 50 467 b 76 947 49 626 54 789 b 94 997 79 964 85 982 b 132 1035 103 1013 118 1024 b 250 1068 165 1058 208 1067 b 339 1056 279 1069 311 1067 b 432 922 393 1033 431 981 b 424 842 433 896 429 868 b 401 718 421 826 404 733 b 381 442 386 628 378 535 b 399 157 383 347 396 251 b 374 29 400 114 399 65 b 229 -35 347 -10 282 -35 b 119 19 185 -35 147 -15 b 50 467 60 96 50 374 m 278 1189 b 379 1296 274 1254 329 1296 b 456 1219 417 1296 451 1274 b 401 1126 457 1186 433 1138 b 369 1121 392 1122 381 1121 b 278 1189 329 1121 281 1143 m 53 1190 b 154 1299 49 1257 104 1299 b 229 1222 192 1299 225 1275 b 176 1129 232 1189 208 1140 b 143 1124 165 1125 154 1124 b 94 1135 126 1124 110 1128 b 53 1190 72 1143 54 1168 "},"Ð":{"ha":1021,"x_min":0,"x_max":0,"o":"m 14 474 b 32 572 3 506 8 549 b 83 593 44 586 65 592 b 101 594 90 593 96 594 b 139 843 107 697 121 788 b 297 1031 172 942 204 981 b 561 1086 378 1071 471 1088 b 992 486 864 1079 990 751 b 972 324 992 432 988 376 b 400 -50 894 57 682 -50 b 132 138 268 -50 164 1 b 100 422 113 222 103 324 b 14 474 67 425 28 440 m 522 440 b 375 424 476 422 425 419 b 393 310 378 382 385 343 b 658 542 575 292 639 426 b 542 751 674 640 638 751 b 432 714 511 751 475 740 b 394 653 413 701 401 676 b 383 606 389 638 386 622 b 433 607 404 607 428 607 b 536 583 469 607 507 603 b 569 486 565 561 579 524 b 522 440 564 464 543 449 "},"Ñ":{"ha":1082,"x_min":0,"x_max":0,"o":"m 74 150 b 44 519 43 271 38 396 b 75 800 49 614 58 707 b 292 1018 97 918 168 1004 b 485 935 381 1028 450 1011 b 576 663 525 847 546 753 b 694 394 601 592 660 460 b 701 814 681 506 676 675 b 833 1014 717 900 743 997 b 1039 954 896 1025 1006 1007 b 1054 850 1058 924 1057 885 b 1018 676 1049 789 1033 736 b 976 203 985 539 983 344 b 826 -4 972 86 924 -4 b 740 15 801 -4 772 1 b 517 289 626 64 574 182 b 376 599 464 390 418 493 b 357 233 353 479 347 354 b 342 1 364 160 413 47 b 253 -22 318 -14 286 -22 b 74 150 149 -22 96 56 m 369 1093 b 374 1143 363 1108 367 1128 b 506 1267 392 1193 446 1267 b 560 1249 525 1267 543 1261 b 614 1211 578 1236 596 1222 b 661 1192 629 1201 644 1192 b 686 1199 669 1190 678 1194 b 761 1244 699 1204 749 1240 b 783 1236 771 1246 778 1243 b 750 1110 810 1203 778 1143 b 713 1074 739 1097 728 1083 b 642 1057 693 1060 665 1054 b 590 1075 624 1060 606 1067 b 518 1122 564 1089 542 1107 b 503 1128 513 1125 508 1128 b 424 1082 485 1128 439 1092 b 399 1075 415 1078 407 1075 b 369 1093 386 1075 375 1081 "},"Ò":{"ha":1019,"x_min":0,"x_max":0,"o":"m 76 247 b 28 526 38 333 25 432 b 114 846 32 636 57 751 b 519 1056 196 985 358 1056 b 885 886 661 1056 803 1000 b 988 628 939 810 975 719 b 990 451 996 569 997 510 b 511 -11 957 197 783 -11 b 76 247 321 -11 158 69 m 469 781 b 375 546 388 739 374 632 b 474 342 376 476 400 371 b 539 328 493 332 517 328 b 690 456 617 328 668 385 b 540 792 731 583 693 765 b 469 781 517 796 490 792 m 381 1288 b 438 1361 383 1313 415 1350 b 468 1367 446 1364 457 1367 b 501 1357 481 1367 494 1364 b 508 1353 504 1356 506 1354 b 607 1206 557 1315 585 1260 b 621 1153 615 1189 621 1171 b 564 1101 619 1118 593 1101 b 506 1125 543 1101 522 1108 b 413 1226 493 1136 424 1214 b 385 1263 401 1236 390 1249 b 381 1288 381 1271 381 1279 "},"Ó":{"ha":1019,"x_min":0,"x_max":0,"o":"m 76 247 b 28 526 38 333 25 432 b 114 846 32 636 57 751 b 519 1056 196 985 358 1056 b 885 886 661 1056 803 1000 b 988 628 939 810 975 719 b 990 451 996 569 997 510 b 511 -11 957 197 783 -11 b 76 247 321 -11 158 69 m 469 781 b 375 546 388 739 374 632 b 474 342 376 476 400 371 b 539 328 493 332 517 328 b 690 456 617 328 668 385 b 540 792 731 583 693 765 b 469 781 517 796 490 792 m 419 1161 b 532 1361 419 1222 488 1328 b 538 1365 533 1363 536 1364 b 571 1375 544 1372 557 1375 b 660 1296 611 1375 656 1333 b 656 1271 660 1288 658 1279 b 628 1233 650 1257 639 1244 b 535 1132 615 1222 547 1144 b 478 1108 518 1117 497 1108 b 419 1161 447 1108 421 1126 "},"Ô":{"ha":1019,"x_min":0,"x_max":0,"o":"m 76 247 b 28 526 38 333 25 432 b 114 846 32 636 57 751 b 519 1056 196 985 358 1056 b 885 886 661 1056 803 1000 b 988 628 939 810 975 719 b 990 451 996 569 997 510 b 511 -11 957 197 783 -11 b 76 247 321 -11 158 69 m 469 781 b 375 546 388 739 374 632 b 474 342 376 476 400 371 b 539 328 493 332 517 328 b 690 456 617 328 668 385 b 540 792 731 583 693 765 b 469 781 517 796 490 792 m 342 1097 b 313 1154 317 1101 303 1129 b 486 1351 326 1188 440 1340 b 524 1350 499 1356 511 1354 b 646 1235 564 1333 621 1268 b 690 1132 663 1213 700 1158 b 625 1107 682 1106 650 1097 b 569 1135 606 1114 586 1124 b 524 1171 564 1139 529 1167 b 503 1179 517 1175 510 1181 b 401 1114 483 1175 418 1125 b 342 1097 383 1103 363 1094 "},"Õ":{"ha":1019,"x_min":0,"x_max":0,"o":"m 76 247 b 28 526 38 333 25 432 b 114 846 32 636 57 751 b 519 1056 196 985 358 1056 b 885 886 661 1056 803 1000 b 988 628 939 810 975 719 b 990 451 996 569 997 510 b 511 -11 957 197 783 -11 b 76 247 321 -11 158 69 m 469 781 b 375 546 388 739 374 632 b 474 342 376 476 400 371 b 539 328 493 332 517 328 b 690 456 617 328 668 385 b 540 792 731 583 693 765 b 469 781 517 796 490 792 m 300 1149 b 303 1199 293 1164 297 1183 b 435 1322 322 1249 375 1322 b 490 1304 454 1322 472 1315 b 544 1265 508 1292 525 1278 b 592 1247 558 1257 575 1247 b 617 1254 600 1246 608 1250 b 692 1299 628 1260 678 1296 b 714 1292 700 1301 708 1299 b 681 1165 740 1258 708 1199 b 643 1129 669 1153 657 1139 b 571 1113 624 1115 596 1110 b 519 1131 554 1115 536 1122 b 447 1178 494 1143 472 1163 b 433 1183 443 1181 438 1183 b 354 1138 415 1183 369 1147 b 329 1131 346 1132 338 1131 b 300 1149 317 1131 306 1136 "},"Ö":{"ha":1019,"x_min":0,"x_max":0,"o":"m 76 247 b 28 526 38 333 25 432 b 114 846 32 636 57 751 b 519 1056 196 985 358 1056 b 885 886 661 1056 803 1000 b 988 628 939 810 975 719 b 990 451 996 569 997 510 b 511 -11 957 197 783 -11 b 76 247 321 -11 158 69 m 469 781 b 375 546 388 739 374 632 b 474 342 376 476 400 371 b 539 328 493 332 517 328 b 690 456 617 328 668 385 b 540 792 731 583 693 765 b 469 781 517 796 490 792 m 557 1182 b 658 1290 553 1249 608 1290 b 733 1214 696 1290 729 1267 b 681 1121 736 1181 713 1132 b 646 1115 669 1117 658 1115 b 597 1126 629 1115 613 1119 b 557 1182 576 1135 557 1160 m 331 1185 b 433 1293 328 1251 383 1293 b 508 1217 469 1293 504 1269 b 454 1122 511 1183 486 1135 b 422 1117 444 1118 433 1117 b 331 1185 383 1117 333 1139 "},"×":{"ha":635,"x_min":0,"x_max":0,"o":"m 54 472 b 38 547 40 496 33 524 b 176 644 47 608 111 657 b 275 585 213 636 247 611 l 313 551 b 336 576 324 563 332 572 b 413 642 360 601 385 625 b 488 658 436 656 464 663 b 582 517 549 647 596 582 b 521 419 574 482 549 447 b 494 392 513 410 504 401 b 569 303 522 364 547 335 b 592 196 596 267 603 232 b 551 143 585 174 568 157 b 503 115 536 132 521 121 b 404 146 474 107 432 124 b 331 208 392 156 364 179 b 235 129 300 179 269 153 b 161 104 210 113 185 104 b 49 200 107 104 64 150 b 79 297 40 229 57 269 b 147 374 90 310 115 339 b 121 397 135 385 126 393 b 54 472 96 421 72 444 "},"Ø":{"ha":1019,"x_min":0,"x_max":0,"o":"m 76 247 b 28 526 38 333 25 432 b 114 846 32 636 57 751 b 518 1056 194 985 357 1056 b 700 1024 581 1056 643 1046 b 731 1083 708 1047 719 1074 b 771 1096 742 1092 756 1096 b 819 1086 788 1096 806 1092 b 826 949 876 1068 856 1006 b 988 628 915 876 972 738 b 990 451 996 569 997 510 b 511 -11 957 199 783 -11 b 378 6 467 -11 421 -6 b 317 -74 357 -32 335 -62 b 282 -83 306 -79 293 -83 b 228 -49 261 -83 233 -71 b 257 49 222 -29 242 15 b 76 247 175 89 114 165 m 469 781 b 375 546 388 739 374 632 b 410 403 376 497 385 446 b 418 389 413 399 415 393 b 464 482 439 431 458 471 b 597 772 479 517 542 651 b 540 792 581 782 561 789 b 469 781 517 796 490 792 m 535 361 b 521 329 531 350 526 339 b 607 344 551 325 583 331 b 690 456 649 368 676 413 b 682 676 713 525 711 610 b 535 361 629 574 581 468 "},"Ù":{"ha":992,"x_min":0,"x_max":0,"o":"m 47 408 b 43 661 38 492 36 576 b 44 689 43 672 44 682 b 138 1019 50 775 63 975 b 264 1051 175 1042 221 1049 b 424 911 356 1057 419 1011 b 400 631 429 817 410 724 b 386 454 393 572 389 513 b 388 375 386 428 385 401 b 485 274 394 304 438 274 b 611 379 539 274 596 313 b 628 622 629 458 631 540 b 614 769 626 671 621 721 b 597 897 607 813 599 854 b 604 982 596 925 596 954 b 747 1056 618 1032 685 1056 b 867 1007 800 1056 850 1039 b 850 139 968 803 1011 386 b 735 31 821 96 781 57 b 501 -43 664 -22 589 -43 b 260 14 426 -43 326 -22 b 47 408 118 93 64 256 m 340 1263 b 338 1288 338 1271 336 1279 b 394 1361 339 1313 371 1350 b 425 1367 403 1364 414 1367 b 458 1357 438 1367 451 1364 b 464 1353 460 1356 463 1354 b 576 1153 508 1319 576 1214 b 519 1101 575 1118 549 1101 b 461 1125 500 1101 478 1108 b 368 1226 450 1136 381 1214 b 340 1263 357 1236 346 1249 "},"Ú":{"ha":992,"x_min":0,"x_max":0,"o":"m 47 408 b 43 661 38 492 36 576 b 44 689 43 672 44 682 b 138 1019 50 775 63 975 b 264 1051 175 1042 221 1049 b 424 911 356 1057 419 1011 b 400 631 429 817 410 724 b 386 454 393 572 389 513 b 388 375 386 428 385 401 b 485 274 394 304 438 274 b 611 379 539 274 596 313 b 628 622 629 458 631 540 b 614 769 626 671 621 721 b 597 897 607 813 599 854 b 604 982 596 925 596 954 b 747 1056 618 1032 685 1056 b 867 1007 800 1056 850 1039 b 850 139 968 803 1011 386 b 735 31 821 96 781 57 b 501 -43 664 -22 589 -43 b 260 14 426 -43 326 -22 b 47 408 118 93 64 256 m 533 1124 b 475 1100 517 1107 494 1100 b 418 1151 446 1100 419 1117 b 531 1351 418 1213 486 1318 b 536 1356 532 1353 535 1354 b 569 1365 543 1363 557 1365 b 600 1360 581 1365 592 1363 b 657 1286 624 1349 656 1310 b 654 1261 658 1278 657 1269 b 626 1224 649 1247 638 1235 b 533 1124 614 1213 544 1135 "},"Û":{"ha":992,"x_min":0,"x_max":0,"o":"m 47 408 b 43 661 38 492 36 576 b 44 689 43 672 44 682 b 138 1019 50 775 63 975 b 264 1051 175 1042 221 1049 b 424 911 356 1057 419 1011 b 400 631 429 817 410 724 b 386 454 393 572 389 513 b 388 375 386 428 385 401 b 485 274 394 304 438 274 b 611 379 539 274 596 313 b 628 622 629 458 631 540 b 614 769 626 671 621 721 b 597 897 607 813 599 854 b 604 982 596 925 596 954 b 747 1056 618 1032 685 1056 b 867 1007 800 1056 850 1039 b 850 139 968 803 1011 386 b 735 31 821 96 781 57 b 501 -43 664 -22 589 -43 b 260 14 426 -43 326 -22 b 47 408 118 93 64 256 m 349 1099 b 318 1156 322 1103 308 1131 b 492 1353 332 1189 446 1340 b 529 1351 504 1357 518 1356 b 651 1236 571 1336 626 1271 b 697 1133 668 1214 706 1161 b 631 1108 689 1107 657 1099 b 575 1136 611 1115 592 1125 b 529 1172 569 1140 536 1168 b 508 1181 524 1176 515 1183 b 407 1115 489 1178 424 1126 b 349 1099 390 1104 368 1096 "},"Ü":{"ha":992,"x_min":0,"x_max":0,"o":"m 47 408 b 43 661 38 492 36 576 b 44 689 43 672 44 682 b 138 1019 50 775 63 975 b 264 1051 175 1042 221 1049 b 424 911 356 1057 419 1011 b 400 631 429 817 410 724 b 386 454 393 572 389 513 b 388 375 386 428 385 401 b 485 274 394 304 438 274 b 611 379 539 274 596 313 b 628 622 629 458 631 540 b 614 769 626 671 621 721 b 597 897 607 813 599 854 b 604 982 596 925 596 954 b 747 1056 618 1032 685 1056 b 867 1007 800 1056 850 1039 b 850 139 968 803 1011 386 b 735 31 821 96 781 57 b 501 -43 664 -22 589 -43 b 260 14 426 -43 326 -22 b 47 408 118 93 64 256 m 306 1186 b 408 1293 303 1251 358 1293 b 483 1217 446 1293 479 1271 b 431 1124 486 1183 463 1135 b 399 1118 421 1119 410 1118 b 306 1186 358 1118 308 1140 m 532 1183 b 633 1292 528 1250 583 1292 b 708 1215 671 1292 704 1268 b 656 1121 711 1181 688 1133 b 624 1115 646 1117 635 1115 b 532 1183 583 1115 535 1138 "},"Ý":{"ha":965,"x_min":0,"x_max":0,"o":"m 33 547 b 29 746 24 613 22 679 b 31 767 29 754 31 763 b 124 1028 36 835 49 992 b 250 1053 161 1044 207 1050 b 410 942 342 1057 406 1021 b 386 722 415 868 399 794 b 497 511 363 586 431 511 b 614 715 560 511 624 576 b 600 832 611 754 607 793 b 583 931 593 864 585 897 b 590 997 582 953 582 976 b 733 1057 604 1038 671 1057 b 853 1018 786 1057 836 1043 b 836 336 954 857 997 529 b 721 250 807 301 767 271 b 668 225 704 240 688 232 b 669 119 671 189 671 154 b 658 39 669 92 667 65 b 494 -29 640 -14 551 -31 b 350 89 404 -25 361 -10 b 349 207 347 128 347 168 b 33 547 163 244 61 354 m 392 1149 b 404 1201 390 1167 397 1185 b 504 1349 428 1256 456 1311 b 510 1353 506 1350 508 1351 b 543 1363 517 1360 531 1363 b 574 1357 554 1363 565 1360 b 631 1283 596 1346 629 1308 b 628 1258 632 1275 631 1267 b 506 1121 619 1239 518 1132 b 449 1097 489 1104 468 1097 b 392 1149 419 1097 393 1114 "},"Þ":{"ha":1038,"x_min":0,"x_max":0,"o":"m 57 561 b 40 821 46 647 35 735 b 140 1036 46 903 65 992 b 275 1058 179 1060 229 1064 b 440 833 406 1039 429 957 b 653 897 496 875 585 897 b 1007 589 832 897 968 758 b 779 110 1054 385 964 199 b 531 61 703 74 615 60 b 463 69 515 61 488 64 b 460 4 463 49 463 26 b 286 -169 451 -93 389 -169 b 194 -144 254 -169 222 -161 b 104 36 129 -110 113 -31 b 85 301 94 124 92 213 b 57 561 79 389 68 475 m 447 575 b 439 413 426 525 432 467 b 446 399 443 410 443 400 b 464 382 451 392 457 386 b 518 369 476 372 496 369 b 640 396 560 369 611 383 b 724 510 690 417 718 456 b 714 607 728 542 726 578 b 678 649 706 624 693 640 b 604 667 658 661 632 667 b 483 628 560 667 511 651 b 447 575 467 615 456 596 "},"ß":{"ha":944,"x_min":0,"x_max":0,"o":"m 46 372 b 49 660 43 468 40 564 b 464 1076 71 910 196 1069 b 664 1038 532 1079 604 1068 b 813 788 753 992 815 886 b 682 600 813 701 747 646 b 875 451 761 563 825 529 b 651 -31 1008 251 886 3 b 582 -36 629 -33 606 -36 b 407 68 507 -36 426 -15 b 457 260 393 126 407 228 b 619 315 506 292 571 285 b 647 381 640 328 657 358 b 543 425 636 408 572 419 b 421 471 500 433 454 442 b 408 624 379 506 378 578 b 460 697 424 649 447 669 b 444 782 471 725 472 767 b 414 785 436 786 424 786 b 325 656 347 774 333 713 b 331 375 313 563 319 468 b 356 -21 342 286 361 69 b 189 -179 351 -118 289 -179 b 58 -25 115 -179 69 -126 b 49 286 51 36 49 225 b 46 372 49 297 46 361 "},"à":{"ha":921,"x_min":0,"x_max":0,"o":"m 53 157 b 28 415 24 239 19 329 b 206 775 38 532 93 715 b 418 814 267 811 346 821 b 571 757 458 810 535 789 b 678 833 593 803 628 828 b 778 815 711 836 747 829 b 817 792 792 810 807 803 b 850 713 838 771 847 740 b 846 603 854 676 851 639 b 811 399 836 535 819 467 b 889 171 801 311 810 246 b 904 143 896 164 901 153 b 811 11 913 89 864 28 b 753 1 792 6 772 1 b 557 132 669 1 585 53 b 292 -19 500 46 396 -15 b 113 50 228 -21 157 4 b 53 157 85 81 65 118 m 350 507 b 332 353 336 457 329 404 b 411 226 336 306 349 226 b 507 338 461 226 494 297 b 524 576 532 413 547 535 b 458 625 504 611 481 625 b 350 507 411 625 365 564 m 335 1054 b 331 1079 332 1063 331 1071 b 388 1153 333 1103 365 1142 b 418 1158 396 1156 407 1158 b 451 1149 432 1158 444 1156 b 458 1144 454 1147 456 1146 b 571 944 503 1111 571 1006 b 513 892 569 910 543 892 b 456 915 493 892 471 900 b 363 1017 443 928 375 1006 b 335 1054 351 1028 340 1040 "},"á":{"ha":921,"x_min":0,"x_max":0,"o":"m 53 157 b 28 415 24 239 19 329 b 206 775 38 532 93 715 b 418 814 267 811 346 821 b 571 757 458 810 535 789 b 678 833 593 803 628 828 b 778 815 711 836 747 829 b 817 792 792 810 807 803 b 850 713 838 771 847 740 b 846 603 854 676 851 639 b 811 399 836 535 819 467 b 889 171 801 311 810 246 b 904 143 896 164 901 153 b 811 11 913 89 864 28 b 753 1 792 6 772 1 b 557 132 669 1 585 53 b 292 -19 500 46 396 -15 b 113 50 228 -21 157 4 b 53 157 85 81 65 118 m 350 507 b 332 353 336 457 329 404 b 411 226 336 306 349 226 b 507 338 461 226 494 297 b 524 576 532 413 547 535 b 458 625 504 611 481 625 b 350 507 411 625 365 564 m 476 900 b 419 876 460 885 439 876 b 361 929 389 876 363 894 b 474 1129 361 990 429 1096 b 479 1133 475 1131 478 1132 b 511 1143 486 1140 499 1143 b 543 1136 524 1143 535 1140 b 600 1064 567 1126 599 1088 b 597 1039 601 1056 600 1047 b 569 1001 592 1025 581 1013 b 476 900 557 990 488 913 "},"â":{"ha":921,"x_min":0,"x_max":0,"o":"m 53 157 b 28 415 24 239 19 329 b 206 775 38 532 93 715 b 418 814 267 811 346 821 b 571 757 458 810 535 789 b 678 833 593 803 628 828 b 778 815 711 836 747 829 b 817 792 792 810 807 803 b 850 713 838 771 847 740 b 846 603 854 676 851 639 b 811 399 836 535 819 467 b 889 171 801 311 810 246 b 904 143 896 164 901 153 b 811 11 913 89 864 28 b 753 1 792 6 772 1 b 557 132 669 1 585 53 b 292 -19 500 46 396 -15 b 113 50 228 -21 157 4 b 53 157 85 81 65 118 m 350 507 b 332 353 336 457 329 404 b 411 226 336 306 349 226 b 507 338 461 226 494 297 b 524 576 532 413 547 535 b 458 625 504 611 481 625 b 350 507 411 625 365 564 m 303 897 b 272 954 276 901 264 929 b 446 1151 285 986 401 1140 b 483 1150 458 1156 472 1154 b 607 1035 525 1135 581 1068 b 651 932 624 1013 660 958 b 585 907 643 906 611 897 b 529 935 565 913 547 924 b 485 971 524 939 490 967 b 463 979 478 975 471 981 b 361 914 443 975 378 924 b 303 897 344 903 322 893 "},"ã":{"ha":921,"x_min":0,"x_max":0,"o":"m 53 157 b 28 415 24 239 19 329 b 206 775 38 532 93 715 b 418 814 267 811 346 821 b 571 757 458 810 535 789 b 678 833 593 803 628 828 b 778 815 711 836 747 829 b 817 792 792 810 807 803 b 850 713 838 771 847 740 b 846 603 854 676 851 639 b 811 399 836 535 819 467 b 889 171 801 311 810 246 b 904 143 896 164 901 153 b 811 11 913 89 864 28 b 753 1 792 6 772 1 b 557 132 669 1 585 53 b 292 -19 500 46 396 -15 b 113 50 228 -21 157 4 b 53 157 85 81 65 118 m 350 507 b 332 353 336 457 329 404 b 411 226 336 306 349 226 b 507 338 461 226 494 297 b 524 576 532 413 547 535 b 458 625 504 611 481 625 b 350 507 411 625 365 564 m 272 910 b 276 961 265 925 271 944 b 410 1083 296 1011 350 1083 b 463 1067 428 1083 446 1078 b 518 1028 482 1054 499 1039 b 564 1008 532 1018 547 1010 b 589 1015 574 1008 582 1011 b 665 1061 601 1022 651 1058 b 688 1053 674 1063 682 1060 b 654 928 713 1019 681 960 b 617 890 643 914 631 900 b 544 875 596 876 569 871 b 493 892 526 878 510 883 b 421 939 468 906 446 924 b 406 946 417 942 411 946 b 328 899 389 946 342 908 b 303 892 319 894 311 892 b 272 910 290 892 278 897 "},"ä":{"ha":921,"x_min":0,"x_max":0,"o":"m 53 157 b 28 415 24 239 19 329 b 206 775 38 532 93 715 b 418 814 267 811 346 821 b 571 757 458 810 535 789 b 678 833 593 803 628 828 b 778 815 711 836 747 829 b 817 792 792 810 807 803 b 850 713 838 771 847 740 b 846 603 854 676 851 639 b 811 399 836 535 819 467 b 889 171 801 311 810 246 b 904 143 896 164 901 153 b 811 11 913 89 864 28 b 753 1 792 6 772 1 b 557 132 669 1 585 53 b 292 -19 500 46 396 -15 b 113 50 228 -21 157 4 b 53 157 85 81 65 118 m 350 507 b 332 353 336 457 329 404 b 411 226 336 306 349 226 b 507 338 461 226 494 297 b 524 576 532 413 547 535 b 458 625 504 611 481 625 b 350 507 411 625 365 564 m 317 969 b 418 1078 313 1036 368 1078 b 493 1001 456 1078 489 1054 b 440 908 496 968 472 919 b 406 903 429 904 418 903 b 317 969 367 903 319 925 m 542 968 b 643 1075 539 1033 594 1075 b 719 999 681 1075 715 1053 b 665 906 722 965 697 917 b 633 900 656 901 644 900 b 542 968 594 900 544 922 "},"å":{"ha":921,"x_min":0,"x_max":0,"o":"m 53 157 b 28 415 24 239 19 329 b 206 775 38 532 93 715 b 418 814 267 811 346 821 b 571 757 458 810 535 789 b 678 833 593 803 628 828 b 778 815 711 836 747 829 b 817 792 792 810 807 803 b 850 713 838 771 847 740 b 846 603 854 676 851 639 b 811 399 836 535 819 467 b 889 171 801 311 810 246 b 904 143 896 164 901 153 b 811 11 913 89 864 28 b 753 1 792 6 772 1 b 557 132 669 1 585 53 b 292 -19 500 46 396 -15 b 113 50 228 -21 157 4 b 53 157 85 81 65 118 m 350 507 b 332 353 336 457 329 404 b 411 226 336 306 349 226 b 507 338 461 226 494 297 b 524 576 532 413 547 535 b 458 625 504 611 481 625 b 350 507 411 625 365 564 m 419 926 b 442 1114 375 979 385 1072 b 529 1142 467 1132 499 1142 b 649 1054 589 1142 635 1113 b 643 961 657 1025 657 990 b 531 881 622 914 583 881 b 419 926 490 881 447 896 m 526 1043 b 508 988 493 1043 488 1003 b 543 988 517 982 535 982 b 526 1043 569 1003 557 1043 "},"æ":{"ha":1324,"x_min":0,"x_max":0,"o":"m 53 140 b 28 397 24 221 19 311 b 206 758 38 518 92 693 b 418 797 267 794 346 804 b 571 740 458 793 535 772 b 678 815 593 785 626 813 b 758 806 704 819 733 814 b 939 860 813 842 875 860 b 1126 800 1003 860 1068 842 b 1211 471 1235 725 1288 585 b 879 332 1139 364 997 332 l 878 332 b 997 260 904 288 943 260 b 1165 310 1040 261 1125 297 b 1231 315 1186 317 1210 321 b 1290 264 1256 308 1279 288 b 1268 85 1319 206 1310 132 b 957 -31 1194 4 1064 -31 b 650 186 828 -31 707 25 b 281 -39 576 76 422 -39 b 53 140 165 -39 86 36 m 350 490 b 332 336 336 440 329 388 b 411 210 336 289 347 210 b 507 321 461 210 494 281 b 524 558 532 396 547 518 b 458 608 504 593 481 608 b 350 490 411 608 365 547 m 897 586 b 924 499 883 528 896 499 b 1006 572 958 499 999 539 b 961 646 1015 621 990 646 b 897 586 935 646 907 626 "},"ç":{"ha":729,"x_min":0,"x_max":0,"o":"m 25 294 b 78 632 18 408 35 526 b 381 857 131 764 233 857 b 671 713 494 857 615 804 b 672 563 696 669 700 604 b 572 500 642 517 608 500 b 432 553 526 500 479 526 b 389 563 419 560 403 565 b 354 544 376 561 364 554 b 326 333 313 503 304 390 b 386 292 338 301 360 292 b 536 340 435 292 496 326 b 631 350 567 351 600 358 b 699 264 665 340 690 300 b 647 57 715 194 696 108 b 538 -10 618 25 578 4 b 368 -32 485 -28 426 -35 b 363 -62 367 -42 364 -53 b 415 -72 381 -67 399 -67 b 496 -164 456 -85 489 -124 b 482 -239 499 -189 493 -215 b 456 -274 475 -251 467 -264 b 317 -307 417 -303 364 -312 b 250 -283 293 -304 268 -300 b 233 -201 232 -268 226 -224 b 251 -178 236 -192 243 -182 b 281 -172 260 -172 271 -172 b 353 -178 304 -175 329 -178 b 374 -169 361 -176 372 -178 b 339 -139 374 -154 353 -143 b 263 -112 318 -135 269 -132 b 260 -75 258 -100 263 -87 b 261 -18 257 -57 258 -37 b 263 -11 263 -15 263 -14 b 25 294 132 32 36 154 "},"è":{"ha":761,"x_min":0,"x_max":0,"o":"m 43 235 b 58 617 14 358 17 496 b 379 853 108 764 242 853 b 565 793 443 853 507 833 b 650 464 674 718 726 576 b 318 325 578 356 436 325 l 318 324 b 347 288 325 310 335 297 b 436 253 371 265 404 251 b 604 303 479 254 564 289 b 669 308 625 308 649 314 b 729 257 694 301 718 281 b 707 78 758 199 749 125 b 417 -33 638 0 518 -33 b 43 235 249 -33 85 54 m 253 1054 b 250 1079 250 1063 249 1071 b 307 1153 253 1103 285 1142 b 338 1158 315 1156 326 1158 b 371 1149 350 1158 364 1156 b 378 1144 372 1147 375 1146 b 476 997 425 1107 453 1051 b 489 944 483 981 490 963 b 432 892 489 910 463 892 b 375 915 413 892 390 900 b 253 1054 356 935 265 1029 m 336 579 b 363 490 322 521 335 490 b 444 565 400 490 438 531 b 400 639 454 614 429 639 b 336 579 374 639 346 619 "},"é":{"ha":761,"x_min":0,"x_max":0,"o":"m 43 235 b 58 617 14 358 17 496 b 379 853 108 764 242 853 b 565 793 443 853 507 833 b 650 464 674 718 726 576 b 318 325 578 356 436 325 l 318 324 b 347 288 325 310 335 297 b 436 253 371 265 404 251 b 604 303 479 254 564 289 b 669 308 625 308 649 314 b 729 257 694 301 718 281 b 707 78 758 199 749 125 b 417 -33 638 0 518 -33 b 43 235 249 -33 85 54 m 426 938 b 369 914 410 922 389 914 b 311 967 339 914 313 932 b 424 1167 311 1028 379 1133 b 429 1171 425 1168 428 1169 b 463 1179 436 1176 450 1179 b 493 1174 474 1179 485 1178 b 550 1100 517 1164 549 1125 b 547 1076 551 1092 550 1083 b 519 1039 542 1061 531 1050 b 426 938 507 1026 438 950 m 336 579 b 363 490 322 521 335 490 b 444 565 400 490 438 531 b 400 639 454 614 429 639 b 336 579 374 639 346 619 "},"ê":{"ha":761,"x_min":0,"x_max":0,"o":"m 43 235 b 58 617 14 358 17 496 b 379 853 108 764 242 853 b 565 793 443 853 507 833 b 650 464 674 718 726 576 b 318 325 578 356 436 325 l 318 324 b 347 288 325 310 335 297 b 436 253 371 265 404 251 b 604 303 479 254 564 289 b 669 308 625 308 649 314 b 729 257 694 301 718 281 b 707 78 758 199 749 125 b 417 -33 638 0 518 -33 b 43 235 249 -33 85 54 m 222 897 b 192 954 196 901 182 929 b 365 1151 206 988 319 1140 b 403 1150 378 1156 392 1154 b 525 1035 444 1135 500 1069 b 571 932 542 1013 579 958 b 504 907 561 906 531 897 b 449 935 485 913 465 924 b 403 971 443 939 410 967 b 382 979 397 975 389 981 b 281 914 363 975 297 924 b 222 897 263 903 242 893 m 336 579 b 363 490 322 521 335 490 b 444 565 400 490 438 531 b 400 639 454 614 429 639 b 336 579 374 639 346 619 "},"ë":{"ha":761,"x_min":0,"x_max":0,"o":"m 43 235 b 58 617 14 358 17 496 b 379 853 108 764 242 853 b 565 793 443 853 507 833 b 650 464 674 718 726 576 b 318 325 578 356 436 325 l 318 324 b 347 288 325 310 335 297 b 436 253 371 265 404 251 b 604 303 479 254 564 289 b 669 308 625 308 649 314 b 729 257 694 301 718 281 b 707 78 758 199 749 125 b 417 -33 638 0 518 -33 b 43 235 249 -33 85 54 m 386 964 b 489 1071 383 1031 439 1071 b 564 996 526 1071 560 1049 b 510 901 567 961 542 914 b 478 896 500 897 489 896 b 386 964 439 896 389 918 m 161 967 b 263 1074 157 1032 213 1074 b 338 997 300 1074 333 1051 b 285 904 340 964 317 915 b 253 899 275 900 264 899 b 161 967 213 899 164 921 m 336 579 b 363 490 322 521 335 490 b 444 565 400 490 438 531 b 400 639 454 614 429 639 b 336 579 374 639 346 619 "},"ì":{"ha":449,"x_min":0,"x_max":0,"o":"m 125 36 b 57 642 22 126 6 449 b 104 742 67 676 78 715 b 240 790 135 778 194 790 b 379 742 282 790 350 774 b 419 635 407 715 417 672 b 394 465 421 578 406 522 b 368 199 378 378 364 289 b 368 88 369 163 372 125 b 264 -7 360 29 324 -1 b 125 36 215 -12 161 6 m 135 1022 b 132 1047 132 1031 131 1039 b 189 1121 133 1072 165 1110 b 219 1126 197 1124 208 1126 b 253 1117 232 1126 246 1124 b 258 1113 254 1115 257 1114 b 371 913 303 1079 371 974 b 314 861 369 878 343 861 b 256 885 294 861 272 868 b 163 986 244 896 175 974 b 135 1022 151 996 140 1008 "},"í":{"ha":449,"x_min":0,"x_max":0,"o":"m 125 36 b 57 642 22 126 6 449 b 104 742 67 676 78 715 b 240 790 135 778 194 790 b 379 742 282 790 350 774 b 419 635 407 715 417 672 b 394 465 421 578 406 522 b 368 199 378 378 364 289 b 368 88 369 163 372 125 b 264 -7 360 29 324 -1 b 125 36 215 -12 161 6 m 142 929 b 154 982 140 947 147 965 b 254 1129 178 1036 206 1092 b 260 1133 256 1131 258 1132 b 292 1143 267 1140 279 1143 b 381 1064 331 1143 378 1101 b 378 1039 382 1056 381 1047 b 350 1001 372 1025 360 1013 b 256 900 338 990 268 913 b 199 876 240 885 218 876 b 142 929 169 876 143 894 "},"î":{"ha":475,"x_min":0,"x_max":0,"o":"m 129 36 b 61 642 26 126 10 449 b 108 742 71 676 82 715 b 244 790 139 778 199 790 b 383 742 286 790 354 774 b 424 635 411 715 421 672 b 399 465 425 578 410 522 b 372 199 382 378 368 289 b 372 88 374 163 376 125 b 268 -7 364 29 328 -1 b 129 36 219 -12 165 6 m 104 828 b 75 885 78 832 65 861 b 247 1083 86 918 201 1068 b 285 1081 260 1086 274 1085 b 408 965 331 1063 379 1003 b 453 864 425 943 461 890 b 386 838 444 838 413 829 b 331 867 367 844 349 854 b 286 903 325 871 292 899 b 264 911 279 907 272 913 b 163 846 244 907 179 856 b 104 828 146 835 124 825 "},"ï":{"ha":506,"x_min":0,"x_max":0,"o":"m 128 36 b 60 642 25 126 8 449 b 107 742 69 676 81 715 b 243 790 138 778 197 790 b 382 742 285 790 353 774 b 422 635 410 715 419 672 b 397 465 424 578 408 522 b 371 199 381 378 367 289 b 371 88 372 163 375 125 b 267 -7 363 29 326 -1 b 128 36 218 -12 164 6 m 93 928 b 196 1036 90 994 146 1036 b 271 960 233 1036 267 1013 b 218 865 274 925 250 878 b 186 860 208 861 197 860 b 93 928 146 860 96 882 m 319 925 b 421 1033 315 992 371 1033 b 496 957 458 1033 492 1010 b 443 863 499 922 475 875 b 411 857 433 858 422 857 b 319 925 371 857 322 879 "},"ð":{"ha":883,"x_min":0,"x_max":0,"o":"m 318 -19 b 35 515 79 46 -26 299 b 335 707 74 647 204 707 b 489 678 388 707 442 697 b 410 756 465 706 439 733 b 389 729 403 744 393 733 b 350 714 376 718 363 714 b 308 788 313 714 282 750 b 329 817 313 793 321 806 b 283 854 314 829 299 840 b 250 897 271 867 258 881 b 244 950 243 914 242 933 b 354 1065 256 1004 296 1057 b 492 1033 394 1071 443 1058 b 504 1050 497 1042 501 1047 b 582 1085 522 1072 554 1089 b 657 1006 618 1079 654 1042 b 636 936 658 981 650 956 b 633 932 635 935 635 933 b 847 590 738 836 826 704 b 567 -12 893 349 817 58 b 425 -32 521 -25 474 -32 b 318 -19 389 -32 353 -28 m 310 397 b 350 239 301 343 308 276 b 410 217 367 224 388 217 b 469 239 432 217 453 224 b 438 501 547 310 538 474 b 310 397 374 518 319 457 "},"ñ":{"ha":808,"x_min":0,"x_max":0,"o":"m 96 22 b 36 424 36 108 36 322 b 75 743 38 532 40 643 b 221 871 100 818 133 871 b 367 792 275 871 343 844 b 379 722 376 771 381 746 b 511 785 418 765 465 785 b 717 654 588 785 665 735 b 760 108 760 586 813 363 b 592 -12 753 72 740 -24 b 461 435 456 -3 461 165 b 401 571 461 528 431 571 b 361 435 372 571 344 522 b 369 61 381 313 390 140 b 217 -39 354 1 285 -39 b 96 22 169 -39 125 -21 m 168 914 b 172 964 161 929 167 949 b 306 1086 192 1014 246 1086 b 358 1069 324 1086 342 1081 b 413 1031 376 1057 394 1043 b 460 1011 428 1022 443 1013 b 485 1018 468 1011 478 1014 b 560 1064 497 1025 547 1061 b 582 1057 569 1067 578 1064 b 549 931 608 1022 576 963 b 513 894 538 917 526 904 b 440 878 492 879 464 874 b 389 894 422 881 404 886 b 317 943 363 908 340 928 b 301 949 311 946 307 949 b 222 903 285 949 238 911 b 199 896 215 897 207 896 b 168 914 186 896 174 901 "},"ò":{"ha":825,"x_min":0,"x_max":0,"o":"m 303 6 b 69 667 38 88 -42 429 b 435 879 133 803 286 879 b 733 726 553 879 668 831 b 658 83 857 531 811 249 b 429 -14 600 17 517 -14 b 303 6 386 -14 343 -7 m 526 624 b 464 654 506 644 485 654 b 336 461 393 654 331 544 b 425 379 336 413 378 379 b 468 392 440 379 456 383 b 526 624 538 442 588 563 m 333 1069 b 301 1131 315 1088 301 1104 b 358 1204 304 1156 336 1194 b 389 1210 367 1207 378 1210 b 422 1200 401 1210 415 1207 b 429 1196 425 1199 426 1199 b 542 996 474 1161 542 1057 b 485 944 540 961 514 944 b 426 968 464 944 443 951 b 333 1069 414 979 344 1057 "},"ó":{"ha":825,"x_min":0,"x_max":0,"o":"m 303 6 b 69 667 38 88 -42 429 b 435 879 133 803 286 879 b 733 726 553 879 668 831 b 658 83 857 531 811 249 b 429 -14 600 17 517 -14 b 303 6 386 -14 343 -7 m 526 624 b 464 654 506 644 485 654 b 336 461 393 654 331 544 b 425 379 336 413 378 379 b 468 392 440 379 456 383 b 526 624 538 442 588 563 m 451 994 b 394 971 436 979 414 971 b 336 1024 364 971 338 989 b 449 1224 336 1085 404 1190 b 456 1228 451 1225 453 1226 b 488 1238 463 1235 475 1238 b 576 1158 528 1238 572 1196 b 544 1096 576 1131 564 1115 b 451 994 533 1083 464 1007 "},"ô":{"ha":825,"x_min":0,"x_max":0,"o":"m 303 6 b 69 667 38 88 -42 429 b 435 879 133 803 286 879 b 733 726 553 879 668 831 b 658 83 857 531 811 249 b 429 -14 600 17 517 -14 b 303 6 386 -14 343 -7 m 269 906 b 240 963 243 910 231 938 b 413 1160 251 994 368 1149 b 450 1158 425 1164 439 1163 b 574 1043 492 1143 547 1076 b 618 940 590 1021 626 967 b 551 915 610 914 578 906 b 496 943 532 922 514 932 b 451 979 490 947 457 975 b 429 988 444 983 438 989 b 328 922 410 983 344 933 b 269 906 311 911 289 903 m 526 624 b 464 654 506 644 485 654 b 336 461 393 654 331 544 b 425 379 336 413 378 379 b 468 392 440 379 456 383 b 526 624 538 442 588 563 "},"õ":{"ha":825,"x_min":0,"x_max":0,"o":"m 303 6 b 69 667 38 88 -42 429 b 435 879 133 803 286 879 b 733 726 553 879 668 831 b 658 83 857 531 811 249 b 429 -14 600 17 517 -14 b 303 6 386 -14 343 -7 m 221 974 b 225 1024 214 989 219 1008 b 358 1146 244 1074 297 1146 b 411 1129 376 1146 394 1140 b 465 1090 429 1117 447 1103 b 513 1071 481 1082 496 1072 b 538 1078 521 1071 531 1074 b 613 1124 550 1085 600 1121 b 635 1117 622 1126 629 1124 b 601 990 661 1083 629 1024 b 565 954 590 976 579 964 b 493 938 544 939 517 935 b 442 956 475 940 457 946 b 369 1003 415 968 393 988 b 354 1008 364 1006 360 1008 b 275 963 338 1008 290 971 b 251 956 268 957 260 956 b 221 974 239 956 226 961 m 526 624 b 464 654 506 644 485 654 b 336 461 393 654 331 544 b 425 379 336 413 378 379 b 468 392 440 379 456 383 b 526 624 538 442 588 563 "},"ö":{"ha":825,"x_min":0,"x_max":0,"o":"m 303 6 b 69 667 38 88 -42 429 b 435 879 133 803 286 879 b 733 726 553 879 668 831 b 658 83 857 531 811 249 b 429 -14 600 17 517 -14 b 303 6 386 -14 343 -7 m 526 624 b 464 654 506 644 485 654 b 336 461 393 654 331 544 b 425 379 336 413 378 379 b 468 392 440 379 456 383 b 526 624 538 442 588 563 m 451 1021 b 554 1129 449 1088 504 1129 b 629 1053 590 1129 625 1106 b 576 958 632 1018 607 971 b 544 953 567 954 556 953 b 451 1021 504 953 454 975 m 226 1024 b 329 1131 222 1090 278 1131 b 404 1056 365 1131 400 1108 b 350 961 406 1021 382 974 b 318 956 340 957 329 956 b 226 1024 278 956 229 978 "},"÷":{"ha":742,"x_min":0,"x_max":0,"o":"m 43 304 b 83 469 8 357 24 436 b 199 492 115 488 160 492 b 619 478 340 489 482 508 b 708 413 664 468 693 446 b 714 346 719 392 718 368 b 600 250 704 281 667 256 b 210 249 547 246 263 247 b 107 261 175 250 140 251 b 43 304 81 268 56 285 m 374 543 b 313 701 282 540 249 643 b 379 722 329 718 356 721 b 465 685 410 725 449 711 b 461 583 483 656 479 613 b 428 554 454 569 442 558 b 374 543 411 547 392 544 m 374 31 b 314 189 283 28 250 129 b 379 210 331 204 357 208 b 467 172 411 213 450 199 b 463 69 485 143 479 100 b 374 31 444 36 408 33 "},"ø":{"ha":829,"x_min":0,"x_max":0,"o":"m 146 104 b 71 667 13 244 -14 486 b 438 879 136 803 289 879 b 567 858 482 879 525 872 b 568 863 567 860 568 861 b 590 901 571 868 586 897 b 638 935 601 918 618 933 b 726 899 663 938 711 918 b 736 871 733 890 736 881 b 711 804 738 847 724 824 b 693 779 706 796 699 788 b 735 726 708 764 722 746 b 660 83 858 531 813 249 b 431 -14 601 17 518 -14 b 264 21 374 -14 315 -3 b 246 -10 256 7 250 -3 b 175 -50 229 -35 201 -50 b 118 -15 151 -50 128 -37 b 119 43 111 3 113 25 b 146 104 128 64 136 85 m 435 393 b 428 379 433 389 431 385 b 469 392 443 379 457 383 b 547 594 528 435 574 529 b 435 393 506 529 468 463 m 463 654 b 338 461 392 653 332 543 b 340 443 338 456 339 449 b 463 654 383 517 426 592 "},"ù":{"ha":939,"x_min":0,"x_max":0,"o":"m 71 157 b 85 750 7 335 17 579 b 222 831 107 804 164 831 b 394 701 296 831 383 779 b 368 458 404 632 382 526 b 372 263 356 394 338 324 b 429 226 383 242 407 226 b 525 338 479 226 513 297 b 631 810 576 493 486 700 b 694 833 649 824 672 831 b 796 815 729 836 765 829 b 835 792 810 810 825 803 b 868 713 856 771 865 740 b 864 603 872 676 869 639 b 829 399 854 535 838 467 b 907 171 819 311 828 246 b 922 143 914 164 919 153 b 829 11 931 89 882 28 b 771 1 810 6 790 1 b 575 132 688 1 603 53 b 310 -19 518 46 414 -15 b 131 50 246 -21 175 4 b 71 157 103 81 83 118 m 332 1054 b 329 1079 329 1063 328 1071 b 386 1153 332 1103 364 1142 b 417 1158 394 1156 406 1158 b 450 1149 429 1158 443 1156 b 456 1144 451 1147 454 1146 b 556 997 504 1107 532 1051 b 568 944 563 981 569 963 b 511 892 568 910 542 892 b 454 915 492 892 469 900 b 360 1017 442 928 372 1006 b 332 1054 350 1028 339 1040 "},"ú":{"ha":939,"x_min":0,"x_max":0,"o":"m 71 157 b 85 750 7 335 17 579 b 222 831 107 804 164 831 b 394 701 296 831 383 779 b 368 458 404 632 382 526 b 372 263 356 394 338 324 b 429 226 383 242 407 226 b 525 338 479 226 513 297 b 631 810 576 493 486 700 b 694 833 649 824 672 831 b 796 815 729 836 765 829 b 835 792 810 810 825 803 b 868 713 856 771 865 740 b 864 603 872 676 869 639 b 829 399 854 535 838 467 b 907 171 819 311 828 246 b 922 143 914 164 919 153 b 829 11 931 89 882 28 b 771 1 810 6 790 1 b 575 132 688 1 603 53 b 310 -19 518 46 414 -15 b 131 50 246 -21 175 4 b 71 157 103 81 83 118 m 494 900 b 438 876 478 885 457 876 b 379 929 407 876 381 894 b 492 1129 379 990 447 1096 b 497 1133 493 1131 496 1132 b 529 1143 504 1140 517 1143 b 561 1136 542 1143 553 1140 b 618 1064 585 1126 617 1088 b 615 1039 619 1056 618 1047 b 588 1001 610 1025 599 1013 b 494 900 575 990 506 913 "},"û":{"ha":939,"x_min":0,"x_max":0,"o":"m 71 157 b 85 750 7 335 17 579 b 222 831 107 804 164 831 b 394 701 296 831 383 779 b 368 458 404 632 382 526 b 372 263 356 394 338 324 b 429 226 383 242 407 226 b 525 338 479 226 513 297 b 631 810 576 493 486 700 b 694 833 649 824 672 831 b 796 815 729 836 765 829 b 835 792 810 810 825 803 b 868 713 856 771 865 740 b 864 603 872 676 869 639 b 829 399 854 535 838 467 b 907 171 819 311 828 246 b 922 143 914 164 919 153 b 829 11 931 89 882 28 b 771 1 810 6 790 1 b 575 132 688 1 603 53 b 310 -19 518 46 414 -15 b 131 50 246 -21 175 4 b 71 157 103 81 83 118 m 321 897 b 290 954 294 901 282 929 b 464 1151 304 988 418 1139 b 501 1150 476 1156 490 1154 b 624 1035 543 1135 599 1069 b 669 932 642 1013 678 958 b 603 907 661 906 629 897 b 547 935 583 913 565 924 b 501 971 542 939 508 967 b 481 979 496 975 489 981 b 379 914 461 975 396 924 b 321 897 363 903 340 893 "},"ü":{"ha":939,"x_min":0,"x_max":0,"o":"m 71 157 b 85 750 7 335 17 579 b 222 831 107 804 164 831 b 394 701 296 831 383 779 b 368 458 404 632 382 526 b 372 263 356 394 338 324 b 429 226 383 242 407 226 b 525 338 479 226 513 297 b 631 810 576 493 486 700 b 694 833 649 824 672 831 b 796 815 729 836 765 829 b 835 792 810 810 825 803 b 868 713 856 771 865 740 b 864 603 872 676 869 639 b 829 399 854 535 838 467 b 907 171 819 311 828 246 b 922 143 914 164 919 153 b 829 11 931 89 882 28 b 771 1 810 6 790 1 b 575 132 688 1 603 53 b 310 -19 518 46 414 -15 b 131 50 246 -21 175 4 b 71 157 103 81 83 118 m 510 988 b 613 1096 507 1054 563 1096 b 688 1019 650 1096 683 1072 b 635 926 690 986 667 938 b 600 921 624 922 611 921 b 510 988 560 921 513 943 m 285 990 b 388 1099 282 1057 338 1099 b 463 1022 424 1099 458 1075 b 408 928 465 989 440 940 b 376 922 399 924 388 922 b 285 990 338 922 288 944 "},"ý":{"ha":893,"x_min":0,"x_max":0,"o":"m 172 207 b 42 710 28 306 -11 543 b 201 818 64 779 135 818 b 328 726 258 818 313 789 b 351 461 350 640 324 546 b 433 404 364 426 397 404 b 547 564 518 404 536 497 b 593 742 556 624 563 688 b 717 804 619 789 667 804 b 774 797 736 804 756 801 b 835 485 938 753 869 590 b 754 168 803 381 771 275 b 725 -65 743 90 742 11 b 526 -268 701 -165 628 -243 b 374 -283 476 -279 425 -289 b 264 -68 276 -271 197 -160 b 332 -14 281 -44 307 -29 b 481 183 433 46 451 65 b 335 161 435 171 385 161 b 172 207 278 161 221 174 m 510 874 b 453 850 493 858 472 850 b 394 901 422 850 396 868 b 507 1103 394 964 463 1067 b 513 1107 508 1104 511 1104 b 544 1115 519 1113 532 1115 b 633 1036 588 1115 631 1075 b 631 1013 635 1028 633 1019 b 603 975 625 997 614 986 b 510 874 590 963 521 886 "},"þ":{"ha":893,"x_min":0,"x_max":0,"o":"m 53 561 b 36 821 42 647 31 735 b 136 1036 42 903 61 992 b 271 1058 175 1060 225 1064 b 404 975 328 1050 378 1031 b 439 710 439 896 439 796 l 443 714 b 628 776 492 757 563 778 b 839 622 724 776 799 703 b 867 363 878 544 888 447 b 551 140 829 211 700 140 b 453 160 518 140 482 146 b 456 4 458 108 461 56 b 282 -169 447 -93 385 -169 b 190 -144 250 -169 218 -161 b 100 36 125 -110 108 -31 b 81 301 90 124 88 213 b 53 561 75 389 64 475 m 457 482 b 467 408 451 461 450 421 b 482 403 469 407 481 404 b 554 433 510 397 539 410 b 568 497 565 453 568 476 b 524 556 568 532 561 556 b 500 550 515 556 507 554 b 457 482 476 538 463 508 "},"ÿ":{"ha":893,"x_min":0,"x_max":0,"o":"m 172 207 b 42 710 28 306 -11 543 b 201 818 64 779 135 818 b 328 726 258 818 313 789 b 351 461 350 640 324 546 b 433 404 364 426 397 404 b 547 564 518 404 536 497 b 593 742 556 624 563 688 b 717 804 619 789 667 804 b 774 797 736 804 756 801 b 835 485 938 753 869 590 b 754 168 803 381 771 275 b 725 -65 743 90 742 11 b 526 -268 701 -165 628 -243 b 374 -283 476 -279 425 -289 b 264 -68 276 -271 197 -160 b 332 -14 281 -44 307 -29 b 481 183 433 46 451 65 b 335 161 435 171 385 161 b 172 207 278 161 221 174 m 258 969 b 360 1078 254 1036 310 1078 b 436 1001 397 1078 432 1054 b 382 908 438 968 414 919 b 349 903 371 904 360 903 b 258 969 308 903 261 925 m 483 968 b 585 1075 481 1033 536 1075 b 661 999 622 1075 657 1053 b 607 906 664 965 639 917 b 575 900 597 901 586 900 b 483 968 536 900 486 922 "},"Ł":{"ha":797,"x_min":0,"x_max":0,"o":"m 118 286 b 86 279 107 282 97 279 b 8 394 35 279 -6 336 b 49 454 14 418 31 439 b 117 507 58 464 88 486 b 118 639 117 551 117 596 b 144 890 121 724 125 808 b 288 1068 163 976 189 1054 b 375 1067 317 1071 347 1072 b 460 1038 404 1063 433 1051 b 513 992 481 1025 501 1011 b 528 897 531 964 531 929 b 506 767 524 853 515 810 b 557 781 522 775 539 781 b 600 763 574 781 588 775 b 621 675 621 742 631 704 b 572 619 613 653 592 636 b 474 547 560 610 517 578 b 456 357 464 467 456 388 b 576 236 456 268 507 236 b 663 249 603 236 632 240 b 706 256 676 253 690 256 b 738 250 717 256 728 254 b 793 114 792 233 808 167 b 614 -17 769 29 694 -6 b 426 -22 551 -26 489 -25 b 131 292 226 -14 153 101 b 118 286 126 290 122 288 "},"ł":{"ha":544,"x_min":0,"x_max":0,"o":"m 25 276 b 10 351 10 292 1 331 b 93 425 19 371 54 399 b 128 800 93 550 106 676 b 258 1000 143 886 169 983 b 464 942 322 1013 431 993 b 479 836 483 911 483 872 b 443 672 475 781 457 726 b 488 676 457 678 474 681 b 532 618 513 669 531 642 b 524 582 533 606 529 593 b 486 542 514 567 500 554 b 413 490 463 524 438 506 b 410 233 403 404 401 318 b 394 1 415 160 464 47 b 304 -22 371 -14 338 -22 b 103 276 150 -22 115 153 b 57 263 88 268 72 261 b 25 276 44 263 33 268 "},"Œ":{"ha":1557,"x_min":0,"x_max":0,"o":"m 76 222 b 28 501 38 310 25 408 b 114 822 32 613 57 726 b 518 1031 194 961 357 1031 b 850 901 642 1031 767 989 b 1076 1046 888 1006 968 1042 b 1186 1046 1113 1049 1150 1049 b 1522 933 1297 1038 1482 1042 b 1522 856 1533 901 1528 888 b 1471 756 1515 819 1496 783 b 1426 728 1458 743 1443 732 b 1343 732 1399 721 1369 725 b 1232 769 1304 740 1268 756 b 1160 783 1208 776 1185 785 b 1108 750 1140 782 1117 769 b 1106 660 1096 722 1100 689 b 1125 622 1108 646 1113 629 b 1260 610 1161 600 1213 610 b 1360 557 1303 610 1340 603 b 1343 446 1375 522 1367 474 b 1282 413 1328 428 1304 415 b 1189 415 1251 407 1219 413 b 1126 404 1172 417 1136 418 b 1126 326 1115 389 1122 344 b 1211 260 1139 278 1160 260 b 1276 272 1235 260 1260 264 b 1372 331 1311 286 1338 315 b 1421 343 1388 336 1404 343 b 1532 208 1486 342 1529 274 b 1507 113 1533 175 1522 142 b 1360 -15 1476 54 1419 8 b 1153 -46 1296 -43 1222 -51 b 865 126 1036 -37 914 13 l 849 110 b 508 -35 754 13 643 -35 b 76 222 319 -35 157 44 m 469 757 b 375 521 388 714 374 607 b 540 303 378 417 418 303 b 690 431 617 303 668 361 b 540 768 731 558 693 740 b 469 757 517 772 490 768 "},"œ":{"ha":1301,"x_min":0,"x_max":0,"o":"m 304 -10 b 71 651 39 72 -40 414 b 438 864 135 788 289 864 b 685 772 529 864 619 835 b 917 867 749 832 832 867 b 1104 807 981 867 1046 847 b 1188 478 1211 732 1265 590 b 856 339 1115 369 974 339 l 856 338 b 885 301 864 324 874 311 b 975 267 908 279 943 265 b 1143 317 1017 268 1103 303 b 1207 322 1164 324 1186 328 b 1268 271 1233 315 1256 294 b 1244 92 1296 213 1288 139 b 956 -19 1175 14 1057 -19 b 674 85 850 -19 747 15 b 660 68 669 78 664 72 b 431 -29 599 1 519 -29 b 304 -10 388 -29 344 -22 m 528 610 b 465 639 507 631 486 639 b 338 446 394 639 332 529 b 426 364 338 397 379 364 b 469 376 442 364 457 368 b 528 610 539 426 589 547 m 874 593 b 900 504 860 535 872 504 b 982 579 936 504 975 544 b 939 653 993 628 968 653 b 874 593 913 653 883 633 "},"Š":{"ha":803,"x_min":0,"x_max":0,"o":"m 154 501 b 75 865 40 593 -6 738 b 433 1029 147 982 296 1029 b 506 1025 458 1029 482 1028 b 753 725 663 1006 842 903 b 631 649 725 669 679 649 b 506 688 589 649 543 665 b 449 714 488 697 468 708 b 406 711 435 717 418 718 b 393 682 396 706 392 692 b 417 629 393 663 403 643 b 543 544 453 594 499 571 b 749 272 658 479 738 413 b 689 83 751 207 732 135 b 374 -40 613 -6 494 -40 b 72 42 286 -40 142 -18 b 31 142 46 67 25 106 b 165 271 40 224 93 271 b 244 254 190 271 217 265 b 303 242 265 246 285 242 b 332 385 382 242 417 318 b 154 501 276 428 210 458 m 236 1288 b 265 1344 226 1311 240 1340 b 325 1326 286 1347 307 1338 b 426 1261 342 1317 407 1265 b 447 1269 433 1260 440 1265 b 493 1306 453 1274 488 1301 b 549 1335 510 1318 529 1328 b 615 1308 574 1343 606 1335 b 569 1207 624 1282 586 1229 b 447 1092 542 1169 492 1110 b 410 1089 436 1088 422 1086 b 356 1129 388 1096 371 1114 b 236 1288 333 1154 249 1256 "},"š":{"ha":689,"x_min":0,"x_max":0,"o":"m 189 340 b 114 746 -1 419 -32 621 b 356 825 176 799 267 825 b 568 771 432 825 507 807 b 667 667 611 746 654 707 b 613 518 682 617 661 551 b 540 501 593 506 565 499 b 438 532 504 504 468 517 b 365 556 406 549 382 556 b 381 467 317 556 329 500 b 629 242 476 407 615 369 b 585 85 635 189 619 131 b 303 -35 522 1 413 -35 b 71 38 235 -35 119 -18 b 142 224 1 111 40 231 b 189 340 356 211 365 267 m 143 1093 b 172 1150 133 1118 146 1146 b 231 1133 192 1153 214 1143 b 332 1068 247 1122 313 1071 b 354 1076 340 1065 347 1072 b 399 1113 360 1081 393 1108 b 454 1140 417 1124 435 1133 b 521 1115 481 1150 513 1142 b 476 1013 529 1088 493 1035 b 353 897 450 979 394 913 b 315 896 342 893 328 892 b 143 1093 271 907 154 1061 "},"Ÿ":{"ha":965,"x_min":0,"x_max":0,"o":"m 33 547 b 29 746 24 613 22 679 b 31 767 29 754 31 763 b 124 1028 36 835 49 992 b 250 1053 161 1044 207 1050 b 410 942 342 1057 406 1021 b 386 722 415 868 399 794 b 497 511 363 586 431 511 b 614 715 560 511 624 576 b 600 832 611 754 607 793 b 583 931 593 864 585 897 b 590 997 582 953 582 976 b 733 1057 604 1038 671 1057 b 853 1018 786 1057 836 1043 b 836 336 954 857 997 529 b 721 250 807 301 767 271 b 668 225 704 240 688 232 b 669 119 671 189 671 154 b 658 39 669 92 667 65 b 494 -29 640 -14 551 -31 b 350 89 404 -25 361 -10 b 349 207 347 128 347 168 b 33 547 163 244 61 354 m 288 1172 b 389 1281 283 1239 339 1281 b 465 1204 426 1281 461 1257 b 411 1110 467 1171 443 1122 b 379 1104 401 1106 390 1104 b 288 1172 339 1104 290 1126 m 513 1169 b 615 1278 510 1236 565 1278 b 690 1201 651 1278 686 1254 b 638 1108 693 1168 668 1119 b 606 1103 628 1104 617 1103 b 513 1169 565 1103 515 1124 "},"Ž":{"ha":846,"x_min":0,"x_max":0,"o":"m 38 156 b 336 638 3 363 194 514 b 463 744 378 674 422 707 b 475 758 465 747 469 753 b 329 767 426 764 378 767 b 157 764 308 767 178 764 b 64 793 124 765 86 771 b 47 1000 17 838 21 943 b 279 1090 88 1085 197 1090 b 433 1082 331 1090 382 1086 b 808 893 567 1074 807 1061 b 731 703 810 825 775 757 b 460 276 629 579 301 364 b 599 265 482 264 571 264 b 690 274 610 265 679 274 b 760 263 714 272 738 269 b 819 99 822 240 838 160 b 607 -26 789 -12 708 -18 b 526 -29 581 -28 553 -31 b 138 26 396 -26 254 -39 b 38 156 89 53 47 103 m 240 1313 b 271 1369 231 1336 244 1365 b 329 1351 290 1372 311 1363 b 431 1286 346 1342 411 1290 b 451 1294 438 1285 446 1290 b 497 1331 458 1299 492 1326 b 553 1360 514 1343 533 1353 b 619 1333 579 1369 610 1360 b 574 1232 628 1307 590 1254 b 451 1117 549 1197 493 1132 b 414 1114 440 1113 426 1111 b 360 1154 393 1121 375 1139 b 240 1313 338 1179 253 1282 "},"ž":{"ha":832,"x_min":0,"x_max":0,"o":"m 17 557 b 53 671 14 597 29 640 b 156 751 79 706 117 731 b 496 843 258 807 379 843 b 772 693 597 843 758 817 b 751 581 778 656 769 614 b 664 468 728 539 696 503 b 518 313 615 417 564 367 b 483 267 506 297 494 282 b 622 299 524 278 603 296 b 675 303 639 301 657 303 b 801 232 732 303 776 285 b 813 140 814 204 815 171 b 639 1 806 46 728 4 b 307 -26 528 -4 417 -17 b 201 -28 272 -29 236 -32 b 119 263 54 -11 17 169 b 463 503 224 357 365 403 b 442 544 499 540 469 551 b 164 419 343 521 263 446 b 106 418 146 414 124 413 b 17 557 60 433 21 508 m 221 1107 b 250 1164 211 1132 224 1160 b 308 1147 271 1167 292 1158 b 410 1082 326 1136 390 1086 b 432 1090 418 1081 425 1086 b 478 1126 438 1094 471 1122 b 532 1154 494 1138 513 1147 b 599 1129 558 1164 590 1156 b 554 1026 607 1103 571 1049 b 432 911 531 993 471 928 b 394 910 419 907 406 906 b 221 1107 349 921 233 1074 "},"ƒ":{"ha":674,"x_min":0,"x_max":0,"o":"m 21 -164 b -19 -36 -24 -133 -51 -79 b 94 164 26 22 100 82 b 83 625 83 314 67 475 b 114 779 89 678 94 731 b 400 935 163 903 285 935 b 493 929 432 935 464 933 b 656 832 553 922 651 911 b 651 753 658 806 657 779 b 563 663 646 704 614 665 b 400 651 532 660 425 671 b 388 607 392 644 389 618 b 397 560 388 594 386 567 b 482 554 411 551 465 554 b 624 458 551 554 619 551 b 603 382 625 432 619 401 b 514 349 582 358 546 351 b 425 351 485 344 454 347 b 382 358 419 353 390 357 b 390 281 385 331 389 292 b 346 -62 400 165 415 39 b 193 -168 311 -114 251 -149 b 83 -183 158 -181 121 -186 b 21 -164 61 -182 39 -175 "},"ˆ":{"ha":542,"x_min":0,"x_max":0,"o":"m 65 739 b 26 813 31 744 14 781 b 181 1017 42 853 151 985 b 251 1069 201 1038 222 1061 b 300 1065 267 1074 285 1072 b 458 917 353 1046 426 960 b 517 785 479 888 528 819 b 458 746 508 760 483 746 b 358 788 428 746 382 771 b 300 835 351 793 308 829 b 272 846 292 840 282 847 b 140 761 247 840 163 774 b 65 739 118 747 90 735 "},"ˇ":{"ha":542,"x_min":0,"x_max":0,"o":"m 83 893 b 25 1025 63 922 14 990 b 83 1064 33 1050 58 1064 b 183 1022 114 1064 160 1039 b 242 975 190 1017 235 981 b 269 964 250 969 260 961 b 401 1049 294 969 379 1035 b 478 1071 424 1063 451 1075 b 515 997 511 1065 528 1029 b 361 793 500 957 390 825 b 290 740 340 772 319 749 b 242 743 275 736 257 738 b 83 893 188 767 117 847 "},"˜":{"ha":597,"x_min":0,"x_max":0,"o":"m 29 807 b 35 872 21 826 26 851 b 206 1028 58 938 128 1028 b 272 1007 228 1028 251 1021 b 342 957 296 990 318 972 b 401 932 360 946 381 933 b 433 942 413 932 424 936 b 529 1000 449 950 513 996 b 558 990 542 1003 551 999 b 515 829 592 947 550 871 b 468 782 501 813 486 794 b 376 763 442 764 407 757 b 311 783 353 765 331 774 b 218 844 278 801 250 825 b 200 853 213 849 207 853 b 99 793 178 851 118 806 b 67 783 89 788 78 783 b 29 807 51 783 36 792 "},"ẞ":{"ha":950,"x_min":0,"x_max":0,"o":"m 50 372 b 53 660 47 468 44 564 b 468 1076 75 910 200 1069 b 668 1038 536 1079 608 1068 b 817 788 757 992 819 886 b 686 600 817 701 751 646 b 879 451 765 563 829 529 b 656 -31 1013 251 890 3 b 586 -36 633 -33 610 -36 b 411 68 511 -36 431 -15 b 461 260 397 126 411 228 b 624 315 510 292 575 285 b 651 381 644 328 661 358 b 547 425 640 408 576 419 b 425 471 504 433 458 442 b 413 624 383 506 382 578 b 464 697 428 649 451 669 b 449 782 475 725 476 767 b 418 785 440 786 428 786 b 329 656 351 774 338 713 b 335 375 317 563 324 468 b 357 106 346 286 363 196 b 335 21 354 76 349 46 b 189 -53 306 -29 244 -53 b 58 100 115 -53 69 0 b 53 286 51 163 53 225 b 50 372 53 297 50 361 "},"–":{"ha":614,"x_min":0,"x_max":0,"o":"m 42 318 b 75 483 15 371 26 450 b 168 506 101 501 136 506 b 507 492 282 503 397 522 b 581 426 543 482 567 460 b 585 360 588 406 588 382 b 492 264 576 303 554 269 b 176 263 450 260 219 261 b 42 318 126 265 69 269 "},"—":{"ha":804,"x_min":0,"x_max":0,"o":"m 42 335 b 75 500 15 386 26 467 b 168 521 101 518 136 522 b 697 506 282 519 588 536 b 771 439 733 494 757 474 b 775 374 778 418 778 394 b 682 276 767 318 744 282 b 176 279 640 274 219 278 b 94 290 149 279 121 282 b 42 335 72 299 53 315 "},"‘":{"ha":313,"x_min":0,"x_max":0,"o":"m 90 675 b 32 825 40 708 25 768 b 106 983 42 894 60 932 b 146 1000 117 994 132 1000 b 172 964 163 1000 176 989 b 144 899 169 940 154 921 b 139 876 142 892 140 885 b 154 882 144 879 149 881 b 275 832 199 894 257 875 b 232 676 297 779 281 708 b 158 658 214 664 186 658 b 90 675 132 658 107 664 "},"’":{"ha":313,"x_min":0,"x_max":0,"o":"m 38 826 b 81 982 15 879 32 949 b 154 1000 99 994 126 1000 b 222 983 181 1000 206 994 b 281 833 272 950 288 890 b 207 675 271 764 253 726 b 167 657 196 664 181 657 b 140 694 150 657 136 669 b 168 760 143 718 158 738 b 174 782 171 767 172 774 b 158 776 168 779 164 778 b 38 826 114 764 56 783 "},"‚":{"ha":304,"x_min":0,"x_max":0,"o":"m 35 35 b 78 190 13 88 29 158 b 151 208 96 203 124 208 b 219 192 178 208 203 203 b 278 42 269 158 285 99 b 204 -117 268 -28 250 -65 b 164 -135 193 -128 178 -135 b 138 -97 147 -135 133 -122 b 165 -32 140 -74 156 -54 b 171 -10 168 -25 169 -18 b 156 -15 165 -12 161 -14 b 35 35 111 -28 53 -8 "},"“":{"ha":611,"x_min":0,"x_max":0,"o":"m 389 672 b 331 822 339 706 324 765 b 369 939 336 863 347 904 b 404 981 381 953 392 968 b 444 999 415 992 431 999 b 472 961 463 999 476 986 b 444 897 468 938 453 918 b 438 875 440 890 439 882 b 453 881 443 876 447 879 b 574 829 497 892 556 872 b 531 674 596 776 581 707 b 457 656 513 661 485 656 b 389 672 432 656 406 661 m 90 675 b 32 825 40 708 25 768 b 106 983 42 894 60 932 b 146 1000 117 994 132 1000 b 172 964 163 1000 176 989 b 144 899 169 940 154 921 b 139 876 142 892 140 885 b 154 882 144 879 149 881 b 275 832 199 894 257 875 b 232 676 297 779 281 708 b 158 658 214 664 186 658 b 90 675 132 658 107 664 "},"”":{"ha":611,"x_min":0,"x_max":0,"o":"m 336 824 b 379 981 314 876 331 947 b 451 997 397 992 425 997 b 522 981 479 997 506 992 b 579 832 571 947 586 888 b 540 715 574 790 563 749 b 465 656 525 692 497 656 b 439 692 447 656 435 667 b 467 757 443 715 457 735 b 472 779 469 764 471 771 b 457 774 467 776 463 775 b 336 824 413 761 354 781 m 38 826 b 81 982 15 879 32 949 b 154 1000 99 994 126 1000 b 222 983 181 1000 206 994 b 281 833 272 950 288 890 b 207 675 271 764 253 726 b 167 657 196 664 181 657 b 140 694 150 657 136 669 b 168 760 143 718 158 738 b 174 782 171 767 172 774 b 158 776 168 779 164 778 b 38 826 114 764 56 783 "},"„":{"ha":603,"x_min":0,"x_max":0,"o":"m 333 26 b 376 183 311 79 328 150 b 449 200 394 194 422 200 b 519 183 476 200 503 194 b 576 35 568 150 583 90 b 538 -82 571 -7 560 -47 b 463 -142 522 -106 494 -142 b 436 -106 444 -142 432 -131 b 464 -40 440 -82 454 -62 b 469 -18 467 -33 468 -26 b 454 -24 464 -21 460 -22 b 333 26 410 -36 351 -17 m 35 29 b 78 185 13 82 29 153 b 151 203 96 197 124 203 b 219 186 178 203 203 197 b 278 36 269 153 285 93 b 204 -122 268 -33 250 -71 b 164 -139 193 -133 178 -139 b 138 -103 147 -139 133 -128 b 165 -37 140 -79 156 -60 b 171 -15 168 -31 169 -24 b 156 -21 165 -18 161 -19 b 35 29 111 -33 53 -14 "},"†":{"ha":689,"x_min":0,"x_max":0,"o":"m 32 494 b 33 632 -6 529 3 593 b 104 669 50 653 78 667 b 172 671 126 672 150 675 b 183 668 176 671 179 669 b 160 875 179 736 172 807 b 157 965 154 904 151 936 b 301 1058 169 1038 236 1058 b 401 1032 338 1058 372 1056 b 496 840 469 976 488 928 b 501 683 501 788 500 735 b 569 688 524 686 547 688 b 665 660 603 688 640 681 b 665 529 704 629 704 560 b 567 500 639 507 601 503 b 508 496 547 497 528 496 b 522 199 511 397 517 297 b 522 88 525 161 528 124 b 411 -32 513 25 479 -26 b 308 -25 378 -35 342 -35 b 236 17 282 -17 254 -4 b 206 88 218 35 210 63 b 201 200 201 125 201 163 b 193 471 200 231 196 374 b 83 472 153 465 107 467 b 32 494 65 476 46 482 "},"‡":{"ha":713,"x_min":0,"x_max":0,"o":"m 42 618 b 49 732 26 647 29 706 b 82 754 57 742 69 750 b 165 765 108 763 138 767 b 183 763 168 765 175 764 b 168 875 179 800 175 838 b 167 965 163 904 161 936 b 310 1058 179 1038 244 1058 b 410 1032 347 1058 379 1056 b 508 775 496 967 508 879 b 547 775 524 776 539 776 b 624 758 572 774 599 768 b 661 736 638 754 650 746 b 643 618 696 701 686 642 b 529 593 608 600 568 596 b 513 592 526 593 519 592 b 521 383 515 522 519 453 b 632 358 557 383 603 382 b 657 265 658 338 672 294 b 531 207 636 229 569 210 b 532 199 531 204 531 201 b 531 88 533 161 536 124 b 421 -32 521 25 489 -26 b 317 -25 386 -35 350 -35 b 215 88 258 -7 222 24 b 210 200 211 125 210 163 b 129 211 182 197 154 201 b 67 271 103 221 75 243 b 107 375 57 307 72 358 b 204 386 136 389 172 389 b 199 561 201 463 199 539 b 197 578 199 567 199 572 b 88 585 157 576 108 579 b 42 618 69 590 51 601 "},"•":{"ha":444,"x_min":0,"x_max":0,"o":"m 60 389 b 68 610 14 442 26 550 b 231 703 104 665 164 703 b 383 626 290 703 350 675 b 410 483 413 588 415 532 b 221 333 401 379 317 333 b 60 389 168 333 94 347 "},"…":{"ha":929,"x_min":0,"x_max":0,"o":"m 46 36 b 51 183 15 72 24 144 b 160 246 75 221 115 246 b 261 196 200 246 239 228 b 279 100 281 169 282 132 b 154 0 274 32 217 0 b 46 36 117 0 72 10 m 668 35 b 672 182 636 71 644 143 b 781 243 700 219 733 243 b 883 193 819 243 860 225 b 900 97 901 167 904 131 b 775 -1 894 29 838 -1 b 668 35 740 -1 692 7 m 360 29 b 364 176 328 65 338 138 b 474 239 390 214 426 239 b 575 189 513 239 551 221 b 592 93 593 163 596 125 b 467 -7 586 25 529 -7 b 360 29 432 -7 385 3 "},"‰":{"ha":1856,"x_min":0,"x_max":0,"o":"m 331 72 b 336 188 321 108 326 150 b 496 543 372 314 440 425 b 636 811 539 635 588 722 b 744 990 669 874 703 935 b 789 1039 757 1008 772 1025 b 865 1058 808 1053 836 1058 b 1064 950 936 1058 1038 1024 b 1067 856 1074 921 1075 886 b 1010 733 1056 811 1033 771 b 850 468 957 646 899 560 b 681 103 826 424 703 150 b 504 -47 646 29 594 -47 b 331 72 435 -47 350 1 m 26 658 b 42 808 21 708 24 763 b 247 965 76 901 146 965 b 306 958 267 965 288 963 b 476 811 388 944 446 888 b 476 600 503 746 499 667 b 392 494 461 557 431 517 b 240 463 347 469 292 461 b 26 658 129 469 39 546 m 868 232 b 883 382 861 282 865 335 b 1088 538 918 476 985 538 b 1238 493 1135 538 1204 525 b 1318 383 1271 463 1301 425 b 1317 174 1344 318 1340 239 b 1233 68 1303 131 1272 90 b 1082 36 1188 43 1133 33 b 868 232 971 40 881 119 m 1364 235 b 1379 386 1358 285 1361 339 b 1588 542 1415 481 1483 542 b 1735 496 1636 542 1699 528 b 1814 388 1768 465 1797 429 b 1814 176 1840 322 1836 243 b 1729 72 1799 135 1768 94 b 1578 40 1685 46 1629 38 b 1364 235 1467 43 1376 124 m 224 758 b 268 694 213 721 240 694 b 310 722 285 694 300 703 b 278 799 325 753 311 792 b 246 785 269 800 251 790 b 224 758 236 778 226 769 m 1064 332 b 1110 268 1054 294 1081 268 b 1151 296 1125 268 1142 276 b 1119 371 1167 326 1153 364 b 1086 357 1111 374 1093 363 b 1064 332 1078 350 1068 343 m 1561 335 b 1606 271 1550 297 1578 271 b 1647 300 1621 271 1638 279 b 1615 375 1663 331 1649 368 b 1583 361 1607 376 1589 367 b 1561 335 1574 354 1564 346 "},"‹":{"ha":446,"x_min":0,"x_max":0,"o":"m 43 331 b 35 424 26 360 24 392 b 101 522 49 461 72 496 b 340 692 149 567 272 682 b 404 610 393 700 433 661 b 261 433 367 543 306 494 b 238 383 250 418 236 401 b 276 329 239 369 265 339 b 386 217 314 293 356 258 b 406 144 401 196 413 168 b 346 104 397 115 374 104 b 43 331 249 104 88 253 "},"›":{"ha":446,"x_min":0,"x_max":0,"o":"m 42 610 b 106 692 13 661 53 700 b 344 522 174 682 297 567 b 411 424 374 496 397 461 b 403 331 422 392 419 360 b 100 104 357 249 194 104 b 40 144 72 104 49 115 b 60 217 33 168 44 196 b 169 329 90 258 132 293 b 208 383 181 339 207 369 b 185 433 210 401 196 418 b 42 610 140 494 79 543 "},"⁄":{"ha":782,"x_min":0,"x_max":0,"o":"m 15 99 b 379 893 15 271 290 750 b 464 1021 407 936 431 982 b 606 1099 503 1067 544 1099 b 796 943 693 1099 790 1038 b 761 818 799 900 782 856 b 654 646 749 796 667 667 b 468 307 588 535 525 422 b 344 54 451 275 361 85 b 192 -46 311 -14 269 -46 b 15 99 100 -46 15 -4 "},"€":{"ha":868,"x_min":0,"x_max":0,"o":"m 60 499 b 74 604 8 521 19 592 b 113 607 79 607 96 607 b 493 1067 132 810 263 1067 b 665 1021 546 1067 621 1051 b 817 825 735 972 790 906 b 803 692 831 782 831 726 b 688 617 775 654 733 626 b 567 650 647 608 594 618 b 507 781 536 686 533 740 b 482 796 500 792 492 796 b 399 615 417 796 401 660 b 476 617 425 618 451 622 b 544 535 518 608 554 575 b 514 506 540 521 526 511 b 399 486 489 494 436 482 b 401 443 400 472 400 457 b 496 446 433 449 478 449 b 539 353 540 438 571 386 b 417 329 517 331 456 325 b 436 264 421 307 426 283 b 492 228 447 240 468 218 b 568 313 513 235 554 294 b 610 350 579 326 593 342 b 661 363 625 358 643 363 b 796 299 707 363 769 336 b 810 218 810 275 813 244 b 507 -68 794 51 681 -68 b 125 311 293 -68 158 114 b 76 317 108 311 85 314 b 36 397 42 326 24 363 b 74 429 43 414 57 425 b 111 429 81 431 96 431 b 110 476 111 446 111 461 l 110 489 b 60 499 93 489 75 493 "},"™":{"ha":1054,"x_min":0,"x_max":0,"o":"m 468 618 b 454 793 454 675 451 735 b 469 928 457 839 463 883 b 576 1031 481 983 515 1024 b 672 992 621 1036 656 1028 b 718 863 692 950 701 906 b 733 822 721 851 726 838 b 750 865 740 839 746 853 b 796 994 765 908 776 953 b 890 1035 813 1031 847 1039 b 997 931 953 1028 988 986 b 1014 797 1006 886 1011 842 b 999 621 1017 738 1014 678 b 911 539 989 575 960 539 b 867 550 894 539 878 543 b 858 661 832 572 856 625 b 850 835 864 718 861 778 b 826 781 842 814 829 788 b 768 644 807 736 794 688 b 736 628 761 633 749 628 b 706 643 724 628 713 633 b 642 778 675 682 661 732 b 618 831 639 783 626 811 b 610 657 607 774 604 715 b 601 547 613 622 636 569 b 557 536 590 540 574 536 b 468 618 507 536 481 572 m 36 919 b 32 1007 15 943 14 982 b 69 1033 40 1018 54 1028 b 132 1036 89 1039 111 1038 b 263 1033 149 1036 246 1033 l 346 1038 b 419 1032 371 1038 399 1043 b 454 996 440 1024 444 1014 b 450 938 461 978 460 956 b 406 907 442 924 424 913 b 332 901 382 900 357 899 b 347 697 328 833 332 764 b 365 632 353 675 360 654 b 367 581 368 615 371 597 b 274 526 358 542 308 526 b 178 583 233 526 194 544 b 160 651 167 604 163 628 b 153 851 151 718 154 785 b 157 913 153 872 156 892 b 68 904 128 906 97 900 b 36 919 56 907 44 913 "},"−":{"ha":614,"x_min":0,"x_max":0,"o":"m 42 318 b 75 483 15 371 26 450 b 168 506 101 501 136 506 b 507 492 282 503 397 522 b 581 426 543 482 567 460 b 585 360 588 406 588 382 b 492 264 576 303 554 269 b 176 263 450 260 219 261 b 42 318 126 265 69 269 "}}}
